<svg width="26" height="26" viewBox="0 0 26 26" fill="none" xmlns="http://www.w3.org/2000/svg">
<g clip-path="url(#clip0_1203_1862)">
<mask id="path-1-outside-1_1203_1862" maskUnits="userSpaceOnUse" x="13.4015" y="2.88208" width="6" height="7" fill="black">
<rect fill="white" x="13.4015" y="2.88208" width="6" height="7"/>
<path fill-rule="evenodd" clip-rule="evenodd" d="M14.7334 8.66665C14.774 8.71276 14.824 8.74969 14.8801 8.77499C14.9361 8.80028 14.9969 8.81336 15.0584 8.81336C15.1198 8.81336 15.1806 8.80028 15.2367 8.77499C15.2927 8.74969 15.3427 8.71276 15.3834 8.66665L16.4667 7.47499C16.5385 7.37443 16.5675 7.24945 16.5472 7.12755C16.5268 7.00565 16.4589 6.89682 16.3584 6.82499C16.2578 6.75316 16.1328 6.72422 16.0109 6.74454C15.889 6.76485 15.7802 6.83276 15.7084 6.93332L14.625 8.01665C14.5573 8.05413 14.5008 8.10906 14.4615 8.17574C14.4222 8.24242 14.4015 8.31841 14.4015 8.39582C14.4015 8.47323 14.4222 8.54922 14.4615 8.6159C14.5008 8.68258 14.5573 8.73751 14.625 8.77499M17.4417 6.06665C17.5091 6.0585 17.5736 6.03465 17.63 5.99702C17.6864 5.95938 17.7333 5.90902 17.7667 5.84999L18.85 4.65832C18.9014 4.61866 18.9431 4.56797 18.9723 4.51001C19.0014 4.45204 19.0172 4.38827 19.0184 4.32341C19.0196 4.25855 19.0062 4.19424 18.9792 4.13524C18.9522 4.07624 18.9123 4.02405 18.8625 3.98252C18.8127 3.94099 18.7541 3.91117 18.6912 3.89528C18.6283 3.87939 18.5627 3.87782 18.4991 3.8907C18.4355 3.90357 18.3756 3.93056 18.3239 3.96967C18.2721 4.00878 18.2298 4.05901 18.2 4.11665L17.1167 5.19999C17.0598 5.22133 17.0077 5.25367 16.9632 5.29516C16.9188 5.33665 16.883 5.38648 16.8579 5.44181C16.8071 5.55355 16.8028 5.68089 16.8459 5.79582C16.889 5.91075 16.976 6.00385 17.0877 6.05464C17.1994 6.10543 17.3268 6.10975 17.4417 6.06665Z"/>
</mask>
<path fill-rule="evenodd" clip-rule="evenodd" d="M14.7334 8.66665C14.774 8.71276 14.824 8.74969 14.8801 8.77499C14.9361 8.80028 14.9969 8.81336 15.0584 8.81336C15.1198 8.81336 15.1806 8.80028 15.2367 8.77499C15.2927 8.74969 15.3427 8.71276 15.3834 8.66665L16.4667 7.47499C16.5385 7.37443 16.5675 7.24945 16.5472 7.12755C16.5268 7.00565 16.4589 6.89682 16.3584 6.82499C16.2578 6.75316 16.1328 6.72422 16.0109 6.74454C15.889 6.76485 15.7802 6.83276 15.7084 6.93332L14.625 8.01665C14.5573 8.05413 14.5008 8.10906 14.4615 8.17574C14.4222 8.24242 14.4015 8.31841 14.4015 8.39582C14.4015 8.47323 14.4222 8.54922 14.4615 8.6159C14.5008 8.68258 14.5573 8.73751 14.625 8.77499M17.4417 6.06665C17.5091 6.0585 17.5736 6.03465 17.63 5.99702C17.6864 5.95938 17.7333 5.90902 17.7667 5.84999L18.85 4.65832C18.9014 4.61866 18.9431 4.56797 18.9723 4.51001C19.0014 4.45204 19.0172 4.38827 19.0184 4.32341C19.0196 4.25855 19.0062 4.19424 18.9792 4.13524C18.9522 4.07624 18.9123 4.02405 18.8625 3.98252C18.8127 3.94099 18.7541 3.91117 18.6912 3.89528C18.6283 3.87939 18.5627 3.87782 18.4991 3.8907C18.4355 3.90357 18.3756 3.93056 18.3239 3.96967C18.2721 4.00878 18.2298 4.05901 18.2 4.11665L17.1167 5.19999C17.0598 5.22133 17.0077 5.25367 16.9632 5.29516C16.9188 5.33665 16.883 5.38648 16.8579 5.44181C16.8071 5.55355 16.8028 5.68089 16.8459 5.79582C16.889 5.91075 16.976 6.00385 17.0877 6.05464C17.1994 6.10543 17.3268 6.10975 17.4417 6.06665Z" fill="#262626"/>
<path d="M15.0584 8.81336L15.0584 8.71336L15.0584 8.81336ZM15.3834 8.66665L15.3094 8.59938L15.3084 8.60051L15.3834 8.66665ZM16.4667 7.47499L16.5412 7.54272L16.5481 7.53311L16.4667 7.47499ZM15.7084 6.93332L15.7791 7.00403L15.7849 6.99818L15.7897 6.99144L15.7084 6.93332ZM14.625 8.01665L14.6734 8.10415L14.6858 8.09733L14.6957 8.08737L14.625 8.01665ZM14.4015 8.39582L14.5015 8.39582L14.4015 8.39582ZM17.4417 6.06665L17.4297 5.96738L17.4178 5.96882L17.4066 5.97302L17.4417 6.06665ZM17.7667 5.84999L17.6927 5.78272L17.6852 5.79099L17.6797 5.80071L17.7667 5.84999ZM18.85 4.65832L18.7889 4.57919L18.7819 4.58456L18.776 4.59105L18.85 4.65832ZM18.2 4.11665L18.2707 4.18736L18.2818 4.17636L18.2889 4.16252L18.2 4.11665ZM17.1167 5.19999L17.1518 5.29362L17.1721 5.28601L17.1874 5.2707L17.1167 5.19999ZM16.8579 5.44181L16.7668 5.40043L16.8579 5.44181ZM14.6584 8.7328C14.7084 8.78955 14.77 8.835 14.8389 8.86613L14.9212 8.68384C14.8781 8.66439 14.8397 8.63598 14.8084 8.60051L14.6584 8.7328ZM14.8389 8.86613C14.9079 8.89726 14.9827 8.91336 15.0584 8.91336L15.0584 8.71336C15.0111 8.71336 14.9643 8.7033 14.9212 8.68384L14.8389 8.86613ZM15.0584 8.91336C15.134 8.91336 15.2088 8.89726 15.2778 8.86613L15.1955 8.68384C15.1524 8.7033 15.1057 8.71336 15.0584 8.71336L15.0584 8.91336ZM15.2778 8.86613C15.3468 8.835 15.4083 8.78955 15.4584 8.7328L15.3084 8.60051C15.2771 8.63598 15.2386 8.66439 15.1955 8.68384L15.2778 8.86613ZM15.4574 8.73392L16.5407 7.54225L16.3927 7.40772L15.3094 8.59939L15.4574 8.73392ZM16.5481 7.53311C16.6353 7.41097 16.6705 7.25917 16.6458 7.11111L16.4485 7.14399C16.4645 7.23973 16.4417 7.33788 16.3853 7.41686L16.5481 7.53311ZM16.6458 7.11111C16.6211 6.96305 16.5386 6.83086 16.4165 6.74361L16.3002 6.90636C16.3792 6.96278 16.4326 7.04825 16.4485 7.14399L16.6458 7.11111ZM16.4165 6.74361C16.2944 6.65637 16.1426 6.62122 15.9945 6.6459L16.0274 6.84317C16.1231 6.82722 16.2213 6.84995 16.3002 6.90636L16.4165 6.74361ZM15.9945 6.6459C15.8464 6.67057 15.7142 6.75305 15.627 6.8752L15.7897 6.99144C15.8462 6.91247 15.9316 6.85913 16.0274 6.84317L15.9945 6.6459ZM15.6377 6.86261L14.5543 7.94594L14.6957 8.08737L15.7791 7.00403L15.6377 6.86261ZM14.5766 7.92915C14.4933 7.97528 14.4238 8.04289 14.3754 8.12495L14.5477 8.22653C14.5779 8.17524 14.6213 8.13298 14.6734 8.10415L14.5766 7.92915ZM14.3754 8.12495C14.327 8.20702 14.3015 8.30055 14.3015 8.39582L14.5015 8.39582C14.5015 8.33628 14.5174 8.27782 14.5477 8.22653L14.3754 8.12495ZM14.3015 8.39582C14.3015 8.49109 14.327 8.58462 14.3754 8.66669L14.5477 8.56511C14.5174 8.51382 14.5015 8.45536 14.5015 8.39582L14.3015 8.39582ZM14.3754 8.66669C14.4238 8.74876 14.4933 8.81637 14.5766 8.86249L14.6734 8.68749C14.6213 8.65866 14.5779 8.61641 14.5477 8.56511L14.3754 8.66669ZM17.4537 6.16593C17.5366 6.1559 17.616 6.12654 17.6855 6.08022L17.5745 5.91381C17.5311 5.94276 17.4815 5.96111 17.4297 5.96738L17.4537 6.16593ZM17.6855 6.08022C17.7549 6.0339 17.8126 5.97192 17.8537 5.89926L17.6797 5.80071C17.654 5.84612 17.618 5.88486 17.5745 5.91381L17.6855 6.08022ZM17.8407 5.91725L18.924 4.72559L18.776 4.59105L17.6927 5.78272L17.8407 5.91725ZM18.9112 4.73745C18.9744 4.68864 19.0258 4.62626 19.0616 4.55491L18.8829 4.4651C18.8605 4.50969 18.8284 4.54868 18.7889 4.57919L18.9112 4.73745ZM19.0616 4.55491C19.0975 4.48357 19.1169 4.40509 19.1183 4.32526L18.9184 4.32157C18.9175 4.37146 18.9053 4.42051 18.8829 4.4651L19.0616 4.55491ZM19.1183 4.32526C19.1198 4.24542 19.1033 4.16628 19.0701 4.09366L18.8883 4.17682C18.909 4.22221 18.9193 4.27167 18.9184 4.32157L19.1183 4.32526ZM19.0701 4.09366C19.0369 4.02105 18.9879 3.95681 18.9265 3.9057L18.7985 4.05934C18.8368 4.09129 18.8675 4.13143 18.8883 4.17682L19.0701 4.09366ZM18.9265 3.9057C18.8652 3.85458 18.7932 3.81789 18.7157 3.79833L18.6668 3.99224C18.7151 4.00446 18.7602 4.02739 18.7985 4.05934L18.9265 3.9057ZM18.7157 3.79833C18.6383 3.77877 18.5575 3.77684 18.4793 3.79269L18.5189 3.98871C18.5679 3.97881 18.6184 3.98001 18.6668 3.99224L18.7157 3.79833ZM18.4793 3.79269C18.401 3.80853 18.3273 3.84175 18.2636 3.88988L18.3842 4.04946C18.424 4.01937 18.47 3.99861 18.5189 3.98871L18.4793 3.79269ZM18.2636 3.88988C18.1999 3.93801 18.1478 3.99983 18.1112 4.07079L18.2889 4.16252C18.3118 4.11818 18.3443 4.07954 18.3842 4.04946L18.2636 3.88988ZM18.1293 4.04594L17.046 5.12928L17.1874 5.2707L18.2707 4.18736L18.1293 4.04594ZM17.0816 5.10635C17.0124 5.13231 16.949 5.17163 16.895 5.22209L17.0315 5.36823C17.0663 5.3357 17.1072 5.31035 17.1518 5.29362L17.0816 5.10635ZM16.895 5.22209C16.841 5.27255 16.7974 5.33315 16.7668 5.40043L16.9489 5.48319C16.9686 5.43982 16.9967 5.40075 17.0315 5.36823L16.895 5.22209ZM16.7668 5.40043C16.7051 5.53632 16.6998 5.69117 16.7522 5.83093L16.9395 5.76071C16.9057 5.67061 16.9091 5.57079 16.9489 5.48319L16.7668 5.40043ZM16.7522 5.83093C16.8046 5.97069 16.9104 6.08391 17.0463 6.14568L17.1291 5.9636C17.0415 5.92379 16.9733 5.8508 16.9395 5.76071L16.7522 5.83093ZM17.0463 6.14568C17.1822 6.20744 17.3371 6.2127 17.4768 6.16029L17.4066 5.97302C17.3165 6.00681 17.2167 6.00342 17.1291 5.9636L17.0463 6.14568Z" fill="#262626" mask="url(#path-1-outside-1_1203_1862)"/>
<mask id="path-3-outside-2_1203_1862" maskUnits="userSpaceOnUse" x="-0.72937" y="-0.130737" width="24" height="26" fill="black">
<rect fill="white" x="-0.72937" y="-0.130737" width="24" height="26"/>
<path fill-rule="evenodd" clip-rule="evenodd" d="M16.0333 18.2C15.7083 18.3083 14.95 18.2 13.8667 17.4417L14.5167 17.225L15.3833 16.9L16.0333 18.2ZM2.16666 23.8334C2.0914 23.8563 2.0113 23.8584 1.93496 23.8393C1.85862 23.8202 1.78891 23.7807 1.73333 23.725C1.67762 23.6694 1.63811 23.5997 1.61902 23.5234C1.59994 23.447 1.602 23.3669 1.62499 23.2917L5.30833 10.8333C6.38588 12.6547 7.73788 14.2991 9.31666 15.7083C10.8229 17.1511 12.5398 18.3565 14.4083 19.2833L12.4583 20.0417H12.2417C11.9167 20.15 9.96666 19.5 7.58333 17.3333C7.08643 16.8922 6.61616 16.4219 6.17499 15.925C6.09814 15.8635 6.00261 15.83 5.90416 15.83C5.8057 15.83 5.71018 15.8635 5.63333 15.925C5.57179 16.0019 5.53826 16.0974 5.53826 16.1958C5.53826 16.2943 5.57179 16.3898 5.63333 16.4667C5.95833 17.0083 6.49999 17.55 7.04166 17.9834C8.34166 19.175 9.74999 20.15 10.8333 20.5834L8.34166 21.5583H8.23333C8.01666 21.5583 6.82499 21.2333 5.30833 19.825C4.92235 19.4897 4.56035 19.1277 4.22499 18.7417C4.18533 18.6903 4.13464 18.6486 4.07668 18.6194C4.01871 18.5903 3.95495 18.5746 3.89008 18.5734C3.82522 18.5722 3.76092 18.5855 3.70191 18.6125C3.64291 18.6395 3.59072 18.6794 3.54919 18.7292C3.50766 18.779 3.47785 18.8376 3.46195 18.9005C3.44606 18.9634 3.4445 19.029 3.45737 19.0926C3.47025 19.1562 3.49723 19.2161 3.53634 19.2678C3.57545 19.3196 3.62568 19.3619 3.68333 19.3917C4.59479 20.4827 5.69579 21.4002 6.93333 22.1L4.33333 23.075C4.11666 23.075 3.68333 22.8584 3.14166 22.3167L2.81666 21.9917C2.77398 21.949 2.72331 21.9151 2.66755 21.8921C2.61178 21.869 2.55202 21.8571 2.49166 21.8571C2.4313 21.8571 2.37153 21.869 2.31577 21.8921C2.26001 21.9151 2.20934 21.949 2.16666 21.9917C2.12398 22.0344 2.09012 22.085 2.06703 22.1408C2.04393 22.1966 2.03204 22.2563 2.03204 22.3167C2.03204 22.377 2.04393 22.4368 2.06703 22.4926C2.09012 22.5483 2.12398 22.599 2.16666 22.6417C2.49141 22.9733 2.85518 23.2643 3.24999 23.5084L2.16666 23.8334ZM6.71666 10.725C6.17499 9.96668 5.95833 9.42502 6.06666 9.20835V9.10002L7.36666 9.53335C7.16173 9.93686 6.94496 10.3343 6.71666 10.725ZM11.8083 12.8917C13.2167 13.975 14.1917 15.1667 14.95 16.1417L14.1917 16.4667L13 16.9C12.0092 16.2479 11.0678 15.5237 10.1833 14.7334L7.25833 11.4834H7.36666L8.12499 9.96668C9.20833 10.6167 10.4 11.4833 11.8083 12.7834V12.8917ZM16.1417 15.7083C14.1352 12.8847 11.55 10.521 8.55833 8.77502C10.075 4.76668 9.20833 2.92502 8.55833 2.27502C8.01666 1.40835 7.04166 1.08335 6.17499 1.19168C4.87499 1.62502 4.44166 2.60002 4.54999 3.35835C4.54999 4.33335 5.19999 4.87502 6.06666 4.87502C6.18159 4.87502 6.29181 4.82936 6.37307 4.7481C6.45434 4.66683 6.49999 4.55661 6.49999 4.44168C6.49999 4.32676 6.45434 4.21654 6.37307 4.13527C6.29181 4.054 6.18159 4.00835 6.06666 4.00835C5.63333 4.00835 5.41666 3.68335 5.41666 3.35835C5.41666 2.92502 5.63333 2.27502 6.39166 2.16668C6.93333 1.95002 7.47499 2.16668 7.90833 2.70835C8.34166 3.14168 9.09999 4.76668 7.90833 8.34168C6.28333 7.58335 5.19999 7.58335 4.65833 8.12502C4.60896 8.18981 4.57221 8.26331 4.54999 8.34168C4.50062 8.40648 4.46387 8.47998 4.44166 8.55835L0.324992 23.075C0.246519 23.3809 0.253114 23.7025 0.344063 24.0049C0.435013 24.3073 0.606861 24.5792 0.841047 24.791C1.07523 25.0029 1.36286 25.1468 1.67285 25.2071C1.98285 25.2675 2.30344 25.2419 2.59999 25.1334L16.6833 19.7167C16.7617 19.6945 16.8352 19.6577 16.9 19.6084C16.9885 19.5544 17.0627 19.4801 17.1167 19.3917C17.6583 18.85 17.4417 17.875 16.6833 16.4667C18.85 15.7083 20.475 15.3833 21.3417 16.1417C21.775 16.575 21.8833 17.0084 21.775 17.4417C21.6667 17.875 21.2333 18.2 20.6917 18.3083C20.5833 18.3083 20.15 18.4167 19.825 18.0917C19.7497 18.0685 19.6695 18.0663 19.5931 18.0853C19.5166 18.1042 19.4468 18.1437 19.3911 18.1994C19.3354 18.2551 19.2959 18.325 19.2769 18.4014C19.2579 18.4779 19.2601 18.5581 19.2833 18.6334C19.6083 19.0667 20.0417 19.2833 20.475 19.2833H21.0167C21.775 18.9583 22.425 18.4167 22.6417 17.6583C22.8583 16.9 22.6417 16.1417 21.9917 15.4917C20.6917 14.4084 18.7417 14.7333 16.1417 15.7083ZM13.2167 1.62502C13.6045 1.62502 13.9765 1.7791 14.2508 2.05337C14.5251 2.32764 14.6792 2.69964 14.6792 3.08752C14.6792 3.4754 14.5251 3.84739 14.2508 4.12166C13.9765 4.39593 13.6045 4.55002 13.2167 4.55002C12.8431 4.55002 12.4849 4.40164 12.2208 4.13752C11.9567 3.87341 11.8083 3.5152 11.8083 3.14168C11.8083 2.76817 11.9567 2.40995 12.2208 2.14584C12.4849 1.88173 12.8431 1.73335 13.2167 1.73335M13.2167 5.41668C13.82 5.41668 14.3987 5.177 14.8253 4.75035C15.252 4.32371 15.4917 3.74505 15.4917 3.14168C15.4911 2.68722 15.3545 2.24334 15.0994 1.86723C14.8443 1.49113 14.4824 1.20004 14.0604 1.0315C13.6383 0.862958 13.1755 0.824681 12.7315 0.921604C12.2875 1.01853 11.8827 1.24621 11.5692 1.5753C11.2558 1.90439 11.0482 2.31981 10.973 2.76801C10.8978 3.21621 10.9586 3.67664 11.1475 4.08998C11.3365 4.50331 11.6448 4.85059 12.0329 5.08705C12.421 5.32351 12.8711 5.43832 13.325 5.41668"/>
</mask>
<path fill-rule="evenodd" clip-rule="evenodd" d="M16.0333 18.2C15.7083 18.3083 14.95 18.2 13.8667 17.4417L14.5167 17.225L15.3833 16.9L16.0333 18.2ZM2.16666 23.8334C2.0914 23.8563 2.0113 23.8584 1.93496 23.8393C1.85862 23.8202 1.78891 23.7807 1.73333 23.725C1.67762 23.6694 1.63811 23.5997 1.61902 23.5234C1.59994 23.447 1.602 23.3669 1.62499 23.2917L5.30833 10.8333C6.38588 12.6547 7.73788 14.2991 9.31666 15.7083C10.8229 17.1511 12.5398 18.3565 14.4083 19.2833L12.4583 20.0417H12.2417C11.9167 20.15 9.96666 19.5 7.58333 17.3333C7.08643 16.8922 6.61616 16.4219 6.17499 15.925C6.09814 15.8635 6.00261 15.83 5.90416 15.83C5.8057 15.83 5.71018 15.8635 5.63333 15.925C5.57179 16.0019 5.53826 16.0974 5.53826 16.1958C5.53826 16.2943 5.57179 16.3898 5.63333 16.4667C5.95833 17.0083 6.49999 17.55 7.04166 17.9834C8.34166 19.175 9.74999 20.15 10.8333 20.5834L8.34166 21.5583H8.23333C8.01666 21.5583 6.82499 21.2333 5.30833 19.825C4.92235 19.4897 4.56035 19.1277 4.22499 18.7417C4.18533 18.6903 4.13464 18.6486 4.07668 18.6194C4.01871 18.5903 3.95495 18.5746 3.89008 18.5734C3.82522 18.5722 3.76092 18.5855 3.70191 18.6125C3.64291 18.6395 3.59072 18.6794 3.54919 18.7292C3.50766 18.779 3.47785 18.8376 3.46195 18.9005C3.44606 18.9634 3.4445 19.029 3.45737 19.0926C3.47025 19.1562 3.49723 19.2161 3.53634 19.2678C3.57545 19.3196 3.62568 19.3619 3.68333 19.3917C4.59479 20.4827 5.69579 21.4002 6.93333 22.1L4.33333 23.075C4.11666 23.075 3.68333 22.8584 3.14166 22.3167L2.81666 21.9917C2.77398 21.949 2.72331 21.9151 2.66755 21.8921C2.61178 21.869 2.55202 21.8571 2.49166 21.8571C2.4313 21.8571 2.37153 21.869 2.31577 21.8921C2.26001 21.9151 2.20934 21.949 2.16666 21.9917C2.12398 22.0344 2.09012 22.085 2.06703 22.1408C2.04393 22.1966 2.03204 22.2563 2.03204 22.3167C2.03204 22.377 2.04393 22.4368 2.06703 22.4926C2.09012 22.5483 2.12398 22.599 2.16666 22.6417C2.49141 22.9733 2.85518 23.2643 3.24999 23.5084L2.16666 23.8334ZM6.71666 10.725C6.17499 9.96668 5.95833 9.42502 6.06666 9.20835V9.10002L7.36666 9.53335C7.16173 9.93686 6.94496 10.3343 6.71666 10.725ZM11.8083 12.8917C13.2167 13.975 14.1917 15.1667 14.95 16.1417L14.1917 16.4667L13 16.9C12.0092 16.2479 11.0678 15.5237 10.1833 14.7334L7.25833 11.4834H7.36666L8.12499 9.96668C9.20833 10.6167 10.4 11.4833 11.8083 12.7834V12.8917ZM16.1417 15.7083C14.1352 12.8847 11.55 10.521 8.55833 8.77502C10.075 4.76668 9.20833 2.92502 8.55833 2.27502C8.01666 1.40835 7.04166 1.08335 6.17499 1.19168C4.87499 1.62502 4.44166 2.60002 4.54999 3.35835C4.54999 4.33335 5.19999 4.87502 6.06666 4.87502C6.18159 4.87502 6.29181 4.82936 6.37307 4.7481C6.45434 4.66683 6.49999 4.55661 6.49999 4.44168C6.49999 4.32676 6.45434 4.21654 6.37307 4.13527C6.29181 4.054 6.18159 4.00835 6.06666 4.00835C5.63333 4.00835 5.41666 3.68335 5.41666 3.35835C5.41666 2.92502 5.63333 2.27502 6.39166 2.16668C6.93333 1.95002 7.47499 2.16668 7.90833 2.70835C8.34166 3.14168 9.09999 4.76668 7.90833 8.34168C6.28333 7.58335 5.19999 7.58335 4.65833 8.12502C4.60896 8.18981 4.57221 8.26331 4.54999 8.34168C4.50062 8.40648 4.46387 8.47998 4.44166 8.55835L0.324992 23.075C0.246519 23.3809 0.253114 23.7025 0.344063 24.0049C0.435013 24.3073 0.606861 24.5792 0.841047 24.791C1.07523 25.0029 1.36286 25.1468 1.67285 25.2071C1.98285 25.2675 2.30344 25.2419 2.59999 25.1334L16.6833 19.7167C16.7617 19.6945 16.8352 19.6577 16.9 19.6084C16.9885 19.5544 17.0627 19.4801 17.1167 19.3917C17.6583 18.85 17.4417 17.875 16.6833 16.4667C18.85 15.7083 20.475 15.3833 21.3417 16.1417C21.775 16.575 21.8833 17.0084 21.775 17.4417C21.6667 17.875 21.2333 18.2 20.6917 18.3083C20.5833 18.3083 20.15 18.4167 19.825 18.0917C19.7497 18.0685 19.6695 18.0663 19.5931 18.0853C19.5166 18.1042 19.4468 18.1437 19.3911 18.1994C19.3354 18.2551 19.2959 18.325 19.2769 18.4014C19.2579 18.4779 19.2601 18.5581 19.2833 18.6334C19.6083 19.0667 20.0417 19.2833 20.475 19.2833H21.0167C21.775 18.9583 22.425 18.4167 22.6417 17.6583C22.8583 16.9 22.6417 16.1417 21.9917 15.4917C20.6917 14.4084 18.7417 14.7333 16.1417 15.7083ZM13.2167 1.62502C13.6045 1.62502 13.9765 1.7791 14.2508 2.05337C14.5251 2.32764 14.6792 2.69964 14.6792 3.08752C14.6792 3.4754 14.5251 3.84739 14.2508 4.12166C13.9765 4.39593 13.6045 4.55002 13.2167 4.55002C12.8431 4.55002 12.4849 4.40164 12.2208 4.13752C11.9567 3.87341 11.8083 3.5152 11.8083 3.14168C11.8083 2.76817 11.9567 2.40995 12.2208 2.14584C12.4849 1.88173 12.8431 1.73335 13.2167 1.73335M13.2167 5.41668C13.82 5.41668 14.3987 5.177 14.8253 4.75035C15.252 4.32371 15.4917 3.74505 15.4917 3.14168C15.4911 2.68722 15.3545 2.24334 15.0994 1.86723C14.8443 1.49113 14.4824 1.20004 14.0604 1.0315C13.6383 0.862958 13.1755 0.824681 12.7315 0.921604C12.2875 1.01853 11.8827 1.24621 11.5692 1.5753C11.2558 1.90439 11.0482 2.31981 10.973 2.76801C10.8978 3.21621 10.9586 3.67664 11.1475 4.08998C11.3365 4.50331 11.6448 4.85059 12.0329 5.08705C12.421 5.32351 12.8711 5.43832 13.325 5.41668" fill="#262626"/>
<path d="M16.0333 18.2L16.0649 18.2949L16.1743 18.2584L16.1228 18.1553L16.0333 18.2ZM13.8667 17.4417L13.835 17.3468L13.6465 17.4097L13.8093 17.5236L13.8667 17.4417ZM14.5167 17.225L14.5483 17.3199L14.5518 17.3186L14.5167 17.225ZM15.3833 16.9L15.4728 16.8553L15.4325 16.7748L15.3482 16.8064L15.3833 16.9ZM2.16666 23.8334L2.13792 23.7376L2.13744 23.7377L2.16666 23.8334ZM1.73333 23.725L1.80411 23.6544L1.80396 23.6542L1.73333 23.725ZM1.62499 23.2917L1.72063 23.3209L1.72089 23.32L1.62499 23.2917ZM5.30833 10.8333L5.39439 10.7824L5.27751 10.5849L5.21243 10.805L5.30833 10.8333ZM9.31666 15.7083L9.38587 15.6361L9.38325 15.6337L9.31666 15.7083ZM14.4083 19.2833L14.4446 19.3765L14.6557 19.2944L14.4528 19.1938L14.4083 19.2833ZM12.4583 20.0417V20.1417H12.4771L12.4946 20.1349L12.4583 20.0417ZM12.2417 20.0417V19.9417H12.2254L12.21 19.9468L12.2417 20.0417ZM7.58333 17.3333L7.6506 17.2594L7.64972 17.2586L7.58333 17.3333ZM6.17499 15.925L6.24977 15.8586L6.24413 15.8523L6.23749 15.847L6.17499 15.925ZM5.63333 15.925L5.57083 15.847L5.56218 15.8539L5.55526 15.8625L5.63333 15.925ZM5.53826 16.1958H5.63826H5.53826ZM5.63333 16.4667L5.71986 16.4148L5.71139 16.4042L5.63333 16.4667ZM7.04166 17.9834L7.10938 17.9095L7.10413 17.9053L7.04166 17.9834ZM10.8333 20.5834L10.8698 20.6765L11.1051 20.5844L10.8705 20.4905L10.8333 20.5834ZM8.34166 21.5583V21.6583H8.36053L8.3781 21.6515L8.34166 21.5583ZM5.30833 19.825L5.37641 19.7517L5.37391 19.7495L5.30833 19.825ZM4.22499 18.7417L4.14573 18.8029L4.14951 18.8073L4.22499 18.7417ZM3.68333 19.3917L3.76007 19.3276L3.74713 19.3121L3.72919 19.3028L3.68333 19.3917ZM6.93333 22.1L6.96844 22.1936L7.16904 22.1184L6.98255 22.013L6.93333 22.1ZM4.33333 23.075V23.175H4.35146L4.36844 23.1686L4.33333 23.075ZM3.14166 22.3167L3.07095 22.3874L3.07095 22.3874L3.14166 22.3167ZM2.81666 21.9917L2.88737 21.921L2.88737 21.921L2.81666 21.9917ZM2.49166 21.8571L2.49166 21.7571L2.49166 21.8571ZM2.03204 22.3167H1.93204H2.03204ZM2.16666 22.6417L2.23811 22.5717L2.23737 22.571L2.16666 22.6417ZM3.24999 23.5084L3.27873 23.6041L3.49175 23.5402L3.30257 23.4233L3.24999 23.5084ZM6.71666 10.725L6.63529 10.7831L6.72507 10.9088L6.803 10.7755L6.71666 10.725ZM6.06666 9.20835L6.1561 9.25307L6.16666 9.23196V9.20835H6.06666ZM6.06666 9.10002L6.09828 9.00515L5.96666 8.96127V9.10002H6.06666ZM7.36666 9.53335L7.45582 9.57863L7.50836 9.47518L7.39828 9.43848L7.36666 9.53335ZM11.8083 12.8917H11.7083V12.9409L11.7474 12.9709L11.8083 12.8917ZM14.95 16.1417L14.9894 16.2336L15.1085 16.1826L15.0289 16.0803L14.95 16.1417ZM14.1917 16.4667L14.2259 16.5608L14.2311 16.5586L14.1917 16.4667ZM13 16.9L12.945 16.9835L12.987 17.0112L13.0342 16.994L13 16.9ZM10.1833 14.7334L10.1086 14.8006L10.1167 14.8079L10.1833 14.7334ZM7.25833 11.4834V11.3834H7.03379L7.184 11.5502L7.25833 11.4834ZM7.36666 11.4834V11.5834H7.42846L7.4561 11.5281L7.36666 11.4834ZM8.12499 9.96668L8.17644 9.88093L8.08384 9.82537L8.03555 9.92196L8.12499 9.96668ZM11.8083 12.7834H11.9083V12.7396L11.8762 12.7099L11.8083 12.7834ZM16.1417 15.7083L16.0601 15.7663L16.1047 15.829L16.1768 15.802L16.1417 15.7083ZM8.55833 8.77502L8.4648 8.73963L8.43486 8.81875L8.50792 8.86138L8.55833 8.77502ZM8.55833 2.27502L8.47353 2.32802L8.47956 2.33767L8.48762 2.34573L8.55833 2.27502ZM6.17499 1.19168L6.16259 1.09245L6.15276 1.09368L6.14337 1.09681L6.17499 1.19168ZM4.54999 3.35835H4.64999V3.35124L4.64899 3.34421L4.54999 3.35835ZM6.49999 4.44168L6.59999 4.44168L6.49999 4.44168ZM6.06666 4.00835V4.10835V4.00835ZM6.39166 2.16668L6.4058 2.26568L6.41767 2.26398L6.4288 2.25953L6.39166 2.16668ZM7.90833 2.70835L7.82976 2.7712L7.83762 2.77906L7.90833 2.70835ZM7.90833 8.34168L7.86604 8.4323L7.96771 8.47975L8.00319 8.37331L7.90833 8.34168ZM4.65833 8.12502L4.58697 8.05366L4.57878 8.06441L4.65833 8.12502ZM4.54999 8.34168L4.62954 8.40229L4.64103 8.3872L4.6462 8.36895L4.54999 8.34168ZM4.44166 8.55835L4.53787 8.58563L4.53787 8.58562L4.44166 8.55835ZM0.324992 23.075L0.228755 23.0477L0.228129 23.0502L0.324992 23.075ZM2.59999 25.1334L2.63438 25.2273L2.63589 25.2267L2.59999 25.1334ZM16.6833 19.7167L16.6559 19.6201L16.6474 19.6233L16.6833 19.7167ZM16.9 19.6084L16.8477 19.5225L16.8394 19.5288L16.9 19.6084ZM17.1167 19.3917L17.0459 19.321L17.0375 19.3294L17.0313 19.3396L17.1167 19.3917ZM16.6833 16.4667L16.6503 16.3723L16.5398 16.411L16.5953 16.5141L16.6833 16.4667ZM21.3417 16.1417L21.4125 16.0708L21.4075 16.0664L21.3417 16.1417ZM20.6917 18.3083V18.4083H20.7016L20.7113 18.4064L20.6917 18.3083ZM19.825 18.0917L19.8957 18.021L19.8781 18.0034L19.8544 17.9961L19.825 18.0917ZM19.2833 18.6334L19.1878 18.6628L19.1929 18.6794L19.2033 18.6934L19.2833 18.6334ZM21.0167 19.2833V19.3833H21.0372L21.0561 19.3753L21.0167 19.2833ZM21.9917 15.4917L22.0627 15.4207L22.0557 15.4149L21.9917 15.4917ZM14.6792 3.08752L14.7792 3.08752L14.6792 3.08752ZM11.8083 3.14168L11.9083 3.14168L11.8083 3.14168ZM15.4917 3.14168L15.5917 3.14168L15.5917 3.14157L15.4917 3.14168ZM16.0017 18.1051C15.8666 18.1502 15.6188 18.1554 15.2628 18.05C14.9096 17.9453 14.4588 17.7341 13.924 17.3598L13.8093 17.5236C14.3578 17.9076 14.8279 18.1297 15.206 18.2417C15.5812 18.3529 15.875 18.3582 16.0649 18.2949L16.0017 18.1051ZM13.8983 17.5366L14.5483 17.3199L14.485 17.1301L13.835 17.3468L13.8983 17.5366ZM14.5518 17.3186L15.4184 16.9937L15.3482 16.8064L14.4815 17.1314L14.5518 17.3186ZM15.2939 16.9447L15.9439 18.2447L16.1228 18.1553L15.4728 16.8553L15.2939 16.9447ZM2.13744 23.7377C2.07955 23.7554 2.01794 23.757 1.95921 23.7423L1.91071 23.9363C2.00467 23.9598 2.10325 23.9573 2.19587 23.929L2.13744 23.7377ZM1.95921 23.7423C1.90049 23.7276 1.84687 23.6972 1.80411 23.6544L1.66254 23.7957C1.73096 23.8642 1.81675 23.9128 1.91071 23.9363L1.95921 23.7423ZM1.80396 23.6542C1.76112 23.6115 1.73072 23.5579 1.71604 23.4991L1.52201 23.5476C1.5455 23.6416 1.59413 23.7274 1.66269 23.7958L1.80396 23.6542ZM1.71604 23.4991C1.70136 23.4404 1.70294 23.3788 1.72063 23.3209L1.52936 23.2625C1.50106 23.3551 1.49852 23.4537 1.52201 23.5476L1.71604 23.4991ZM1.72089 23.32L5.40422 10.8617L5.21243 10.805L1.5291 23.2633L1.72089 23.32ZM5.22226 10.8843C6.30505 12.7145 7.66362 14.3668 9.25007 15.783L9.38325 15.6337C7.81215 14.2313 6.46671 12.595 5.39439 10.7824L5.22226 10.8843ZM9.24749 15.7806C10.7611 17.2303 12.4863 18.4416 14.3639 19.3729L14.4528 19.1938C12.5933 18.2715 10.8848 17.0719 9.38583 15.6361L9.24749 15.7806ZM14.3721 19.1901L12.4221 19.9485L12.4946 20.1349L14.4446 19.3765L14.3721 19.1901ZM12.4583 19.9417H12.2417V20.1417H12.4583V19.9417ZM12.21 19.9468C12.192 19.9528 12.1449 19.9574 12.0589 19.9461C11.9767 19.9354 11.87 19.9119 11.7405 19.8731C11.4817 19.7956 11.1387 19.6593 10.7297 19.4515C9.91206 19.036 8.83604 18.337 7.65059 17.2594L7.51606 17.4073C8.71394 18.4963 9.8046 19.2057 10.6391 19.6298C11.0561 19.8417 11.4104 19.9831 11.6832 20.0647C11.8194 20.1055 11.937 20.1319 12.033 20.1444C12.1251 20.1565 12.2101 20.1576 12.2733 20.1366L12.21 19.9468ZM7.64972 17.2586C7.15578 16.82 6.68831 16.3526 6.24977 15.8586L6.10021 15.9914C6.54401 16.4913 7.01708 16.9643 7.51693 17.4081L7.64972 17.2586ZM6.23749 15.847C6.1429 15.7712 6.02533 15.73 5.90416 15.73V15.93C5.97989 15.93 6.05337 15.9557 6.11249 16.0031L6.23749 15.847ZM5.90416 15.73C5.78298 15.73 5.66542 15.7712 5.57083 15.847L5.69583 16.0031C5.75495 15.9557 5.82842 15.93 5.90416 15.93V15.73ZM5.55526 15.8625C5.47953 15.9571 5.43826 16.0747 5.43826 16.1958H5.63826C5.63826 16.1201 5.66405 16.0466 5.71139 15.9875L5.55526 15.8625ZM5.43826 16.1958C5.43826 16.317 5.47953 16.4346 5.55526 16.5292L5.71139 16.4042C5.66405 16.3451 5.63826 16.2716 5.63826 16.1958H5.43826ZM5.54758 16.5181C5.88118 17.0741 6.43296 17.6245 6.97919 18.0614L7.10413 17.9053C6.56702 17.4756 6.03548 16.9426 5.71907 16.4152L5.54758 16.5181ZM6.97409 18.0571C8.27843 19.2527 9.69705 20.2365 10.7962 20.6762L10.8705 20.4905C9.80293 20.0635 8.40489 19.0973 7.10923 17.9096L6.97409 18.0571ZM10.7969 20.4902L8.30522 21.4652L8.3781 21.6515L10.8698 20.6765L10.7969 20.4902ZM8.34166 21.4583H8.23333V21.6583H8.34166V21.4583ZM8.23333 21.4583C8.19511 21.4583 8.09205 21.442 7.92833 21.3902C7.76786 21.3395 7.55605 21.2569 7.30305 21.1304C6.7972 20.8774 6.12793 20.4496 5.37637 19.7517L5.24028 19.8983C6.00539 20.6088 6.69029 21.0476 7.2136 21.3093C7.47518 21.44 7.69671 21.5267 7.86801 21.5809C8.03606 21.6341 8.16321 21.6583 8.23333 21.6583V21.4583ZM5.37391 19.7495C4.99146 19.4172 4.63277 19.0585 4.30048 18.6761L4.14951 18.8073C4.48792 19.1968 4.85323 19.5621 5.24274 19.9005L5.37391 19.7495ZM4.30413 18.6805C4.25531 18.6174 4.19293 18.5659 4.12159 18.5301L4.03177 18.7088C4.07636 18.7312 4.11535 18.7633 4.14586 18.8028L4.30413 18.6805ZM4.12159 18.5301C4.05024 18.4942 3.97176 18.4749 3.89193 18.4734L3.88824 18.6733C3.93813 18.6743 3.98718 18.6864 4.03177 18.7088L4.12159 18.5301ZM3.89193 18.4734C3.8121 18.4719 3.73295 18.4884 3.66034 18.5216L3.74349 18.7035C3.78888 18.6827 3.83834 18.6724 3.88824 18.6733L3.89193 18.4734ZM3.66034 18.5216C3.58772 18.5548 3.52348 18.6039 3.47237 18.6652L3.62601 18.7932C3.65796 18.7549 3.69811 18.7242 3.74349 18.7035L3.66034 18.5216ZM3.47237 18.6652C3.42125 18.7265 3.38456 18.7986 3.365 18.876L3.55891 18.925C3.57113 18.8766 3.59406 18.8316 3.62601 18.7932L3.47237 18.6652ZM3.365 18.876C3.34544 18.9534 3.34351 19.0342 3.35936 19.1125L3.55538 19.0728C3.54548 19.0239 3.54668 18.9734 3.55891 18.925L3.365 18.876ZM3.35936 19.1125C3.3752 19.1907 3.40842 19.2644 3.45655 19.3281L3.61613 19.2076C3.58604 19.1677 3.56529 19.1217 3.55538 19.0728L3.35936 19.1125ZM3.45655 19.3281C3.50469 19.3918 3.56651 19.4439 3.63746 19.4805L3.72919 19.3028C3.68485 19.2799 3.64621 19.2474 3.61613 19.2076L3.45655 19.3281ZM3.60658 19.4558C4.52576 20.5561 5.63609 21.4814 6.8841 22.1871L6.98255 22.013C5.75549 21.3191 4.66382 20.4094 3.76007 19.3276L3.60658 19.4558ZM6.89821 22.0064L4.29821 22.9814L4.36844 23.1686L6.96844 22.1936L6.89821 22.0064ZM4.33333 22.975C4.25226 22.975 4.10877 22.932 3.91082 22.8132C3.71618 22.6964 3.47878 22.5124 3.21237 22.246L3.07095 22.3874C3.34621 22.6627 3.59631 22.8578 3.80792 22.9847C4.01621 23.1097 4.19772 23.175 4.33333 23.175V22.975ZM3.21237 22.246L2.88737 21.921L2.74595 22.0624L3.07095 22.3874L3.21237 22.246ZM2.88737 21.921C2.8354 21.869 2.77371 21.8278 2.70582 21.7997L2.62928 21.9844C2.67291 22.0025 2.71256 22.029 2.74595 22.0624L2.88737 21.921ZM2.70582 21.7997C2.63792 21.7715 2.56515 21.7571 2.49166 21.7571L2.49166 21.9571C2.53889 21.9571 2.58565 21.9664 2.62928 21.9844L2.70582 21.7997ZM2.49166 21.7571C2.41817 21.7571 2.3454 21.7715 2.2775 21.7997L2.35404 21.9844C2.39767 21.9664 2.44443 21.9571 2.49166 21.9571L2.49166 21.7571ZM2.2775 21.7997C2.20961 21.8278 2.14791 21.869 2.09595 21.921L2.23737 22.0624C2.27076 22.029 2.31041 22.0025 2.35404 21.9844L2.2775 21.7997ZM2.09595 21.921C2.04398 21.9729 2.00276 22.0346 1.97464 22.1025L2.15941 22.1791C2.17749 22.1354 2.20398 22.0958 2.23737 22.0624L2.09595 21.921ZM1.97464 22.1025C1.94651 22.1704 1.93204 22.2432 1.93204 22.3167H2.13204C2.13204 22.2695 2.14134 22.2227 2.15941 22.1791L1.97464 22.1025ZM1.93204 22.3167C1.93204 22.3902 1.94651 22.4629 1.97464 22.5308L2.15941 22.4543C2.14134 22.4107 2.13204 22.3639 2.13204 22.3167H1.93204ZM1.97464 22.5308C2.00276 22.5987 2.04398 22.6604 2.09595 22.7124L2.23737 22.571C2.20398 22.5376 2.17749 22.4979 2.15941 22.4543L1.97464 22.5308ZM2.09521 22.7117C2.42562 23.049 2.79572 23.3451 3.19741 23.5934L3.30257 23.4233C2.91463 23.1835 2.5572 22.8976 2.23811 22.5717L2.09521 22.7117ZM3.22126 23.4126L2.13792 23.7376L2.19539 23.9291L3.27873 23.6041L3.22126 23.4126ZM6.79803 10.6669C6.5295 10.2909 6.34445 9.97265 6.24007 9.72475C6.18784 9.6007 6.15721 9.49754 6.14531 9.4157C6.13318 9.33233 6.14196 9.28135 6.1561 9.25307L5.97722 9.16363C5.93719 9.24368 5.93243 9.34166 5.94739 9.44449C5.96257 9.54885 5.99965 9.66913 6.05575 9.80236C6.16803 10.069 6.36215 10.4008 6.63529 10.7831L6.79803 10.6669ZM6.16666 9.20835V9.10002H5.96666V9.20835H6.16666ZM6.03504 9.19488L7.33504 9.62822L7.39828 9.43848L6.09828 9.00515L6.03504 9.19488ZM7.2775 9.48807C7.07345 9.88983 6.85763 10.2855 6.63032 10.6746L6.803 10.7755C7.0323 10.383 7.25 9.98389 7.45582 9.57863L7.2775 9.48807ZM11.7474 12.9709C13.1453 14.0463 14.114 15.2298 14.8711 16.2031L15.0289 16.0803C14.2693 15.1036 13.288 13.9037 11.8693 12.8124L11.7474 12.9709ZM14.9106 16.0498L14.1523 16.3748L14.2311 16.5586L14.9894 16.2336L14.9106 16.0498ZM14.1575 16.3727L12.9658 16.806L13.0342 16.994L14.2258 16.5607L14.1575 16.3727ZM13.055 16.8165C12.0683 16.1671 11.1307 15.4459 10.25 14.6588L10.1167 14.8079C11.0048 15.6016 11.9501 16.3288 12.945 16.9835L13.055 16.8165ZM10.2577 14.6665L7.33266 11.4165L7.184 11.5502L10.109 14.8002L10.2577 14.6665ZM7.25833 11.5834H7.36666V11.3834H7.25833V11.5834ZM7.4561 11.5281L8.21444 10.0114L8.03555 9.92196L7.27722 11.4386L7.4561 11.5281ZM8.07354 10.0524C9.15055 10.6986 10.3368 11.5611 11.7405 12.8568L11.8762 12.7099C10.4632 11.4056 9.26611 10.5347 8.17644 9.88093L8.07354 10.0524ZM11.7083 12.7834V12.8917H11.9083V12.7834H11.7083ZM16.2232 15.6504C14.2085 12.8151 11.6127 10.4418 8.60873 8.68865L8.50792 8.86138C11.4874 10.6002 14.062 12.9542 16.0601 15.7663L16.2232 15.6504ZM8.65185 8.81041C10.1759 4.78269 9.31796 2.89323 8.62904 2.20431L8.48762 2.34573C9.0987 2.95681 9.97413 4.75068 8.4648 8.73963L8.65185 8.81041ZM8.64313 2.22202C8.07704 1.31628 7.06027 0.980244 6.16259 1.09245L6.1874 1.29091C7.02304 1.18645 7.95628 1.50042 8.47353 2.32802L8.64313 2.22202ZM6.14337 1.09681C4.80194 1.54396 4.33519 2.56184 4.451 3.37249L4.64899 3.34421C4.54813 2.63819 4.94804 1.70608 6.20662 1.28655L6.14337 1.09681ZM4.44999 3.35835C4.44999 3.86905 4.62088 4.27592 4.91445 4.55481C5.20719 4.83291 5.61268 4.97502 6.06666 4.97502V4.77502C5.65397 4.77502 5.30112 4.64629 5.0522 4.40981C4.8041 4.17411 4.64999 3.82265 4.64999 3.35835H4.44999ZM6.06666 4.97502C6.20811 4.97502 6.34376 4.91883 6.44378 4.81881L6.30236 4.67738C6.23985 4.7399 6.15506 4.77502 6.06666 4.77502V4.97502ZM6.44378 4.81881C6.5438 4.71879 6.59999 4.58313 6.59999 4.44168L6.39999 4.44168C6.39999 4.53009 6.36487 4.61487 6.30236 4.67738L6.44378 4.81881ZM6.59999 4.44168C6.59999 4.30023 6.5438 4.16458 6.44378 4.06456L6.30236 4.20598C6.36487 4.26849 6.39999 4.35328 6.39999 4.44168L6.59999 4.44168ZM6.44378 4.06456C6.34376 3.96454 6.20811 3.90835 6.06666 3.90835V4.10835C6.15506 4.10835 6.23985 4.14347 6.30236 4.20598L6.44378 4.06456ZM6.06666 3.90835C5.87713 3.90835 5.74233 3.83827 5.6539 3.73879C5.56384 3.63747 5.51666 3.49954 5.51666 3.35835H5.31666C5.31666 3.54216 5.37782 3.72923 5.50442 3.87166C5.63266 4.01593 5.82286 4.10835 6.06666 4.10835V3.90835ZM5.51666 3.35835C5.51666 3.15619 5.56758 2.9054 5.70374 2.69497C5.83775 2.48786 6.05664 2.31556 6.4058 2.26568L6.37752 2.06769C5.96835 2.12614 5.69974 2.333 5.53583 2.58632C5.37408 2.83629 5.31666 3.12718 5.31666 3.35835H5.51666ZM6.4288 2.25953C6.91584 2.06471 7.41394 2.25044 7.83024 2.77082L7.98641 2.64588C7.53605 2.08293 6.95081 1.83532 6.35452 2.07384L6.4288 2.25953ZM7.83762 2.77906C8.23151 3.17295 9.00011 4.75009 7.81346 8.31006L8.00319 8.37331C9.19987 4.78327 8.45181 3.11041 7.97904 2.63764L7.83762 2.77906ZM7.95061 8.25106C7.13167 7.86889 6.44141 7.67394 5.88207 7.64597C5.32168 7.61795 4.88429 7.75763 4.58762 8.05431L4.72904 8.19573C4.97403 7.95073 5.34914 7.81958 5.87208 7.84572C6.39608 7.87192 7.05998 8.05614 7.86604 8.4323L7.95061 8.25106ZM4.57878 8.06441C4.52182 8.13918 4.47942 8.22398 4.45378 8.31441L4.6462 8.36895C4.665 8.30264 4.6961 8.24045 4.73787 8.18562L4.57878 8.06441ZM4.47045 8.28108C4.41349 8.35584 4.37108 8.44065 4.34545 8.53108L4.53787 8.58562C4.55667 8.51931 4.58776 8.45711 4.62954 8.40229L4.47045 8.28108ZM4.34545 8.53107L0.228786 23.0477L0.421199 23.1023L4.53787 8.58563L4.34545 8.53107ZM0.228129 23.0502C0.145128 23.3737 0.152103 23.7138 0.2483 24.0337L0.439827 23.9761C0.354124 23.6911 0.34791 23.3881 0.421856 23.0999L0.228129 23.0502ZM0.2483 24.0337C0.344496 24.3536 0.526259 24.6411 0.773955 24.8652L0.908138 24.7169C0.687463 24.5172 0.525529 24.2611 0.439827 23.9761L0.2483 24.0337ZM0.773955 24.8652C1.02165 25.0893 1.32587 25.2415 1.65375 25.3053L1.69196 25.109C1.39984 25.0521 1.12881 24.9165 0.908138 24.7169L0.773955 24.8652ZM1.65375 25.3053C1.98163 25.3691 2.32072 25.3421 2.63438 25.2273L2.56561 25.0394C2.28616 25.1418 1.98407 25.1658 1.69196 25.109L1.65375 25.3053ZM2.63589 25.2267L16.7192 19.81L16.6474 19.6233L2.56409 25.04L2.63589 25.2267ZM16.7106 19.8129C16.801 19.7873 16.8858 19.7449 16.9606 19.6879L16.8394 19.5288C16.7846 19.5706 16.7224 19.6017 16.6561 19.6205L16.7106 19.8129ZM16.952 19.6937C17.0541 19.6315 17.1398 19.5458 17.202 19.4437L17.0313 19.3396C16.9856 19.4145 16.9228 19.4773 16.8479 19.523L16.952 19.6937ZM17.1874 19.4624C17.489 19.1607 17.5705 18.744 17.4861 18.2377C17.4021 17.7338 17.1521 17.1264 16.7714 16.4193L16.5953 16.5141C16.9728 17.2153 17.2103 17.7995 17.2889 18.2706C17.367 18.7394 17.286 19.081 17.0459 19.321L17.1874 19.4624ZM16.7164 16.5611C17.7983 16.1824 18.7371 15.9149 19.5103 15.8349C20.2845 15.7548 20.8732 15.8647 21.2758 16.2169L21.4075 16.0664C20.9434 15.6603 20.2863 15.5536 19.4897 15.636C18.6921 15.7185 17.735 15.9926 16.6503 16.3723L16.7164 16.5611ZM21.271 16.2124C21.6831 16.6245 21.7766 17.0229 21.678 17.4174L21.872 17.4659C21.99 16.9938 21.8669 16.5255 21.4124 16.071L21.271 16.2124ZM21.678 17.4174C21.5824 17.7998 21.1917 18.1064 20.672 18.2103L20.7113 18.4064C21.2749 18.2937 21.7509 17.9503 21.872 17.4659L21.678 17.4174ZM20.6917 18.2083C20.5493 18.2083 20.1826 18.3078 19.8957 18.021L19.7543 18.1624C20.1174 18.5255 20.6173 18.4083 20.6917 18.4083V18.2083ZM19.8544 17.9961C19.7618 17.9676 19.6631 17.9648 19.569 17.9882L19.6172 18.1823C19.676 18.1677 19.7376 18.1694 19.7956 18.1873L19.8544 17.9961ZM19.569 17.9882C19.4749 18.0116 19.3889 18.0601 19.3203 18.1287L19.4618 18.2701C19.5046 18.2273 19.5583 18.1969 19.6172 18.1823L19.569 17.9882ZM19.3203 18.1287C19.2518 18.1973 19.2032 18.2832 19.1799 18.3773L19.374 18.4255C19.3886 18.3667 19.4189 18.313 19.4618 18.2701L19.3203 18.1287ZM19.1799 18.3773C19.1565 18.4714 19.1592 18.5701 19.1878 18.6628L19.3789 18.6039C19.3611 18.546 19.3594 18.4843 19.374 18.4255L19.1799 18.3773ZM19.2033 18.6934C19.5448 19.1486 20.0064 19.3833 20.475 19.3833V19.1833C20.077 19.1833 19.6719 18.9847 19.3633 18.5734L19.2033 18.6934ZM20.475 19.3833H21.0167V19.1833H20.475V19.3833ZM21.0561 19.3753C21.8291 19.044 22.5097 18.4844 22.7378 17.6858L22.5455 17.6309C22.3403 18.349 21.7209 18.8727 20.9773 19.1914L21.0561 19.3753ZM22.7378 17.6858C22.9659 16.8876 22.7342 16.0928 22.0624 15.421L21.9209 15.5624C22.5492 16.1906 22.7508 16.9124 22.5455 17.6309L22.7378 17.6858ZM22.0557 15.4149C21.3801 14.8519 20.5394 14.6595 19.5472 14.7284C18.5575 14.7971 17.4091 15.1263 16.1065 15.6147L16.1768 15.802C17.4743 15.3154 18.6008 14.9946 19.5611 14.9279C20.5189 14.8614 21.3032 15.0481 21.9276 15.5685L22.0557 15.4149ZM13.2167 1.72502C13.578 1.72502 13.9246 1.86856 14.1801 2.12408L14.3215 1.98266C14.0285 1.68964 13.6311 1.52502 13.2167 1.52502V1.72502ZM14.1801 2.12408C14.4356 2.3796 14.5792 2.72616 14.5792 3.08752L14.7792 3.08752C14.7792 2.67312 14.6145 2.27569 14.3215 1.98266L14.1801 2.12408ZM14.5792 3.08752C14.5792 3.44887 14.4356 3.79543 14.1801 4.05095L14.3215 4.19237C14.6145 3.89934 14.7792 3.50192 14.7792 3.08752L14.5792 3.08752ZM14.1801 4.05095C13.9246 4.30647 13.578 4.45002 13.2167 4.45002V4.65002C13.6311 4.65002 14.0285 4.4854 14.3215 4.19237L14.1801 4.05095ZM13.2167 4.45002C12.8697 4.45002 12.5369 4.31217 12.2915 4.06681L12.1501 4.20824C12.433 4.4911 12.8166 4.65002 13.2167 4.65002V4.45002ZM12.2915 4.06681C12.0462 3.82145 11.9083 3.48867 11.9083 3.14168L11.7083 3.14168C11.7083 3.54172 11.8672 3.92537 12.1501 4.20824L12.2915 4.06681ZM11.9083 3.14168C11.9083 2.79469 12.0462 2.46191 12.2915 2.21655L12.1501 2.07513C11.8672 2.358 11.7083 2.74165 11.7083 3.14168L11.9083 3.14168ZM12.2915 2.21655C12.5369 1.97119 12.8697 1.83335 13.2167 1.83335V1.63335C12.8166 1.63335 12.433 1.79226 12.1501 2.07513L12.2915 2.21655ZM13.2167 5.51668C13.8465 5.51668 14.4506 5.26646 14.896 4.82106L14.7546 4.67964C14.3467 5.08753 13.7935 5.31668 13.2167 5.31668V5.51668ZM14.896 4.82106C15.3414 4.37566 15.5917 3.77157 15.5917 3.14168H15.3917C15.3917 3.71853 15.1625 4.27175 14.7546 4.67964L14.896 4.82106ZM15.5917 3.14157C15.5911 2.66714 15.4485 2.20373 15.1822 1.8111L15.0167 1.92336C15.2606 2.28294 15.3912 2.70731 15.3917 3.1418L15.5917 3.14157ZM15.1822 1.8111C14.9159 1.41846 14.5381 1.11458 14.0975 0.938631L14.0233 1.12437C14.4268 1.2855 14.7728 1.56379 15.0167 1.92336L15.1822 1.8111ZM14.0975 0.938631C13.6569 0.762681 13.1737 0.722722 12.7101 0.823905L12.7528 1.0193C13.1773 0.926641 13.6198 0.963235 14.0233 1.12437L14.0975 0.938631ZM12.7101 0.823905C12.2466 0.925089 11.824 1.16278 11.4968 1.50633L11.6417 1.64426C11.9413 1.32964 12.3283 1.11197 12.7528 1.0193L12.7101 0.823905ZM11.4968 1.50633C11.1696 1.84989 10.9528 2.28357 10.8744 2.75147L11.0716 2.78454C11.1435 2.35605 11.342 1.95889 11.6417 1.64426L11.4968 1.50633ZM10.8744 2.75147C10.7959 3.21937 10.8594 3.70005 11.0566 4.13155L11.2385 4.04841C11.0579 3.65324 10.9998 3.21304 11.0716 2.78454L10.8744 2.75147ZM11.0566 4.13155C11.2538 4.56305 11.5757 4.92559 11.9809 5.17245L12.085 5.00165C11.7139 4.77558 11.4191 4.44357 11.2385 4.04841L11.0566 4.13155ZM11.9809 5.17245C12.3861 5.4193 12.8559 5.53916 13.3298 5.51657L13.3202 5.3168C12.8862 5.33749 12.456 5.22772 12.085 5.00165L11.9809 5.17245Z" fill="#262626" mask="url(#path-3-outside-2_1203_1862)"/>
<mask id="path-5-outside-3_1203_1862" maskUnits="userSpaceOnUse" x="10.4833" y="4.52502" width="15" height="18" fill="black">
<rect fill="white" x="10.4833" y="4.52502" width="15" height="18"/>
<path fill-rule="evenodd" clip-rule="evenodd" d="M11.4833 7.80002C11.4833 8.00115 11.5632 8.19403 11.7054 8.33625C11.8476 8.47846 12.0405 8.55836 12.2416 8.55836C12.4427 8.55836 12.6356 8.47846 12.7778 8.33625C12.92 8.19403 12.9999 8.00115 12.9999 7.80002C12.9999 7.5989 12.92 7.40602 12.7778 7.2638C12.6356 7.12159 12.4427 7.04169 12.2416 7.04169C12.0405 7.04169 11.8476 7.12159 11.7054 7.2638C11.5632 7.40602 11.4833 7.5989 11.4833 7.80002ZM24.4833 6.93336C24.624 6.87709 24.7447 6.77993 24.8297 6.65441C24.9147 6.5289 24.9602 6.38078 24.9602 6.22919C24.9602 6.0776 24.9147 5.92949 24.8297 5.80397C24.7447 5.67845 24.624 5.58129 24.4833 5.52502C24.3425 5.58129 24.2218 5.67845 24.1368 5.80397C24.0518 5.92949 24.0064 6.0776 24.0064 6.22919C24.0064 6.38078 24.0518 6.5289 24.1368 6.65441C24.2218 6.77993 24.3425 6.87709 24.4833 6.93336ZM24.3749 20.9084H24.2666C24.0655 20.9084 23.8726 20.9883 23.7304 21.1305C23.5882 21.2727 23.5083 21.4656 23.5083 21.6667C23.5083 21.8678 23.5882 22.0607 23.7304 22.2029C23.8726 22.3451 24.0655 22.425 24.2666 22.425H24.4833C24.6654 22.3741 24.8218 22.257 24.922 22.0966C25.0222 21.9363 25.0589 21.7443 25.0249 21.5584C25.0249 21.2334 24.6999 20.9084 24.2666 20.9084M24.4833 11.8084C24.2822 11.8084 24.0893 11.8883 23.9471 12.0305C23.8048 12.1727 23.7249 12.3656 23.7249 12.5667C23.7249 12.7678 23.8048 12.9607 23.9471 13.1029C24.0893 13.2451 24.2822 13.325 24.4833 13.325C24.6844 13.325 24.8773 13.2451 25.0195 13.1029C25.1617 12.9607 25.2416 12.7678 25.2416 12.5667C25.2416 12.3656 25.1617 12.1727 25.0195 12.0305C24.8773 11.8883 24.6844 11.8084 24.4833 11.8084ZM22.2083 10.725C22.1492 10.7585 22.0989 10.8053 22.0612 10.8617C22.0236 10.9182 21.9998 10.9827 21.9916 11.05V12.4584L20.9083 11.5917C20.8424 11.5537 20.7677 11.5336 20.6916 11.5336C20.6155 11.5336 20.5408 11.5537 20.4749 11.5917L19.0666 11.9167L19.6083 10.6167C19.6463 10.5508 19.6663 10.4761 19.6663 10.4C19.6663 10.324 19.6463 10.2492 19.6083 10.1834L18.7416 9.10002H20.1499L20.5833 8.99169L21.4499 7.90836L21.7749 9.20836C21.7831 9.27571 21.8069 9.34021 21.8446 9.39666C21.8822 9.4531 21.9326 9.49993 21.9916 9.53336L23.3999 9.96669L22.2083 10.725ZM24.6999 9.85836C24.6918 9.79101 24.6679 9.72651 24.6303 9.67006C24.5927 9.61361 24.5423 9.56679 24.4833 9.53336L22.4249 8.66669L21.8833 6.71669C21.8709 6.63447 21.8352 6.55755 21.7803 6.49509C21.7254 6.43263 21.6537 6.38728 21.5738 6.36444C21.4939 6.3416 21.409 6.34223 21.3294 6.36628C21.2499 6.39032 21.1789 6.43675 21.1249 6.50002L19.9333 8.12502L17.7666 8.01669C17.7271 7.94943 17.6702 7.89407 17.6019 7.85646C17.5335 7.81886 17.4563 7.80039 17.3784 7.80301C17.3004 7.80564 17.2246 7.82925 17.1589 7.87137C17.0933 7.91349 17.0402 7.97254 17.0053 8.04231C16.9705 8.11207 16.9551 8.18996 16.9608 8.26775C16.9665 8.34554 16.993 8.42036 17.0377 8.48429C17.0824 8.54823 17.1435 8.59893 17.2146 8.63103C17.2857 8.66313 17.3641 8.67545 17.4416 8.66669L18.5249 10.4L17.8749 12.2417C17.8333 12.3119 17.8124 12.3925 17.8146 12.4741C17.8167 12.5557 17.8419 12.635 17.8872 12.703C17.9325 12.7709 17.996 12.8247 18.0705 12.858C18.145 12.8914 18.2274 12.9031 18.3083 12.8917L20.3666 12.35L21.8833 13.65C21.9435 13.7192 22.0241 13.7675 22.1135 13.788C22.203 13.8084 22.2966 13.8 22.3809 13.7639C22.4652 13.7277 22.5359 13.6658 22.5827 13.5869C22.6296 13.5081 22.6502 13.4164 22.6416 13.325V11.1584L24.4833 10.075C24.5225 10.0311 24.5523 9.97956 24.5709 9.92368C24.5895 9.86781 24.5966 9.80872 24.5916 9.75002L24.6999 9.85836Z"/>
</mask>
<path fill-rule="evenodd" clip-rule="evenodd" d="M11.4833 7.80002C11.4833 8.00115 11.5632 8.19403 11.7054 8.33625C11.8476 8.47846 12.0405 8.55836 12.2416 8.55836C12.4427 8.55836 12.6356 8.47846 12.7778 8.33625C12.92 8.19403 12.9999 8.00115 12.9999 7.80002C12.9999 7.5989 12.92 7.40602 12.7778 7.2638C12.6356 7.12159 12.4427 7.04169 12.2416 7.04169C12.0405 7.04169 11.8476 7.12159 11.7054 7.2638C11.5632 7.40602 11.4833 7.5989 11.4833 7.80002ZM24.4833 6.93336C24.624 6.87709 24.7447 6.77993 24.8297 6.65441C24.9147 6.5289 24.9602 6.38078 24.9602 6.22919C24.9602 6.0776 24.9147 5.92949 24.8297 5.80397C24.7447 5.67845 24.624 5.58129 24.4833 5.52502C24.3425 5.58129 24.2218 5.67845 24.1368 5.80397C24.0518 5.92949 24.0064 6.0776 24.0064 6.22919C24.0064 6.38078 24.0518 6.5289 24.1368 6.65441C24.2218 6.77993 24.3425 6.87709 24.4833 6.93336ZM24.3749 20.9084H24.2666C24.0655 20.9084 23.8726 20.9883 23.7304 21.1305C23.5882 21.2727 23.5083 21.4656 23.5083 21.6667C23.5083 21.8678 23.5882 22.0607 23.7304 22.2029C23.8726 22.3451 24.0655 22.425 24.2666 22.425H24.4833C24.6654 22.3741 24.8218 22.257 24.922 22.0966C25.0222 21.9363 25.0589 21.7443 25.0249 21.5584C25.0249 21.2334 24.6999 20.9084 24.2666 20.9084M24.4833 11.8084C24.2822 11.8084 24.0893 11.8883 23.9471 12.0305C23.8048 12.1727 23.7249 12.3656 23.7249 12.5667C23.7249 12.7678 23.8048 12.9607 23.9471 13.1029C24.0893 13.2451 24.2822 13.325 24.4833 13.325C24.6844 13.325 24.8773 13.2451 25.0195 13.1029C25.1617 12.9607 25.2416 12.7678 25.2416 12.5667C25.2416 12.3656 25.1617 12.1727 25.0195 12.0305C24.8773 11.8883 24.6844 11.8084 24.4833 11.8084ZM22.2083 10.725C22.1492 10.7585 22.0989 10.8053 22.0612 10.8617C22.0236 10.9182 21.9998 10.9827 21.9916 11.05V12.4584L20.9083 11.5917C20.8424 11.5537 20.7677 11.5336 20.6916 11.5336C20.6155 11.5336 20.5408 11.5537 20.4749 11.5917L19.0666 11.9167L19.6083 10.6167C19.6463 10.5508 19.6663 10.4761 19.6663 10.4C19.6663 10.324 19.6463 10.2492 19.6083 10.1834L18.7416 9.10002H20.1499L20.5833 8.99169L21.4499 7.90836L21.7749 9.20836C21.7831 9.27571 21.8069 9.34021 21.8446 9.39666C21.8822 9.4531 21.9326 9.49993 21.9916 9.53336L23.3999 9.96669L22.2083 10.725ZM24.6999 9.85836C24.6918 9.79101 24.6679 9.72651 24.6303 9.67006C24.5927 9.61361 24.5423 9.56679 24.4833 9.53336L22.4249 8.66669L21.8833 6.71669C21.8709 6.63447 21.8352 6.55755 21.7803 6.49509C21.7254 6.43263 21.6537 6.38728 21.5738 6.36444C21.4939 6.3416 21.409 6.34223 21.3294 6.36628C21.2499 6.39032 21.1789 6.43675 21.1249 6.50002L19.9333 8.12502L17.7666 8.01669C17.7271 7.94943 17.6702 7.89407 17.6019 7.85646C17.5335 7.81886 17.4563 7.80039 17.3784 7.80301C17.3004 7.80564 17.2246 7.82925 17.1589 7.87137C17.0933 7.91349 17.0402 7.97254 17.0053 8.04231C16.9705 8.11207 16.9551 8.18996 16.9608 8.26775C16.9665 8.34554 16.993 8.42036 17.0377 8.48429C17.0824 8.54823 17.1435 8.59893 17.2146 8.63103C17.2857 8.66313 17.3641 8.67545 17.4416 8.66669L18.5249 10.4L17.8749 12.2417C17.8333 12.3119 17.8124 12.3925 17.8146 12.4741C17.8167 12.5557 17.8419 12.635 17.8872 12.703C17.9325 12.7709 17.996 12.8247 18.0705 12.858C18.145 12.8914 18.2274 12.9031 18.3083 12.8917L20.3666 12.35L21.8833 13.65C21.9435 13.7192 22.0241 13.7675 22.1135 13.788C22.203 13.8084 22.2966 13.8 22.3809 13.7639C22.4652 13.7277 22.5359 13.6658 22.5827 13.5869C22.6296 13.5081 22.6502 13.4164 22.6416 13.325V11.1584L24.4833 10.075C24.5225 10.0311 24.5523 9.97956 24.5709 9.92368C24.5895 9.86781 24.5966 9.80872 24.5916 9.75002L24.6999 9.85836Z" fill="#262626"/>
<path d="M11.4833 7.80002L11.3833 7.80002V7.80002L11.4833 7.80002ZM12.9999 7.80002L13.0999 7.80002V7.80002L12.9999 7.80002ZM24.4833 6.93336L24.4462 7.02622L24.4833 7.04105L24.5204 7.02622L24.4833 6.93336ZM24.4833 5.52502L24.5204 5.43217L24.4833 5.41733L24.4462 5.43217L24.4833 5.52502ZM24.2666 20.9084V20.8084H24.2666L24.2666 20.9084ZM24.2666 22.425L24.2666 22.525H24.2666V22.425ZM24.4833 22.425V22.525H24.497L24.5102 22.5213L24.4833 22.425ZM25.0249 21.5584H24.9249V21.5674L24.9266 21.5763L25.0249 21.5584ZM24.4833 11.8084V11.7084V11.8084ZM23.7249 12.5667L23.8249 12.5667L23.7249 12.5667ZM25.2416 12.5667L25.1416 12.5667L25.2416 12.5667ZM22.2083 10.725L22.2576 10.8122L22.262 10.8094L22.2083 10.725ZM21.9916 11.05L21.8916 11.0379V11.05H21.9916ZM21.9916 12.4584L21.9291 12.5364L22.0916 12.6664V12.4584H21.9916ZM20.9083 11.5917L20.9707 11.5136L20.9648 11.5089L20.9583 11.5051L20.9083 11.5917ZM20.6916 11.5336V11.6336V11.5336ZM20.4749 11.5917L20.4974 11.6891L20.512 11.6858L20.5249 11.6783L20.4749 11.5917ZM19.0666 11.9167L18.9743 11.8782L18.8994 12.0579L19.0891 12.0141L19.0666 11.9167ZM19.6083 10.6167L19.521 10.5663L19.516 10.5782L19.6083 10.6167ZM19.6663 10.4L19.7663 10.4L19.6663 10.4ZM19.6083 10.1834L19.6949 10.1334L19.6911 10.1268L19.6864 10.1209L19.6083 10.1834ZM18.7416 9.10002V9.00002H18.5335L18.6635 9.16249L18.7416 9.10002ZM20.1499 9.10002V9.20002H20.1623L20.1742 9.19704L20.1499 9.10002ZM20.5833 8.99169L20.6075 9.08871L20.6403 9.08052L20.6614 9.05416L20.5833 8.99169ZM21.4499 7.90836L21.547 7.8841L21.498 7.68822L21.3719 7.84589L21.4499 7.90836ZM21.7749 9.20836L21.875 9.19625L21.872 9.1841L21.7749 9.20836ZM21.9916 9.53336L21.9423 9.62038L21.9518 9.62574L21.9622 9.62894L21.9916 9.53336ZM23.3999 9.96669L23.4536 10.0511L23.6363 9.9348L23.4294 9.87111L23.3999 9.96669ZM24.6999 9.85836L24.6292 9.92907L24.834 10.1339L24.7992 9.84634L24.6999 9.85836ZM24.4833 9.53336L24.5329 9.44575L24.5221 9.44119L24.4833 9.53336ZM22.4249 8.66669L22.3286 8.69346L22.3415 8.74008L22.3861 8.75885L22.4249 8.66669ZM21.8833 6.71669L21.7837 6.73166L21.7869 6.74346L21.8833 6.71669ZM21.1249 6.50002L21.0486 6.43499L21.0443 6.44089L21.1249 6.50002ZM19.9333 8.12502L19.9283 8.2249L19.9821 8.22759L20.0139 8.18416L19.9333 8.12502ZM17.7666 8.01669L17.6804 8.06732L17.7077 8.11387L17.7616 8.11657L17.7666 8.01669ZM17.4416 8.66669L17.5264 8.61369L17.493 8.56024L17.4304 8.56732L17.4416 8.66669ZM18.5249 10.4L18.6192 10.4333L18.6353 10.3879L18.6097 10.347L18.5249 10.4ZM17.8749 12.2417L17.961 12.2927L17.966 12.2842L17.9692 12.275L17.8749 12.2417ZM18.3083 12.8917L18.3223 12.9914L18.3337 12.9884L18.3083 12.8917ZM20.3666 12.35L20.4317 12.2741L20.3919 12.24L20.3412 12.2533L20.3666 12.35ZM21.8833 13.65L21.9587 13.5844L21.9539 13.5789L21.9484 13.5741L21.8833 13.65ZM22.5827 13.5869L22.6687 13.638L22.5827 13.5869ZM22.6416 13.325H22.5412L22.542 13.3344L22.6416 13.325ZM22.6416 11.1584L22.5909 11.0722L22.5416 11.1012V11.1584H22.6416ZM24.4833 10.075L24.534 10.1612L24.5475 10.1533L24.5579 10.1416L24.4833 10.075ZM24.5916 9.75002L24.6623 9.67931L24.4688 9.48583L24.492 9.75848L24.5916 9.75002ZM11.3833 7.80002C11.3833 8.02767 11.4737 8.24599 11.6347 8.40696L11.7761 8.26554C11.6526 8.14208 11.5833 7.97463 11.5833 7.80002L11.3833 7.80002ZM11.6347 8.40696C11.7956 8.56793 12.014 8.65836 12.2416 8.65836V8.45836C12.067 8.45836 11.8996 8.389 11.7761 8.26554L11.6347 8.40696ZM12.2416 8.65836C12.4693 8.65836 12.6876 8.56793 12.8485 8.40696L12.7071 8.26554C12.5837 8.389 12.4162 8.45836 12.2416 8.45836V8.65836ZM12.8485 8.40696C13.0095 8.24599 13.0999 8.02767 13.0999 7.80002L12.8999 7.80002C12.8999 7.97463 12.8306 8.14208 12.7071 8.26554L12.8485 8.40696ZM13.0999 7.80002C13.0999 7.57238 13.0095 7.35406 12.8485 7.19309L12.7071 7.33451C12.8306 7.45797 12.8999 7.62542 12.8999 7.80002L13.0999 7.80002ZM12.8485 7.19309C12.6876 7.03212 12.4693 6.94169 12.2416 6.94169V7.14169C12.4162 7.14169 12.5837 7.21105 12.7071 7.33451L12.8485 7.19309ZM12.2416 6.94169C12.014 6.94169 11.7956 7.03212 11.6347 7.19309L11.7761 7.33451C11.8996 7.21105 12.067 7.14169 12.2416 7.14169V6.94169ZM11.6347 7.19309C11.4737 7.35406 11.3833 7.57238 11.3833 7.80002L11.5833 7.80002C11.5833 7.62542 11.6526 7.45797 11.7761 7.33451L11.6347 7.19309ZM24.5204 7.02622C24.6797 6.96253 24.8163 6.85256 24.9125 6.71049L24.7469 6.59834C24.6731 6.70731 24.5684 6.79166 24.4462 6.8405L24.5204 7.02622ZM24.9125 6.71049C25.0087 6.56842 25.0602 6.40077 25.0602 6.22919H24.8602C24.8602 6.36079 24.8207 6.48938 24.7469 6.59834L24.9125 6.71049ZM25.0602 6.22919C25.0602 6.05761 25.0087 5.88996 24.9125 5.74789L24.7469 5.86004C24.8207 5.96901 24.8602 6.09759 24.8602 6.22919H25.0602ZM24.9125 5.74789C24.8163 5.60582 24.6797 5.49585 24.5204 5.43217L24.4462 5.61788C24.5684 5.66673 24.6731 5.75107 24.7469 5.86004L24.9125 5.74789ZM24.4462 5.43217C24.2868 5.49585 24.1503 5.60582 24.054 5.74789L24.2196 5.86004C24.2934 5.75107 24.3982 5.66673 24.5204 5.61788L24.4462 5.43217ZM24.054 5.74789C23.9578 5.88996 23.9064 6.05761 23.9064 6.22919H24.1064C24.1064 6.09759 24.1458 5.96901 24.2196 5.86004L24.054 5.74789ZM23.9064 6.22919C23.9064 6.40077 23.9578 6.56842 24.054 6.71049L24.2196 6.59834C24.1458 6.48938 24.1064 6.36079 24.1064 6.22919H23.9064ZM24.054 6.71049C24.1503 6.85256 24.2868 6.96253 24.4462 7.02622L24.5204 6.8405C24.3982 6.79166 24.2934 6.70731 24.2196 6.59834L24.054 6.71049ZM24.3749 20.8084H24.2666V21.0084H24.3749V20.8084ZM24.2666 20.8084C24.039 20.8084 23.8206 20.8988 23.6597 21.0598L23.8011 21.2012C23.9246 21.0777 24.092 21.0084 24.2666 21.0084L24.2666 20.8084ZM23.6597 21.0598C23.4987 21.2207 23.4083 21.439 23.4083 21.6667H23.6083C23.6083 21.4921 23.6776 21.3246 23.8011 21.2012L23.6597 21.0598ZM23.4083 21.6667C23.4083 21.8943 23.4987 22.1127 23.6597 22.2736L23.8011 22.1322C23.6776 22.0087 23.6083 21.8413 23.6083 21.6667H23.4083ZM23.6597 22.2736C23.8206 22.4346 24.039 22.525 24.2666 22.525L24.2666 22.325C24.092 22.325 23.9246 22.2557 23.8011 22.1322L23.6597 22.2736ZM24.2666 22.525H24.4833V22.325H24.2666V22.525ZM24.5102 22.5213C24.7163 22.4637 24.8934 22.3311 25.0068 22.1496L24.8372 22.0436C24.7502 22.1828 24.6144 22.2845 24.4563 22.3287L24.5102 22.5213ZM25.0068 22.1496C25.1203 21.9682 25.1618 21.7509 25.1233 21.5404L24.9266 21.5763C24.9561 21.7378 24.9242 21.9045 24.8372 22.0436L25.0068 22.1496ZM25.1249 21.5584C25.1249 21.1685 24.745 20.8084 24.2666 20.8084V21.0084C24.6549 21.0084 24.9249 21.2982 24.9249 21.5584H25.1249ZM24.4833 11.7084C24.2556 11.7084 24.0373 11.7988 23.8763 11.9598L24.0178 12.1012C24.1412 11.9777 24.3087 11.9084 24.4833 11.9084V11.7084ZM23.8763 11.9598C23.7154 12.1207 23.6249 12.339 23.6249 12.5667L23.8249 12.5667C23.8249 12.3921 23.8943 12.2246 24.0178 12.1012L23.8763 11.9598ZM23.6249 12.5667C23.6249 12.7943 23.7154 13.0127 23.8763 13.1736L24.0178 13.0322C23.8943 12.9087 23.8249 12.7413 23.8249 12.5667L23.6249 12.5667ZM23.8763 13.1736C24.0373 13.3346 24.2556 13.425 24.4833 13.425V13.225C24.3087 13.225 24.1412 13.1557 24.0178 13.0322L23.8763 13.1736ZM24.4833 13.425C24.7109 13.425 24.9292 13.3346 25.0902 13.1736L24.9488 13.0322C24.8253 13.1557 24.6579 13.225 24.4833 13.225V13.425ZM25.0902 13.1736C25.2512 13.0127 25.3416 12.7943 25.3416 12.5667L25.1416 12.5667C25.1416 12.7413 25.0722 12.9087 24.9488 13.0322L25.0902 13.1736ZM25.3416 12.5667C25.3416 12.339 25.2512 12.1207 25.0902 11.9598L24.9488 12.1012C25.0722 12.2246 25.1416 12.3921 25.1416 12.5667H25.3416ZM25.0902 11.9598C24.9292 11.7988 24.7109 11.7084 24.4833 11.7084V11.9084C24.6579 11.9084 24.8253 11.9777 24.9488 12.1012L25.0902 11.9598ZM22.159 10.638C22.0863 10.6792 22.0244 10.7368 21.978 10.8063L22.1445 10.9172C22.1734 10.8738 22.2121 10.8378 22.2576 10.812L22.159 10.638ZM21.978 10.8063C21.9317 10.8757 21.9024 10.9551 21.8923 11.038L22.0909 11.062C22.0972 11.0102 22.1155 10.9606 22.1445 10.9172L21.978 10.8063ZM21.8916 11.05V12.4584H22.0916V11.05H21.8916ZM22.0541 12.3803L20.9707 11.5136L20.8458 11.6698L21.9291 12.5364L22.0541 12.3803ZM20.9583 11.5051C20.8772 11.4583 20.7852 11.4336 20.6916 11.4336V11.6336C20.7501 11.6336 20.8076 11.649 20.8583 11.6783L20.9583 11.5051ZM20.6916 11.4336C20.598 11.4336 20.506 11.4583 20.4249 11.5051L20.5249 11.6783C20.5756 11.649 20.6331 11.6336 20.6916 11.6336V11.4336ZM20.4525 11.4943L19.0441 11.8193L19.0891 12.0141L20.4974 11.6891L20.4525 11.4943ZM19.1589 11.9552L19.7006 10.6552L19.516 10.5782L18.9743 11.8782L19.1589 11.9552ZM19.6949 10.6667C19.7417 10.5856 19.7663 10.4936 19.7663 10.4L19.5663 10.4C19.5663 10.4585 19.5509 10.516 19.5217 10.5667L19.6949 10.6667ZM19.7663 10.4C19.7663 10.3064 19.7417 10.2144 19.6949 10.1334L19.5217 10.2334C19.5509 10.284 19.5663 10.3415 19.5663 10.4L19.7663 10.4ZM19.6864 10.1209L18.8197 9.03755L18.6635 9.16249L19.5302 10.2458L19.6864 10.1209ZM18.7416 9.20002H20.1499V9.00002H18.7416V9.20002ZM20.1742 9.19704L20.6075 9.08871L20.559 8.89468L20.1257 9.00301L20.1742 9.19704ZM20.6614 9.05416L21.528 7.97083L21.3719 7.84589L20.5052 8.92922L20.6614 9.05416ZM21.3529 7.93261L21.6779 9.23261L21.872 9.1841L21.547 7.8841L21.3529 7.93261ZM21.6757 9.22037C21.6857 9.30327 21.7151 9.38265 21.7614 9.45213L21.9278 9.34119C21.8988 9.29776 21.8805 9.24815 21.8742 9.19634L21.6757 9.22037ZM21.7614 9.45213C21.8077 9.5216 21.8697 9.57923 21.9423 9.62038L22.0409 9.44634C21.9955 9.42063 21.9567 9.38461 21.9278 9.34119L21.7614 9.45213ZM21.9622 9.62894L23.3705 10.0623L23.4294 9.87111L22.021 9.43778L21.9622 9.62894ZM23.3463 9.88232L22.1546 10.6407L22.262 10.8094L23.4536 10.0511L23.3463 9.88232ZM24.7992 9.84634C24.7892 9.76345 24.7598 9.68407 24.7135 9.61459L24.5471 9.72553C24.576 9.76895 24.5944 9.81856 24.6007 9.87038L24.7992 9.84634ZM24.7135 9.61459C24.6672 9.54512 24.6052 9.48749 24.5326 9.44634L24.434 9.62038C24.4794 9.64609 24.5182 9.68211 24.5471 9.72553L24.7135 9.61459ZM24.5221 9.44119L22.4637 8.57453L22.3861 8.75885L24.4445 9.62552L24.5221 9.44119ZM22.5213 8.63993L21.9796 6.68993L21.7869 6.74346L22.3286 8.69346L22.5213 8.63993ZM21.9822 6.70183C21.967 6.60064 21.923 6.50596 21.8554 6.42909L21.7052 6.56109C21.7474 6.60914 21.7749 6.66831 21.7844 6.73155L21.9822 6.70183ZM21.8554 6.42909C21.7879 6.35222 21.6997 6.29639 21.6013 6.26828L21.5463 6.46059C21.6078 6.47816 21.663 6.51305 21.7052 6.56109L21.8554 6.42909ZM21.6013 6.26828C21.5029 6.24017 21.3985 6.24096 21.3005 6.27055L21.3584 6.462C21.4196 6.44351 21.4848 6.44302 21.5463 6.46059L21.6013 6.26828ZM21.3005 6.27055C21.2026 6.30014 21.1152 6.35728 21.0488 6.43516L21.2011 6.56489C21.2425 6.51621 21.2971 6.4805 21.3584 6.462L21.3005 6.27055ZM21.0443 6.44089L19.8526 8.06589L20.0139 8.18416L21.2056 6.55916L21.0443 6.44089ZM19.9383 8.02515L17.7716 7.91682L17.7616 8.11657L19.9283 8.2249L19.9383 8.02515ZM17.8528 7.96606C17.8042 7.88327 17.7342 7.81514 17.6501 7.76886L17.5536 7.94407C17.6062 7.973 17.65 8.01558 17.6804 8.06732L17.8528 7.96606ZM17.6501 7.76886C17.566 7.72257 17.4709 7.69984 17.375 7.70307L17.3817 7.90296C17.4417 7.90094 17.5011 7.91514 17.5536 7.94407L17.6501 7.76886ZM17.375 7.70307C17.279 7.7063 17.1858 7.73536 17.1049 7.7872L17.2129 7.95554C17.2634 7.92314 17.3218 7.90497 17.3817 7.90296L17.375 7.70307ZM17.1049 7.7872C17.0241 7.83904 16.9588 7.91172 16.9159 7.99759L17.0948 8.08703C17.1216 8.03336 17.1624 7.98794 17.2129 7.95554L17.1049 7.7872ZM16.9159 7.99759C16.873 8.08345 16.854 8.17931 16.861 8.27506L17.0605 8.26045C17.0561 8.20061 17.068 8.1407 17.0948 8.08703L16.9159 7.99759ZM16.861 8.27506C16.868 8.3708 16.9008 8.46288 16.9557 8.54157L17.1197 8.42702C17.0853 8.37784 17.0649 8.32029 17.0605 8.26045L16.861 8.27506ZM16.9557 8.54157C17.0107 8.62026 17.0859 8.68266 17.1734 8.72217L17.2557 8.53989C17.2011 8.5152 17.1541 8.4762 17.1197 8.42702L16.9557 8.54157ZM17.1734 8.72217C17.2609 8.76168 17.3575 8.77684 17.4528 8.76606L17.4304 8.56732C17.3708 8.57406 17.3104 8.56459 17.2557 8.53989L17.1734 8.72217ZM17.3568 8.71969L18.4401 10.453L18.6097 10.347L17.5264 8.61369L17.3568 8.71969ZM18.4306 10.3667L17.7806 12.2084L17.9692 12.275L18.6192 10.4333L18.4306 10.3667ZM17.7889 12.1907C17.7377 12.2772 17.7119 12.3763 17.7146 12.4768L17.9145 12.4714C17.9129 12.4087 17.929 12.3467 17.961 12.2927L17.7889 12.1907ZM17.7146 12.4768C17.7173 12.5772 17.7482 12.6748 17.804 12.7584L17.9704 12.6475C17.9355 12.5953 17.9162 12.5342 17.9145 12.4714L17.7146 12.4768ZM17.804 12.7584C17.8597 12.8421 17.9379 12.9082 18.0296 12.9493L18.1114 12.7668C18.0541 12.7411 18.0052 12.6998 17.9704 12.6475L17.804 12.7584ZM18.0296 12.9493C18.1213 12.9904 18.2228 13.0047 18.3222 12.9907L18.2943 12.7927C18.2321 12.8014 18.1687 12.7925 18.1114 12.7668L18.0296 12.9493ZM18.3337 12.9884L20.3921 12.4467L20.3412 12.2533L18.2828 12.795L18.3337 12.9884ZM20.3015 12.426L21.8182 13.726L21.9484 13.5741L20.4317 12.2741L20.3015 12.426ZM21.8078 13.7157C21.8819 13.8008 21.9812 13.8603 22.0912 13.8855L22.1358 13.6905C22.0671 13.6748 22.005 13.6376 21.9587 13.5844L21.8078 13.7157ZM22.0912 13.8855C22.2013 13.9107 22.3165 13.9003 22.4203 13.8558L22.3415 13.672C22.2766 13.6997 22.2046 13.7062 22.1358 13.6905L22.0912 13.8855ZM22.4203 13.8558C22.524 13.8113 22.611 13.7351 22.6687 13.638L22.4967 13.5358C22.4607 13.5965 22.4063 13.6442 22.3415 13.672L22.4203 13.8558ZM22.6687 13.638C22.7264 13.5409 22.7517 13.4281 22.7412 13.3157L22.542 13.3344C22.5487 13.4046 22.5328 13.4752 22.4967 13.5358L22.6687 13.638ZM22.7416 13.325V11.1584H22.5416V13.325H22.7416ZM22.6923 11.2446L24.534 10.1612L24.4326 9.98883L22.5909 11.0722L22.6923 11.2446ZM24.5579 10.1416C24.6062 10.0875 24.6429 10.0241 24.6658 9.95531L24.4761 9.89206C24.4617 9.93505 24.4388 9.97466 24.4086 10.0085L24.5579 10.1416ZM24.6658 9.95531C24.6887 9.88653 24.6974 9.81381 24.6913 9.74157L24.492 9.75848C24.4958 9.80362 24.4904 9.84908 24.4761 9.89206L24.6658 9.95531ZM24.5209 9.82073L24.6292 9.92907L24.7707 9.78765L24.6623 9.67931L24.5209 9.82073Z" fill="#262626" mask="url(#path-5-outside-3_1203_1862)"/>
</g>
<defs>
<clipPath id="clip0_1203_1862">
<rect width="26" height="26" fill="white"/>
</clipPath>
</defs>
</svg>
