<svg width="57" height="55" viewBox="0 0 57 55" fill="none" xmlns="http://www.w3.org/2000/svg">
<g clip-path="url(#clip0_665_3994)">
<path d="M52.7827 22.4221H51.8529C51.8502 21.8289 51.6586 21.252 51.306 20.775C50.9535 20.2979 50.4581 19.9456 49.8919 19.7689C49.3719 14.479 46.9027 9.57169 42.9646 6.00169C39.0266 2.4317 33.9012 0.454346 28.5858 0.454346C23.2704 0.454346 18.1451 2.4317 14.207 6.00169C10.269 9.57169 7.79974 14.479 7.27981 19.7689C6.71354 19.9456 6.21822 20.2979 5.86564 20.775C5.51305 21.252 5.32151 21.8289 5.31878 22.4221H4.3821C3.39453 22.4221 2.4474 22.8144 1.74908 23.5127C1.05076 24.211 0.658447 25.1582 0.658447 26.1457L0.658447 33.5919C0.658447 34.5795 1.05076 35.5266 1.74908 36.2249C2.4474 36.9232 3.39453 37.3155 4.3821 37.3155H5.31301C5.31301 38.0562 5.60725 38.7666 6.13099 39.2903C6.65473 39.814 7.36507 40.1083 8.10575 40.1083H9.03667V43.8296C9.03667 46.0514 9.91925 48.1821 11.4903 49.7531C13.0613 51.3241 15.192 52.2067 17.4137 52.2067H20.3368C20.5427 53.004 21.007 53.7106 21.6572 54.2159C22.3074 54.7212 23.1067 54.9968 23.9301 54.9994H33.2381C33.7325 55.0081 34.2238 54.9183 34.6831 54.7351C35.1424 54.5519 35.5606 54.279 35.9134 53.9324C36.2661 53.5859 36.5463 53.1725 36.7375 52.7165C36.9288 52.2604 37.0273 51.7709 37.0273 51.2764C37.0273 50.7818 36.9288 50.2923 36.7375 49.8363C36.5463 49.3802 36.2661 48.9669 35.9134 48.6203C35.5606 48.2737 35.1424 48.0008 34.6831 47.8176C34.2238 47.6344 33.7325 47.5446 33.2381 47.5533H23.929C23.1055 47.556 22.3062 47.8315 21.656 48.3368C21.0059 48.8421 20.5415 49.5487 20.3357 50.346H17.4126C16.5569 50.346 15.7096 50.1775 14.919 49.85C14.1285 49.5225 13.4102 49.0425 12.8052 48.4373C12.2002 47.8322 11.7203 47.1139 11.393 46.3233C11.0656 45.5327 10.8972 44.6853 10.8973 43.8296V40.1071H11.8283C12.5679 40.1059 13.2769 39.8113 13.7996 39.2879C14.3223 38.7646 14.6161 38.0552 14.6164 37.3155V22.4221C14.6159 21.8663 14.4495 21.3232 14.1386 20.8625C13.8276 20.4018 13.3863 20.0443 12.8711 19.8358C13.3296 15.9909 15.182 12.4476 18.0775 9.87684C20.9731 7.30604 24.7108 5.88622 28.583 5.88622C32.4551 5.88622 36.1928 7.30604 39.0884 9.87684C41.984 12.4476 43.8364 15.9909 44.2949 19.8358C43.7786 20.0436 43.3361 20.401 43.0243 20.862C42.7125 21.323 42.5456 21.8667 42.5449 22.4232V37.3155C42.5449 38.0562 42.8392 38.7666 43.3629 39.2903C43.8866 39.814 44.597 40.1083 45.3377 40.1083H49.0613C49.802 40.1083 50.5123 39.814 51.0361 39.2903C51.5598 38.7666 51.8541 38.0562 51.8541 37.3155H52.785C53.7725 37.3155 54.7197 36.9232 55.418 36.2249C56.1163 35.5266 56.5086 34.5795 56.5086 33.5919V26.1457C56.5086 25.1582 56.1163 24.211 55.418 23.5127C54.7197 22.8144 53.7725 22.4221 52.785 22.4221H52.7827ZM23.9278 49.4151H33.2358C33.7296 49.4151 34.2031 49.6113 34.5523 49.9604C34.9015 50.3096 35.0976 50.7831 35.0976 51.2769C35.0976 51.7707 34.9015 52.2443 34.5523 52.5934C34.2031 52.9426 33.7296 53.1388 33.2358 53.1388H23.929C23.4352 53.1388 22.9616 52.9426 22.6125 52.5934C22.2633 52.2443 22.0671 51.7707 22.0671 51.2769C22.0671 50.7831 22.2633 50.3096 22.6125 49.9604C22.9616 49.6113 23.434 49.4151 23.9278 49.4151ZM4.3821 35.4537C3.88831 35.4537 3.41475 35.2576 3.06559 34.9084C2.71643 34.5592 2.52027 34.0857 2.52027 33.5919V26.1457C2.52027 25.652 2.71643 25.1784 3.06559 24.8292C3.41475 24.4801 3.88831 24.2839 4.3821 24.2839H5.31301V35.4537H4.3821ZM12.7592 37.3155C12.7592 37.4378 12.7351 37.5588 12.6883 37.6718C12.6415 37.7847 12.573 37.8874 12.4865 37.9738C12.4001 38.0602 12.2974 38.1288 12.1845 38.1756C12.0716 38.2224 11.9505 38.2465 11.8283 38.2465H8.1046C7.98235 38.2465 7.8613 38.2224 7.74835 38.1756C7.63541 38.1288 7.53279 38.0602 7.44634 37.9738C7.3599 37.8874 7.29133 37.7847 7.24455 37.6718C7.19776 37.5588 7.17369 37.4378 7.17369 37.3155V22.4221C7.17369 22.2998 7.19776 22.1788 7.24455 22.0658C7.29133 21.9529 7.3599 21.8503 7.44634 21.7638C7.53279 21.6774 7.63541 21.6088 7.74835 21.562C7.8613 21.5152 7.98235 21.4912 8.1046 21.4912H11.8283C12.0751 21.4912 12.3119 21.5892 12.4865 21.7638C12.6611 21.9384 12.7592 22.1752 12.7592 22.4221V37.3155ZM28.5824 3.80151C24.2174 3.8073 20.0088 5.42713 16.7663 8.34933C13.5238 11.2715 11.4766 15.2896 11.0185 19.6305H9.15663C9.69105 14.8523 11.9677 10.4387 15.5514 7.23352C19.1351 4.02829 23.7744 2.25629 28.5824 2.25629C33.3903 2.25629 38.0296 4.02829 41.6133 7.23352C45.197 10.4387 47.4737 14.8523 48.0081 19.6305H46.1463C45.6882 15.2896 43.6409 11.2715 40.3985 8.34933C37.156 5.42713 32.9473 3.8073 28.5824 3.80151ZM49.9911 37.3155C49.9911 37.4378 49.967 37.5588 49.9202 37.6718C49.8734 37.7847 49.8049 37.8874 49.7184 37.9738C49.632 38.0602 49.5294 38.1288 49.4164 38.1756C49.3035 38.2224 49.1824 38.2465 49.0602 38.2465H45.3365C45.2143 38.2465 45.0932 38.2224 44.9803 38.1756C44.8673 38.1288 44.7647 38.0602 44.6783 37.9738C44.5918 37.8874 44.5232 37.7847 44.4765 37.6718C44.4297 37.5588 44.4056 37.4378 44.4056 37.3155V22.4221C44.4056 22.1752 44.5037 21.9384 44.6783 21.7638C44.8528 21.5892 45.0896 21.4912 45.3365 21.4912H49.0602C49.3071 21.4912 49.5438 21.5892 49.7184 21.7638C49.893 21.9384 49.9911 22.1752 49.9911 22.4221V37.3155ZM54.6445 33.5919C54.6445 34.0857 54.4483 34.5592 54.0992 34.9084C53.75 35.2576 53.2765 35.4537 52.7827 35.4537H51.8529V24.2839H52.7838C53.2774 24.2842 53.7507 24.4805 54.0996 24.8296C54.4485 25.1788 54.6445 25.6521 54.6445 26.1457V33.5919Z" fill="#262626"/>
<path d="M25.6643 22.8831V24.1135L21.9456 32.8362H19.512L23.2375 24.6604H18.4866V22.8831H25.6643ZM31.0989 22.8831L27.6946 33.6907H26.054L29.4583 22.8831H31.0989ZM38.7073 22.8831V24.1135L34.9885 32.8362H32.5549L36.2805 24.6604H31.5295V22.8831H38.7073Z" fill="#262626"/>
</g>
<defs>
<clipPath id="clip0_665_3994">
<rect width="56.8033" height="55" fill="white"/>
</clipPath>
</defs>
</svg>
