<svg width="24" height="20" viewBox="0 0 24 20" fill="none" xmlns="http://www.w3.org/2000/svg">
<path d="M11.8024 0C18.114 0 23.2309 4.15714 23.2309 9.28572C23.2309 11.4982 22.2751 13.5268 20.6863 15.1223C21.2461 17.3683 23.1104 19.375 23.1327 19.3973C23.1807 19.448 23.2128 19.5116 23.225 19.5803C23.2372 19.649 23.229 19.7197 23.2015 19.7838C23.174 19.8479 23.1282 19.9026 23.07 19.941C23.0118 19.9794 22.9435 19.9999 22.8738 20C19.9157 20 17.6952 18.5826 16.597 17.7062C15.0639 18.2809 13.4396 18.574 11.8024 18.5714C5.4903 18.5714 0.373779 14.4143 0.373779 9.28572C0.373779 4.15714 5.4903 0 11.8024 0Z" fill="#262626"/>
<path d="M11.8024 1C18.114 1 22.2309 4.5 22.2309 9.28572C22.2309 11.4982 21.2751 13.5268 19.6863 15.1223C20.2461 17.3683 21.1104 18.375 21.1327 18.3973C21.1807 18.448 21.2128 18.5116 21.225 18.5803C21.2372 18.649 21.229 18.7197 21.2015 18.7838C21.174 18.8479 21.1282 18.9026 21.07 18.941C21.0118 18.9794 20.9435 18.9999 20.8738 19C19 18.5803 17.6952 17.5826 16.597 16.7062C15.0639 17.2809 13.4396 17.574 11.8024 17.5714C6.99997 17.5714 1.37378 14.4143 1.37378 9.28572C1.37378 5 5.4903 1 11.8024 1Z" fill="white"/>
<path d="M7.21499 9.33008C7.21499 9.11589 7.28107 8.93587 7.41323 8.79004C7.54995 8.63965 7.74591 8.56445 8.00112 8.56445C8.25633 8.56445 8.45001 8.63965 8.58217 8.79004C8.71889 8.93587 8.78725 9.11589 8.78725 9.33008C8.78725 9.53971 8.71889 9.71745 8.58217 9.86328C8.45001 10.0091 8.25633 10.082 8.00112 10.082C7.74591 10.082 7.54995 10.0091 7.41323 9.86328C7.28107 9.71745 7.21499 9.53971 7.21499 9.33008Z" fill="#262626"/>
<path d="M10.9064 9.33008C10.9064 9.11589 10.9725 8.93587 11.1046 8.79004C11.2414 8.63965 11.4373 8.56445 11.6925 8.56445C11.9477 8.56445 12.1414 8.63965 12.2736 8.79004C12.4103 8.93587 12.4787 9.11589 12.4787 9.33008C12.4787 9.53971 12.4103 9.71745 12.2736 9.86328C12.1414 10.0091 11.9477 10.082 11.6925 10.082C11.4373 10.082 11.2414 10.0091 11.1046 9.86328C10.9725 9.71745 10.9064 9.53971 10.9064 9.33008Z" fill="#262626"/>
<path d="M14.5978 9.33008C14.5978 9.11589 14.6639 8.93587 14.796 8.79004C14.9328 8.63965 15.1287 8.56445 15.3839 8.56445C15.6391 8.56445 15.8328 8.63965 15.965 8.79004C16.1017 8.93587 16.1701 9.11589 16.1701 9.33008C16.1701 9.53971 16.1017 9.71745 15.965 9.86328C15.8328 10.0091 15.6391 10.082 15.3839 10.082C15.1287 10.082 14.9328 10.0091 14.796 9.86328C14.6639 9.71745 14.5978 9.53971 14.5978 9.33008Z" fill="#262626"/>
</svg>
