<svg width="29" height="26" viewBox="0 0 29 26" fill="none" xmlns="http://www.w3.org/2000/svg">
<g clip-path="url(#clip0_1203_1853)">
<mask id="path-1-outside-1_1203_1853" maskUnits="userSpaceOnUse" x="-0.547852" y="-0.515991" width="30" height="27" fill="black">
<rect fill="white" x="-0.547852" y="-0.515991" width="30" height="27"/>
<path fill-rule="evenodd" clip-rule="evenodd" d="M27.3331 23.9467H26.1744L25.5951 22.0248C25.5451 21.8676 25.4503 21.7327 25.3249 21.6402C25.1995 21.5478 25.0503 21.5029 24.8999 21.5123H10.7642C10.6137 21.5029 10.4646 21.5478 10.3392 21.6402C10.2138 21.7327 10.119 21.8676 10.069 22.0248L9.3738 23.9467H8.331V16.6437C8.331 16.2594 8.6786 15.875 9.0262 15.875H26.6379C26.9855 15.875 27.3331 16.2594 27.3331 16.6437V23.9467ZM10.4166 7.80336H25.2475C25.8268 7.80336 26.4061 8.44397 26.4061 9.08457V14.3375H25.0157C25.0157 13.5688 25.0157 12.5439 25.3633 11.9032C25.3806 11.8359 25.3852 11.7654 25.3769 11.696C25.3685 11.6266 25.3474 11.5598 25.3149 11.4998C25.2823 11.4398 25.239 11.3878 25.1875 11.347C25.1361 11.3062 25.0776 11.2775 25.0157 11.2626C23.1619 10.4939 20.3811 10.4939 18.4114 11.2626C18.3075 11.3184 18.2263 11.4149 18.1834 11.5334C18.1405 11.6518 18.1392 11.7837 18.1796 11.9032C18.2955 12.4157 18.4114 13.4407 18.2955 14.3375H16.9051C16.9051 13.5688 16.9051 12.5439 17.1368 11.9032C17.1541 11.8359 17.1587 11.7654 17.1504 11.696C17.142 11.6266 17.1209 11.5598 17.0884 11.4998C17.0558 11.4398 17.0124 11.3878 16.961 11.347C16.9096 11.3062 16.8511 11.2775 16.7892 11.2626C14.6802 10.5085 12.4098 10.5085 10.3007 11.2626C10.1969 11.3184 10.1156 11.4149 10.0728 11.5334C10.0299 11.6518 10.0286 11.7837 10.069 11.9032C10.1849 12.4157 10.3007 13.4407 10.1849 14.3375H9.25793V9.2127C9.25793 8.44397 9.72139 7.93148 10.4166 7.93148V7.80336ZM19.1066 12.0314C20.8165 11.5432 22.6106 11.5432 24.3205 12.0314C24.0888 12.8001 24.0888 13.6969 24.0888 14.3375H19.2224V12.0314H19.1066ZM10.9959 12.0314C12.618 11.5189 14.4719 11.5189 16.094 12.0314L15.9782 14.3375H11.1118V12.0314H10.9959ZM27.3331 14.5938V9.08457C27.3338 8.46055 27.1179 7.86003 26.7298 7.40702C26.3416 6.95401 25.811 6.68311 25.2475 6.65027H10.4166C9.85304 6.68311 9.32242 6.95401 8.9343 7.40702C8.54618 7.86003 8.33022 8.46055 8.331 9.08457V14.3375C7.90451 14.5034 7.5383 14.818 7.28753 15.2339C7.03676 15.6498 6.915 16.1446 6.9406 16.6437V24.7154C6.9406 25.0997 7.2882 25.4841 7.6358 25.4841H9.95313C10.0836 25.4679 10.2073 25.4112 10.3098 25.3205C10.4123 25.2298 10.4895 25.1088 10.5325 24.9716L11.2277 23.0498H24.3205L25.0157 24.9716C25.0587 25.1088 25.1359 25.2298 25.2384 25.3205C25.3409 25.4112 25.4646 25.4679 25.5951 25.4841H27.9124C28.0968 25.4841 28.2736 25.4031 28.404 25.259C28.5343 25.1148 28.6076 24.9193 28.6076 24.7154V16.6437C28.6076 15.6188 28.0283 14.85 27.2172 14.4657L27.3331 14.5938Z"/>
<path fill-rule="evenodd" clip-rule="evenodd" d="M26.0586 18.6936H9.60558C9.48266 18.6936 9.36478 18.7476 9.27786 18.8437C9.19095 18.9398 9.14212 19.0701 9.14212 19.2061C9.14212 19.342 9.19095 19.4723 9.27786 19.5684C9.36478 19.6646 9.48266 19.7185 9.60558 19.7185H26.0586C26.1815 19.7185 26.2994 19.6646 26.3863 19.5684C26.4732 19.4723 26.5221 19.342 26.5221 19.2061C26.5221 19.0701 26.4732 18.9398 26.3863 18.8437C26.2994 18.7476 26.1815 18.6936 26.0586 18.6936ZM1.49494 6.65017L2.19014 1.52532H4.85507L5.55026 6.65017H1.49494ZM5.31853 0.50035H1.84254C1.77284 0.480405 1.69989 0.478693 1.62948 0.49535C1.55907 0.512007 1.49314 0.546574 1.43692 0.59631C1.38069 0.646047 1.33572 0.709584 1.30557 0.781884C1.27542 0.854184 1.26092 0.933258 1.26321 1.01284L0.452148 7.16266C0.452148 7.29858 0.500978 7.42893 0.587894 7.52504C0.674811 7.62115 0.792695 7.67514 0.915613 7.67514H3.11707V24.459H2.30601C2.18309 24.459 2.06521 24.513 1.97829 24.6091C1.89137 24.7053 1.84254 24.8356 1.84254 24.9715C1.84254 25.1074 1.89137 25.2378 1.97829 25.3339C2.06521 25.43 2.18309 25.484 2.30601 25.484H4.62333C4.74625 25.484 4.86414 25.43 4.95105 25.3339C5.03797 25.2378 5.0868 25.1074 5.0868 24.9715C5.0868 24.8356 5.03797 24.7053 4.95105 24.6091C4.86414 24.513 4.74625 24.459 4.62333 24.459H4.044V7.80327H6.1296C6.20156 7.8058 6.27307 7.78977 6.33845 7.75643C6.40384 7.72309 6.4613 7.67336 6.50628 7.61119C6.55126 7.54902 6.58252 7.47611 6.59758 7.39826C6.61264 7.3204 6.6111 7.23974 6.59306 7.16266L5.782 1.01284C5.782 0.876915 5.73317 0.746563 5.64625 0.650453C5.55933 0.554344 5.44145 0.50035 5.31853 0.50035Z"/>
<path fill-rule="evenodd" clip-rule="evenodd" d="M5.31849 8.57202C5.23629 8.49925 5.13412 8.45959 5.02882 8.45959C4.92352 8.45959 4.82136 8.49925 4.73916 8.57202C4.69406 8.69529 4.69406 8.83312 4.73916 8.95639V9.34075L5.08676 9.46887H5.43435C5.49393 9.40313 5.53619 9.32069 5.5566 9.23041C5.57702 9.14012 5.57481 9.04539 5.55022 8.95639C5.5415 8.87673 5.51599 8.80045 5.47574 8.7337C5.43549 8.66694 5.38163 8.61156 5.31849 8.57202ZM5.08676 10.2376C4.96384 10.2376 4.84595 10.2916 4.75904 10.3877C4.67212 10.4838 4.62329 10.6142 4.62329 10.7501C4.62329 10.8514 4.65047 10.9505 4.7014 11.0348C4.75233 11.1191 4.82471 11.1848 4.9094 11.2236C4.99408 11.2623 5.08727 11.2725 5.17717 11.2527C5.26708 11.2329 5.34966 11.1841 5.41448 11.1125C5.47929 11.0408 5.52343 10.9495 5.54132 10.8501C5.5592 10.7507 5.55002 10.6476 5.51494 10.554C5.47986 10.4603 5.42046 10.3803 5.34424 10.324C5.26803 10.2677 5.17842 10.2376 5.08676 10.2376ZM5.43435 12.0313C5.39588 12.0259 5.35696 12.0259 5.31849 12.0313C5.23629 11.9585 5.13412 11.9189 5.02882 11.9189C4.92352 11.9189 4.82136 11.9585 4.73916 12.0313C4.73431 12.0738 4.73431 12.1169 4.73916 12.1594C4.71953 12.2435 4.71953 12.3316 4.73916 12.4157C4.73583 12.532 4.76844 12.6462 4.83162 12.7394C4.8948 12.8325 4.98478 12.8991 5.08676 12.9281L5.43435 12.8C5.47503 12.7221 5.49645 12.6337 5.49645 12.5438C5.49645 12.4538 5.47503 12.3654 5.43435 12.2875C5.46086 12.2046 5.46086 12.1142 5.43435 12.0313Z"/>
</mask>
<path fill-rule="evenodd" clip-rule="evenodd" d="M27.3331 23.9467H26.1744L25.5951 22.0248C25.5451 21.8676 25.4503 21.7327 25.3249 21.6402C25.1995 21.5478 25.0503 21.5029 24.8999 21.5123H10.7642C10.6137 21.5029 10.4646 21.5478 10.3392 21.6402C10.2138 21.7327 10.119 21.8676 10.069 22.0248L9.3738 23.9467H8.331V16.6437C8.331 16.2594 8.6786 15.875 9.0262 15.875H26.6379C26.9855 15.875 27.3331 16.2594 27.3331 16.6437V23.9467ZM10.4166 7.80336H25.2475C25.8268 7.80336 26.4061 8.44397 26.4061 9.08457V14.3375H25.0157C25.0157 13.5688 25.0157 12.5439 25.3633 11.9032C25.3806 11.8359 25.3852 11.7654 25.3769 11.696C25.3685 11.6266 25.3474 11.5598 25.3149 11.4998C25.2823 11.4398 25.239 11.3878 25.1875 11.347C25.1361 11.3062 25.0776 11.2775 25.0157 11.2626C23.1619 10.4939 20.3811 10.4939 18.4114 11.2626C18.3075 11.3184 18.2263 11.4149 18.1834 11.5334C18.1405 11.6518 18.1392 11.7837 18.1796 11.9032C18.2955 12.4157 18.4114 13.4407 18.2955 14.3375H16.9051C16.9051 13.5688 16.9051 12.5439 17.1368 11.9032C17.1541 11.8359 17.1587 11.7654 17.1504 11.696C17.142 11.6266 17.1209 11.5598 17.0884 11.4998C17.0558 11.4398 17.0124 11.3878 16.961 11.347C16.9096 11.3062 16.8511 11.2775 16.7892 11.2626C14.6802 10.5085 12.4098 10.5085 10.3007 11.2626C10.1969 11.3184 10.1156 11.4149 10.0728 11.5334C10.0299 11.6518 10.0286 11.7837 10.069 11.9032C10.1849 12.4157 10.3007 13.4407 10.1849 14.3375H9.25793V9.2127C9.25793 8.44397 9.72139 7.93148 10.4166 7.93148V7.80336ZM19.1066 12.0314C20.8165 11.5432 22.6106 11.5432 24.3205 12.0314C24.0888 12.8001 24.0888 13.6969 24.0888 14.3375H19.2224V12.0314H19.1066ZM10.9959 12.0314C12.618 11.5189 14.4719 11.5189 16.094 12.0314L15.9782 14.3375H11.1118V12.0314H10.9959ZM27.3331 14.5938V9.08457C27.3338 8.46055 27.1179 7.86003 26.7298 7.40702C26.3416 6.95401 25.811 6.68311 25.2475 6.65027H10.4166C9.85304 6.68311 9.32242 6.95401 8.9343 7.40702C8.54618 7.86003 8.33022 8.46055 8.331 9.08457V14.3375C7.90451 14.5034 7.5383 14.818 7.28753 15.2339C7.03676 15.6498 6.915 16.1446 6.9406 16.6437V24.7154C6.9406 25.0997 7.2882 25.4841 7.6358 25.4841H9.95313C10.0836 25.4679 10.2073 25.4112 10.3098 25.3205C10.4123 25.2298 10.4895 25.1088 10.5325 24.9716L11.2277 23.0498H24.3205L25.0157 24.9716C25.0587 25.1088 25.1359 25.2298 25.2384 25.3205C25.3409 25.4112 25.4646 25.4679 25.5951 25.4841H27.9124C28.0968 25.4841 28.2736 25.4031 28.404 25.259C28.5343 25.1148 28.6076 24.9193 28.6076 24.7154V16.6437C28.6076 15.6188 28.0283 14.85 27.2172 14.4657L27.3331 14.5938Z" fill="#262626"/>
<path fill-rule="evenodd" clip-rule="evenodd" d="M26.0586 18.6936H9.60558C9.48266 18.6936 9.36478 18.7476 9.27786 18.8437C9.19095 18.9398 9.14212 19.0701 9.14212 19.2061C9.14212 19.342 9.19095 19.4723 9.27786 19.5684C9.36478 19.6646 9.48266 19.7185 9.60558 19.7185H26.0586C26.1815 19.7185 26.2994 19.6646 26.3863 19.5684C26.4732 19.4723 26.5221 19.342 26.5221 19.2061C26.5221 19.0701 26.4732 18.9398 26.3863 18.8437C26.2994 18.7476 26.1815 18.6936 26.0586 18.6936ZM1.49494 6.65017L2.19014 1.52532H4.85507L5.55026 6.65017H1.49494ZM5.31853 0.50035H1.84254C1.77284 0.480405 1.69989 0.478693 1.62948 0.49535C1.55907 0.512007 1.49314 0.546574 1.43692 0.59631C1.38069 0.646047 1.33572 0.709584 1.30557 0.781884C1.27542 0.854184 1.26092 0.933258 1.26321 1.01284L0.452148 7.16266C0.452148 7.29858 0.500978 7.42893 0.587894 7.52504C0.674811 7.62115 0.792695 7.67514 0.915613 7.67514H3.11707V24.459H2.30601C2.18309 24.459 2.06521 24.513 1.97829 24.6091C1.89137 24.7053 1.84254 24.8356 1.84254 24.9715C1.84254 25.1074 1.89137 25.2378 1.97829 25.3339C2.06521 25.43 2.18309 25.484 2.30601 25.484H4.62333C4.74625 25.484 4.86414 25.43 4.95105 25.3339C5.03797 25.2378 5.0868 25.1074 5.0868 24.9715C5.0868 24.8356 5.03797 24.7053 4.95105 24.6091C4.86414 24.513 4.74625 24.459 4.62333 24.459H4.044V7.80327H6.1296C6.20156 7.8058 6.27307 7.78977 6.33845 7.75643C6.40384 7.72309 6.4613 7.67336 6.50628 7.61119C6.55126 7.54902 6.58252 7.47611 6.59758 7.39826C6.61264 7.3204 6.6111 7.23974 6.59306 7.16266L5.782 1.01284C5.782 0.876915 5.73317 0.746563 5.64625 0.650453C5.55933 0.554344 5.44145 0.50035 5.31853 0.50035Z" fill="#262626"/>
<path fill-rule="evenodd" clip-rule="evenodd" d="M5.31849 8.57202C5.23629 8.49925 5.13412 8.45959 5.02882 8.45959C4.92352 8.45959 4.82136 8.49925 4.73916 8.57202C4.69406 8.69529 4.69406 8.83312 4.73916 8.95639V9.34075L5.08676 9.46887H5.43435C5.49393 9.40313 5.53619 9.32069 5.5566 9.23041C5.57702 9.14012 5.57481 9.04539 5.55022 8.95639C5.5415 8.87673 5.51599 8.80045 5.47574 8.7337C5.43549 8.66694 5.38163 8.61156 5.31849 8.57202ZM5.08676 10.2376C4.96384 10.2376 4.84595 10.2916 4.75904 10.3877C4.67212 10.4838 4.62329 10.6142 4.62329 10.7501C4.62329 10.8514 4.65047 10.9505 4.7014 11.0348C4.75233 11.1191 4.82471 11.1848 4.9094 11.2236C4.99408 11.2623 5.08727 11.2725 5.17717 11.2527C5.26708 11.2329 5.34966 11.1841 5.41448 11.1125C5.47929 11.0408 5.52343 10.9495 5.54132 10.8501C5.5592 10.7507 5.55002 10.6476 5.51494 10.554C5.47986 10.4603 5.42046 10.3803 5.34424 10.324C5.26803 10.2677 5.17842 10.2376 5.08676 10.2376ZM5.43435 12.0313C5.39588 12.0259 5.35696 12.0259 5.31849 12.0313C5.23629 11.9585 5.13412 11.9189 5.02882 11.9189C4.92352 11.9189 4.82136 11.9585 4.73916 12.0313C4.73431 12.0738 4.73431 12.1169 4.73916 12.1594C4.71953 12.2435 4.71953 12.3316 4.73916 12.4157C4.73583 12.532 4.76844 12.6462 4.83162 12.7394C4.8948 12.8325 4.98478 12.8991 5.08676 12.9281L5.43435 12.8C5.47503 12.7221 5.49645 12.6337 5.49645 12.5438C5.49645 12.4538 5.47503 12.3654 5.43435 12.2875C5.46086 12.2046 5.46086 12.1142 5.43435 12.0313Z" fill="#262626"/>
<path fill-rule="evenodd" clip-rule="evenodd" d="M27.3331 23.9467H26.1744L25.5951 22.0248C25.5451 21.8676 25.4503 21.7327 25.3249 21.6402C25.1995 21.5478 25.0503 21.5029 24.8999 21.5123H10.7642C10.6137 21.5029 10.4646 21.5478 10.3392 21.6402C10.2138 21.7327 10.119 21.8676 10.069 22.0248L9.3738 23.9467H8.331V16.6437C8.331 16.2594 8.6786 15.875 9.0262 15.875H26.6379C26.9855 15.875 27.3331 16.2594 27.3331 16.6437V23.9467ZM10.4166 7.80336H25.2475C25.8268 7.80336 26.4061 8.44397 26.4061 9.08457V14.3375H25.0157C25.0157 13.5688 25.0157 12.5439 25.3633 11.9032C25.3806 11.8359 25.3852 11.7654 25.3769 11.696C25.3685 11.6266 25.3474 11.5598 25.3149 11.4998C25.2823 11.4398 25.239 11.3878 25.1875 11.347C25.1361 11.3062 25.0776 11.2775 25.0157 11.2626C23.1619 10.4939 20.3811 10.4939 18.4114 11.2626C18.3075 11.3184 18.2263 11.4149 18.1834 11.5334C18.1405 11.6518 18.1392 11.7837 18.1796 11.9032C18.2955 12.4157 18.4114 13.4407 18.2955 14.3375H16.9051C16.9051 13.5688 16.9051 12.5439 17.1368 11.9032C17.1541 11.8359 17.1587 11.7654 17.1504 11.696C17.142 11.6266 17.1209 11.5598 17.0884 11.4998C17.0558 11.4398 17.0124 11.3878 16.961 11.347C16.9096 11.3062 16.8511 11.2775 16.7892 11.2626C14.6802 10.5085 12.4098 10.5085 10.3007 11.2626C10.1969 11.3184 10.1156 11.4149 10.0728 11.5334C10.0299 11.6518 10.0286 11.7837 10.069 11.9032C10.1849 12.4157 10.3007 13.4407 10.1849 14.3375H9.25793V9.2127C9.25793 8.44397 9.72139 7.93148 10.4166 7.93148V7.80336ZM19.1066 12.0314C20.8165 11.5432 22.6106 11.5432 24.3205 12.0314C24.0888 12.8001 24.0888 13.6969 24.0888 14.3375H19.2224V12.0314H19.1066ZM10.9959 12.0314C12.618 11.5189 14.4719 11.5189 16.094 12.0314L15.9782 14.3375H11.1118V12.0314H10.9959ZM27.3331 14.5938V9.08457C27.3338 8.46055 27.1179 7.86003 26.7298 7.40702C26.3416 6.95401 25.811 6.68311 25.2475 6.65027H10.4166C9.85304 6.68311 9.32242 6.95401 8.9343 7.40702C8.54618 7.86003 8.33022 8.46055 8.331 9.08457V14.3375C7.90451 14.5034 7.5383 14.818 7.28753 15.2339C7.03676 15.6498 6.915 16.1446 6.9406 16.6437V24.7154C6.9406 25.0997 7.2882 25.4841 7.6358 25.4841H9.95313C10.0836 25.4679 10.2073 25.4112 10.3098 25.3205C10.4123 25.2298 10.4895 25.1088 10.5325 24.9716L11.2277 23.0498H24.3205L25.0157 24.9716C25.0587 25.1088 25.1359 25.2298 25.2384 25.3205C25.3409 25.4112 25.4646 25.4679 25.5951 25.4841H27.9124C28.0968 25.4841 28.2736 25.4031 28.404 25.259C28.5343 25.1148 28.6076 24.9193 28.6076 24.7154V16.6437C28.6076 15.6188 28.0283 14.85 27.2172 14.4657L27.3331 14.5938Z" stroke="#262626" stroke-width="0.2" mask="url(#path-1-outside-1_1203_1853)"/>
<path fill-rule="evenodd" clip-rule="evenodd" d="M26.0586 18.6936H9.60558C9.48266 18.6936 9.36478 18.7476 9.27786 18.8437C9.19095 18.9398 9.14212 19.0701 9.14212 19.2061C9.14212 19.342 9.19095 19.4723 9.27786 19.5684C9.36478 19.6646 9.48266 19.7185 9.60558 19.7185H26.0586C26.1815 19.7185 26.2994 19.6646 26.3863 19.5684C26.4732 19.4723 26.5221 19.342 26.5221 19.2061C26.5221 19.0701 26.4732 18.9398 26.3863 18.8437C26.2994 18.7476 26.1815 18.6936 26.0586 18.6936ZM1.49494 6.65017L2.19014 1.52532H4.85507L5.55026 6.65017H1.49494ZM5.31853 0.50035H1.84254C1.77284 0.480405 1.69989 0.478693 1.62948 0.49535C1.55907 0.512007 1.49314 0.546574 1.43692 0.59631C1.38069 0.646047 1.33572 0.709584 1.30557 0.781884C1.27542 0.854184 1.26092 0.933258 1.26321 1.01284L0.452148 7.16266C0.452148 7.29858 0.500978 7.42893 0.587894 7.52504C0.674811 7.62115 0.792695 7.67514 0.915613 7.67514H3.11707V24.459H2.30601C2.18309 24.459 2.06521 24.513 1.97829 24.6091C1.89137 24.7053 1.84254 24.8356 1.84254 24.9715C1.84254 25.1074 1.89137 25.2378 1.97829 25.3339C2.06521 25.43 2.18309 25.484 2.30601 25.484H4.62333C4.74625 25.484 4.86414 25.43 4.95105 25.3339C5.03797 25.2378 5.0868 25.1074 5.0868 24.9715C5.0868 24.8356 5.03797 24.7053 4.95105 24.6091C4.86414 24.513 4.74625 24.459 4.62333 24.459H4.044V7.80327H6.1296C6.20156 7.8058 6.27307 7.78977 6.33845 7.75643C6.40384 7.72309 6.4613 7.67336 6.50628 7.61119C6.55126 7.54902 6.58252 7.47611 6.59758 7.39826C6.61264 7.3204 6.6111 7.23974 6.59306 7.16266L5.782 1.01284C5.782 0.876915 5.73317 0.746563 5.64625 0.650453C5.55933 0.554344 5.44145 0.50035 5.31853 0.50035Z" stroke="#262626" stroke-width="0.2" mask="url(#path-1-outside-1_1203_1853)"/>
<path fill-rule="evenodd" clip-rule="evenodd" d="M5.31849 8.57202C5.23629 8.49925 5.13412 8.45959 5.02882 8.45959C4.92352 8.45959 4.82136 8.49925 4.73916 8.57202C4.69406 8.69529 4.69406 8.83312 4.73916 8.95639V9.34075L5.08676 9.46887H5.43435C5.49393 9.40313 5.53619 9.32069 5.5566 9.23041C5.57702 9.14012 5.57481 9.04539 5.55022 8.95639C5.5415 8.87673 5.51599 8.80045 5.47574 8.7337C5.43549 8.66694 5.38163 8.61156 5.31849 8.57202ZM5.08676 10.2376C4.96384 10.2376 4.84595 10.2916 4.75904 10.3877C4.67212 10.4838 4.62329 10.6142 4.62329 10.7501C4.62329 10.8514 4.65047 10.9505 4.7014 11.0348C4.75233 11.1191 4.82471 11.1848 4.9094 11.2236C4.99408 11.2623 5.08727 11.2725 5.17717 11.2527C5.26708 11.2329 5.34966 11.1841 5.41448 11.1125C5.47929 11.0408 5.52343 10.9495 5.54132 10.8501C5.5592 10.7507 5.55002 10.6476 5.51494 10.554C5.47986 10.4603 5.42046 10.3803 5.34424 10.324C5.26803 10.2677 5.17842 10.2376 5.08676 10.2376ZM5.43435 12.0313C5.39588 12.0259 5.35696 12.0259 5.31849 12.0313C5.23629 11.9585 5.13412 11.9189 5.02882 11.9189C4.92352 11.9189 4.82136 11.9585 4.73916 12.0313C4.73431 12.0738 4.73431 12.1169 4.73916 12.1594C4.71953 12.2435 4.71953 12.3316 4.73916 12.4157C4.73583 12.532 4.76844 12.6462 4.83162 12.7394C4.8948 12.8325 4.98478 12.8991 5.08676 12.9281L5.43435 12.8C5.47503 12.7221 5.49645 12.6337 5.49645 12.5438C5.49645 12.4538 5.47503 12.3654 5.43435 12.2875C5.46086 12.2046 5.46086 12.1142 5.43435 12.0313Z" stroke="#262626" stroke-width="0.2" mask="url(#path-1-outside-1_1203_1853)"/>
</g>
<defs>
<clipPath id="clip0_1203_1853">
<rect width="29" height="26" fill="white"/>
</clipPath>
</defs>
</svg>
