<svg fill="#fff" width="80px" height="50px" version="1.1" xmlns="http://www.w3.org/2000/svg" xmlns:xlink="http://www.w3.org/1999/xlink" x="0px" y="0px" viewBox="0 0 1000 1000" enable-background="new 0 0 1000 1000" xml:space="preserve">

<g><path d="M500,10.1C229.8,10.1,10,229.9,10,500c0,270.3,219.8,489.9,490,489.9c270.1,0,490-219.7,490-489.9C990,229.9,770.1,10.1,500,10.1z M500,949.1C252.3,949.1,50.9,747.6,50.9,500C50.9,252.4,252.3,50.9,500,50.9c247.7,0,449.2,201.4,449.2,449.1C949.2,747.7,747.7,949.1,500,949.1z"></path><path d="M732.9,611.8c-10.5-3.7-22.2,1.6-26.1,12.4c-31.2,86.8-114.3,145.4-206.7,145.4c-92.8,0-175.9-58.7-207-146.2c-3.7-10.6-15.5-16.2-26.1-12.4c-10.6,3.7-16.2,15.5-12.4,25.9C291.4,740.8,390,810.5,500.1,810.5c109.6,0,208.1-69.2,245.2-172.5C749.1,627.4,743.5,615.6,732.9,611.8z"></path><path d="M310.4,333.8c41,0,74.5,40.4,74.5,90c0,11.3,9.1,20.4,20.4,20.4c11.2,0,20.4-9.1,20.4-20.4c0-72.2-51.7-130.9-115.3-130.9c-63.6,0-115.2,58.7-115.2,130.9c0,11.3,9.2,20.4,20.4,20.4s20.5-9.1,20.5-20.4C236,374.1,269.3,333.8,310.4,333.8z"></path><path d="M689.7,292.8c-63.6,0-115.4,58.7-115.4,130.9c0,11.3,9.3,20.4,20.5,20.4c11.2,0,20.4-9.1,20.4-20.4c0-49.6,33.4-90,74.5-90c41,0,74.3,40.4,74.3,90c0,11.3,9.2,20.4,20.4,20.4s20.4-9.1,20.4-20.4C804.9,351.5,753.2,292.8,689.7,292.8z"></path></g>
</svg>