<svg width="52" height="52" viewBox="0 0 52 52" fill="none" xmlns="http://www.w3.org/2000/svg">
<path fill-rule="evenodd" clip-rule="evenodd" d="M27.2758 0C30.7527 0 33.5813 2.80422 33.5813 6.25117V18.9195H34.714C38.0482 18.9195 40.7608 21.6088 40.7608 24.9142V31.7856L48.3928 24.3842C48.5447 24.2369 48.7506 24.1575 48.9623 24.1614C49.1746 24.1662 49.376 24.2557 49.521 24.4096L51.788 26.8185C52.0799 27.1287 52.0691 27.6129 51.7637 27.91L40.7608 38.6118V46.0053C40.7608 49.3107 38.0482 52 34.714 52H6.04678C2.7126 52 0 49.3107 0 46.0053V24.9142C0 21.6088 2.7126 18.9195 6.04678 18.9195H7.17944V6.25117C7.17944 2.80422 10.0081 0 13.485 0H27.2758ZM34.714 20.4832H6.04678C3.58239 20.4832 1.57739 22.4711 1.57739 24.9142V46.0053C1.57739 48.4484 3.58239 50.4363 6.04678 50.4363H34.714C37.1784 50.4363 39.1834 48.4484 39.1834 46.0053V40.1461L34.5957 44.6082C34.4423 44.7573 34.2428 44.8319 34.0434 44.8319C33.8439 44.8319 33.6444 44.7573 33.491 44.6082L25.572 36.9059C25.2714 36.6136 25.2556 36.1386 25.5359 35.8271L27.7508 33.3668C27.894 33.2077 28.0966 33.1134 28.3116 33.1059C28.5256 33.0989 28.7353 33.1783 28.8895 33.3271L34.0421 38.3014L39.1834 33.3154V24.9142C39.1834 22.4711 37.1784 20.4832 34.714 20.4832ZM20.1886 27.5088C22.513 27.5088 24.404 29.3838 24.404 31.6881C24.404 33.132 23.6417 34.472 22.4254 35.2295L22.4404 39.8693V43.5497C22.4404 43.7571 22.3572 43.9559 22.2093 44.1026C22.0614 44.2491 21.8609 44.3314 21.6517 44.3314L18.7418 44.3308C18.3063 44.3307 17.9532 43.9808 17.9532 43.549V35.2308C16.7361 34.4733 15.9732 33.1326 15.9732 31.6881C15.9732 29.3838 17.8643 27.5088 20.1886 27.5088ZM20.1886 29.0729C18.7341 29.0729 17.5506 30.2461 17.5506 31.6881C17.5506 32.7001 18.1492 33.6306 19.0754 34.059C19.3532 34.1874 19.5307 34.4639 19.5307 34.7677V42.7673L20.8629 42.7676V39.8718L20.8465 34.7702C20.8456 34.4655 21.0232 34.1878 21.3018 34.059C22.228 33.6306 22.8266 32.7001 22.8266 31.6881C22.8266 30.2461 21.6432 29.0729 20.1886 29.0729ZM27.2758 1.56375H13.485C10.8779 1.56375 8.75683 3.66652 8.75683 6.25117V18.9195H32.0039V6.25117C32.0039 3.66652 29.8829 1.56375 27.2758 1.56375Z" fill="#262626"/>
</svg>
