<svg width="63" height="58" viewBox="0 0 63 58" fill="none" xmlns="http://www.w3.org/2000/svg">
<path fill-rule="evenodd" clip-rule="evenodd" d="M52.4368 52.7731H5.02168C4.61463 52.7731 4.28516 52.4458 4.28516 52.0415V25.432C4.28516 25.2018 4.39416 24.9848 4.57976 24.8468C4.76537 24.7088 5.00498 24.6653 5.2279 24.7297C5.67178 24.8585 6.12498 24.9238 6.57426 24.9238C9.2218 24.9238 11.3759 22.7842 11.3759 20.1539C11.3759 19.7496 11.7053 19.4224 12.1124 19.4224C12.5194 19.4224 12.8489 19.7496 12.8489 20.1539C12.8489 22.7842 15.0035 24.9238 17.652 24.9238C20.2995 24.9238 22.4531 22.7842 22.4531 20.1539C22.4531 19.7496 22.7826 19.4224 23.1896 19.4224C23.5967 19.4224 23.9262 19.7496 23.9262 20.1539C23.9262 22.7842 26.0807 24.9238 28.7293 24.9238C31.3768 24.9238 33.5309 22.7842 33.5309 20.1539C33.5309 19.7496 33.8603 19.4224 34.2674 19.4224C34.6744 19.4224 35.0039 19.7496 35.0039 20.1539C35.0039 22.7842 37.158 24.9238 39.806 24.9238C42.4545 24.9238 44.6086 22.7842 44.6086 20.1539C44.6086 19.7496 44.9381 19.4224 45.3451 19.4224C45.7522 19.4224 46.0816 19.7496 46.0816 20.1539C46.0816 22.7842 48.2357 24.9238 50.8833 24.9238C51.333 24.9238 51.7857 24.8585 52.2296 24.7302C52.452 24.6649 52.6922 24.7088 52.8778 24.8473C53.0634 24.9853 53.1724 25.2023 53.1724 25.4325V52.042C53.1733 52.4458 52.8434 52.7731 52.4368 52.7731ZM5.7577 51.3099H51.6998V26.3329C51.4283 26.3689 51.1558 26.387 50.8838 26.387C48.4886 26.387 46.4028 25.0472 45.3456 23.0822C44.2885 25.0472 42.2022 26.387 39.8065 26.387C37.4113 26.387 35.325 25.0472 34.2679 23.0822C33.2107 25.0472 31.1249 26.387 28.7297 26.387C26.3341 26.387 24.2478 25.0472 23.1901 23.0822C22.1335 25.0472 20.0472 26.387 17.6525 26.387C15.2568 26.387 13.17 25.0472 12.1129 23.0822C11.0557 25.0472 8.96991 26.387 6.57475 26.387C6.30273 26.387 6.03022 26.3689 5.75869 26.3329V51.3099H5.7577Z" fill="#262626" stroke="#262626" stroke-width="0.3"/>
<path fill-rule="evenodd" clip-rule="evenodd" d="M6.57348 26.387C3.11332 26.387 0.29834 23.5909 0.29834 20.1539C0.29834 19.7496 0.62781 19.4224 1.03486 19.4224H12.1121C12.5192 19.4224 12.8486 19.7496 12.8486 20.1539C12.8486 23.5909 10.0337 26.387 6.57348 26.387ZM1.82784 20.8855C2.18334 23.17 4.17636 24.9238 6.57398 24.9238C8.9711 24.9238 10.9641 23.1695 11.3196 20.8855H1.82784Z" fill="#262626" stroke="#262626" stroke-width="0.3"/>
<path fill-rule="evenodd" clip-rule="evenodd" d="M17.6516 26.387C14.191 26.387 11.3755 23.5909 11.3755 20.1539C11.3755 19.7496 11.705 19.4224 12.112 19.4224H23.1898C23.5968 19.4224 23.9263 19.7496 23.9263 20.1539C23.9258 23.5909 21.1113 26.387 17.6516 26.387ZM12.9045 20.8855C13.26 23.17 15.2535 24.9238 17.6511 24.9238C20.0482 24.9238 22.0408 23.1695 22.3963 20.8855H12.9045Z" fill="#262626" stroke="#262626" stroke-width="0.3"/>
<path fill-rule="evenodd" clip-rule="evenodd" d="M28.729 26.387C25.2683 26.387 22.4529 23.5909 22.4529 20.1539C22.4529 19.7496 22.7824 19.4224 23.1894 19.4224H34.2676C34.6747 19.4224 35.0042 19.7496 35.0042 20.1539C35.0042 23.5909 32.1892 26.387 28.729 26.387ZM23.9824 20.8855C24.3379 23.17 26.3314 24.9238 28.729 24.9238C31.1261 24.9238 33.1192 23.1695 33.4746 20.8855H23.9824Z" fill="#262626" stroke="#262626" stroke-width="0.3"/>
<path fill-rule="evenodd" clip-rule="evenodd" d="M39.8064 26.387C36.3462 26.387 33.5312 23.5909 33.5312 20.1539C33.5312 19.7496 33.8607 19.4224 34.2678 19.4224H45.346C45.753 19.4224 46.0825 19.7496 46.0825 20.1539C46.082 23.5909 43.2671 26.387 39.8064 26.387ZM35.0603 20.8855C35.4158 23.17 37.4088 24.9238 39.8064 24.9238C42.204 24.9238 44.197 23.1695 44.553 20.8855H35.0603Z" fill="#262626" stroke="#262626" stroke-width="0.3"/>
<path fill-rule="evenodd" clip-rule="evenodd" d="M50.8833 26.387C47.4236 26.387 44.6086 23.5909 44.6086 20.1539C44.6086 19.7496 44.9381 19.4224 45.3452 19.4224H56.4219C56.829 19.4224 57.1584 19.7496 57.1584 20.1539C57.1584 23.5909 54.3435 26.387 50.8833 26.387ZM46.1381 20.8855C46.4936 23.17 48.4862 24.9238 50.8838 24.9238C53.2814 24.9238 55.2739 23.1695 55.6294 20.8855H46.1381Z" fill="#262626" stroke="#262626" stroke-width="0.3"/>
<path fill-rule="evenodd" clip-rule="evenodd" d="M23.1899 20.8859H12.1122C11.8809 20.8859 11.6629 20.7781 11.5239 20.5947C11.3845 20.4113 11.3403 20.1738 11.4041 19.9529L16.7498 1.4093C16.8401 1.09521 17.1288 0.87915 17.4578 0.87915H24.6477C24.853 0.87915 25.0489 0.964014 25.1883 1.11374C25.3278 1.26347 25.398 1.46393 25.3823 1.6673L23.9245 20.2109C23.8945 20.5923 23.5744 20.8859 23.1899 20.8859ZM13.0893 19.4227H22.5089L23.8513 2.34231H18.0131L13.0893 19.4227Z" fill="#262626" stroke="#262626" stroke-width="0.3"/>
<path fill-rule="evenodd" clip-rule="evenodd" d="M56.4223 20.8859H45.3455C45.017 20.8859 44.7278 20.6698 44.6375 20.3557L39.2923 1.81216C39.2285 1.59122 39.2727 1.3537 39.4121 1.17032C39.5511 0.986936 39.7691 0.87915 40.0003 0.87915H47.1907C47.4706 0.87915 47.7269 1.03717 47.8511 1.2864L57.0827 19.8305C57.1956 20.0572 57.1824 20.326 57.0483 20.5411C56.9133 20.7552 56.6766 20.8859 56.4223 20.8859ZM45.9008 19.4227H55.2365L46.7336 2.34231H40.9779L45.9008 19.4227Z" fill="#262626" stroke="#262626" stroke-width="0.3"/>
<path fill-rule="evenodd" clip-rule="evenodd" d="M12.1125 20.8856H1.03529C0.78045 20.8856 0.544273 20.7549 0.409736 20.5403C0.275689 20.3252 0.262432 20.057 0.375365 19.8297L9.6069 1.28566C9.73112 1.03644 9.98694 0.878418 10.2673 0.878418H17.4587C17.69 0.878418 17.908 0.986204 18.0469 1.16959C18.1864 1.35297 18.2306 1.59049 18.1667 1.81142L12.8211 20.355C12.7297 20.6696 12.441 20.8856 12.1125 20.8856ZM2.22108 19.4225H11.5572L16.4811 2.34206H10.7244L2.22108 19.4225Z" fill="#262626" stroke="#262626" stroke-width="0.3"/>
<path fill-rule="evenodd" clip-rule="evenodd" d="M34.2678 20.8856H23.1896C22.9844 20.8856 22.7884 20.8008 22.649 20.651C22.5096 20.5013 22.4393 20.3009 22.455 20.0975L23.9129 1.55391C23.9428 1.173 24.2625 0.879395 24.6474 0.879395H32.8105C33.195 0.879395 33.5151 1.17349 33.5451 1.55391L35.0024 20.0975C35.0181 20.3009 34.9484 20.5013 34.8084 20.651C34.669 20.8008 34.4731 20.8856 34.2678 20.8856ZM23.986 19.4225H33.4714L32.129 2.34206H25.3285L23.986 19.4225Z" fill="#262626" stroke="#262626" stroke-width="0.3"/>
<path fill-rule="evenodd" clip-rule="evenodd" d="M45.3455 20.8856H34.2673C33.8828 20.8856 33.5627 20.5915 33.5328 20.2111L32.0754 1.66755C32.0597 1.46417 32.1294 1.26372 32.2694 1.11399C32.4088 0.964258 32.6047 0.879395 32.81 0.879395H40.0004C40.3289 0.879395 40.6181 1.09545 40.7084 1.40955L46.0536 19.9531C46.1174 20.1741 46.0732 20.4116 45.9338 20.595C45.7948 20.7778 45.5768 20.8856 45.3455 20.8856ZM34.9488 19.4225H44.3684L39.445 2.34206H33.6064L34.9488 19.4225Z" fill="#262626" stroke="#262626" stroke-width="0.3"/>
<path fill-rule="evenodd" clip-rule="evenodd" d="M24.7962 52.7733H12.4958C12.0887 52.7733 11.7593 52.446 11.7593 52.0417V31.5311C11.7593 31.1268 12.0887 30.7996 12.4958 30.7996H24.7962C25.2032 30.7996 25.5327 31.1268 25.5327 31.5311V52.0417C25.5327 52.446 25.2027 52.7733 24.7962 52.7733ZM13.2323 51.3101H24.0596V32.2627H13.2323V51.3101Z" fill="#262626" stroke="#262626" stroke-width="0.3"/>
<path fill-rule="evenodd" clip-rule="evenodd" d="M44.9619 45.7925H29.1135C28.7064 45.7925 28.377 45.4648 28.377 45.061V31.5311C28.377 31.1268 28.7064 30.7996 29.1135 30.7996H44.9619C45.3689 30.7996 45.6984 31.1268 45.6984 31.5311V45.061C45.6984 45.4653 45.3685 45.7925 44.9619 45.7925ZM29.85 44.3294H44.2254V32.2627H29.85V44.3294Z" fill="#262626" stroke="#262626" stroke-width="0.3"/>
<path fill-rule="evenodd" clip-rule="evenodd" d="M0.852783 51.3101H56.6044V52.7732H0.852783V51.3101Z" fill="#262626" stroke="#262626" stroke-width="0.3"/>
<path fill-rule="evenodd" clip-rule="evenodd" d="M19.855 41.489H22.3719V42.9522H19.855V41.489Z" fill="#262626" stroke="#262626" stroke-width="0.3"/>
<path fill-rule="evenodd" clip-rule="evenodd" d="M33.4448 38.0042L37.4956 33.9806L38.5371 35.0152L34.4864 39.0387L33.4448 38.0042Z" fill="#262626" stroke="#262626" stroke-width="0.3"/>
<path fill-rule="evenodd" clip-rule="evenodd" d="M33.5139 41.5474L40.7206 34.389L41.7622 35.4236L34.5555 42.582L33.5139 41.5474Z" fill="#262626" stroke="#262626" stroke-width="0.3"/>
</svg>
