<svg width="23" height="26" viewBox="0 0 23 26" fill="none" xmlns="http://www.w3.org/2000/svg">
<g clip-path="url(#clip0_1203_1867)">
<mask id="path-1-outside-1_1203_1867" maskUnits="userSpaceOnUse" x="-0.719849" y="-0.557495" width="24" height="27" fill="black">
<rect fill="white" x="-0.719849" y="-0.557495" width="24" height="27"/>
<path fill-rule="evenodd" clip-rule="evenodd" d="M6.45964 24.648C6.3294 24.6947 6.18939 24.7103 6.05157 24.6934C5.91375 24.6765 5.78221 24.6277 5.66815 24.551C5.5541 24.4744 5.46093 24.3723 5.39659 24.2533C5.33224 24.1344 5.29864 24.0022 5.29864 23.868C5.29864 23.7338 5.33224 23.6016 5.39659 23.4826C5.46093 23.3637 5.5541 23.2616 5.66815 23.1849C5.78221 23.1083 5.91375 23.0595 6.05157 23.0426C6.18939 23.0257 6.3294 23.0413 6.45964 23.088C6.62447 23.1471 6.76662 23.2535 6.86701 23.3929C6.9674 23.5324 7.02121 23.6981 7.02121 23.868C7.02121 24.0378 6.9674 24.2036 6.86701 24.343C6.76662 24.4825 6.62447 24.5889 6.45964 24.648ZM6.45964 22.256C5.38303 22.256 4.73707 22.984 4.73707 23.816C4.85943 24.1344 5.07976 24.4091 5.36844 24.603C5.65712 24.797 6.00034 24.9009 6.35198 24.9009C6.70361 24.9009 7.04683 24.797 7.33551 24.603C7.62419 24.4091 7.84452 24.1344 7.96688 23.816C7.96688 22.984 7.32092 22.256 6.35198 22.256M8.28986 20.072H7.53624C7.25071 20.072 6.97687 19.9624 6.77497 19.7674C6.57306 19.5723 6.45964 19.3078 6.45964 19.032V14.04C6.45964 13.52 6.99794 13 7.53624 13H8.28986V20.072ZM12.5963 12.272H9.90477V11.856C9.90477 11.544 10.1201 11.336 10.4431 11.336H12.058C12.381 11.336 12.5963 11.544 12.5963 11.856V12.272ZM14.2112 13.104H14.9648C15.5031 13.104 16.0414 13.52 16.0414 14.144V19.032C16.0414 19.3078 15.928 19.5723 15.7261 19.7674C15.5242 19.9624 15.2503 20.072 14.9648 20.072H14.2112V13.104ZM9.15115 20.072H13.4576V13.104H9.15115V20.072ZM3.76813 8.63198C3.79633 7.1882 4.40993 5.81278 5.47697 4.80146C6.54401 3.79015 7.97927 3.22372 9.47413 3.22398H13.3499C14.8632 3.22398 16.3146 3.8047 17.3847 4.8384C18.4547 5.87211 19.0559 7.2741 19.0559 8.73598V20.176H16.5797C16.795 19.76 16.9027 19.448 16.9027 19.032V14.04C16.9027 13 16.0414 12.272 14.9648 12.272H13.4576V11.856C13.4576 11.024 12.8116 10.504 12.058 10.504H10.4431C9.68945 10.504 9.04349 11.024 9.04349 11.856V12.272H7.53624C6.45964 12.272 5.70601 13.104 5.70601 14.04V19.032C5.70601 19.448 5.70601 19.76 6.02899 20.072H3.87579V8.63198H3.76813ZM21.6398 20.072H20.4555V8.63198C20.3992 6.85727 19.6223 5.17521 18.2928 3.94924C16.9632 2.72327 15.1877 2.05183 13.3499 2.07998H11.8427C11.9975 2.04128 12.1381 1.96172 12.2487 1.8502C12.3593 1.73869 12.4357 1.59962 12.4691 1.44857C12.5026 1.29752 12.4918 1.14046 12.4381 0.994971C12.3844 0.849484 12.2898 0.721317 12.1649 0.624823C12.0401 0.528328 11.8899 0.467317 11.7311 0.448622C11.5724 0.429926 11.4114 0.454285 11.2662 0.51897C11.121 0.583654 10.9973 0.686111 10.909 0.814866C10.8206 0.94362 10.7712 1.09359 10.7661 1.24798C10.7439 1.41232 10.773 1.57931 10.8498 1.72754C10.9265 1.87578 11.0473 1.9985 11.1967 2.07998H9.47413C7.61816 2.07998 5.83821 2.79219 4.52585 4.05994C3.21348 5.32768 2.4762 7.04711 2.4762 8.83998V20.28H1.18427C1.08597 20.2386 0.97855 20.2215 0.871694 20.2302C0.764839 20.2389 0.661913 20.2732 0.572203 20.33C0.482494 20.3867 0.408822 20.4642 0.357836 20.5553C0.306849 20.6464 0.280151 20.7484 0.280151 20.852C0.280151 20.9556 0.306849 21.0575 0.357836 21.1487C0.408822 21.2398 0.482494 21.3172 0.572203 21.374C0.661913 21.4307 0.764839 21.465 0.871694 21.4738C0.97855 21.4825 1.08597 21.4654 1.18427 21.424H21.6398C21.8111 21.424 21.9754 21.3582 22.0965 21.2412C22.2177 21.1242 22.2857 20.9655 22.2857 20.8C22.2857 20.6345 22.2177 20.4758 22.0965 20.3587C21.9754 20.2417 21.8111 20.176 21.6398 20.176V20.072ZM19.0559 24.648C18.9257 24.6947 18.7857 24.7103 18.6478 24.6934C18.51 24.6765 18.3785 24.6277 18.2644 24.551C18.1504 24.4744 18.0572 24.3723 17.9929 24.2533C17.9285 24.1344 17.8949 24.0022 17.8949 23.868C17.8949 23.7338 17.9285 23.6016 17.9929 23.4826C18.0572 23.3637 18.1504 23.2616 18.2644 23.1849C18.3785 23.1083 18.51 23.0595 18.6478 23.0426C18.7857 23.0257 18.9257 23.0413 19.0559 23.088C19.2207 23.1471 19.3629 23.2535 19.4633 23.3929C19.5637 23.5324 19.6175 23.6981 19.6175 23.868C19.6175 24.0378 19.5637 24.2036 19.4633 24.343C19.3629 24.4825 19.2207 24.5889 19.0559 24.648ZM19.0559 22.256C18.087 22.256 17.3333 22.984 17.3333 23.816C17.4282 24.1739 17.6437 24.4912 17.9458 24.7177C18.248 24.9443 18.6196 25.0672 19.0021 25.0672C19.3846 25.0672 19.7562 24.9443 20.0583 24.7177C20.3605 24.4912 20.5759 24.1739 20.6708 23.816C20.6708 22.984 19.9172 22.256 19.0559 22.256ZM3.66047 23.088C3.77468 23.088 3.88421 23.0441 3.96497 22.9661C4.04574 22.8881 4.09111 22.7823 4.09111 22.672C4.09111 22.5616 4.04574 22.4558 3.96497 22.3778C3.88421 22.2998 3.77468 22.256 3.66047 22.256C3.33081 22.3742 3.04649 22.587 2.84572 22.8659C2.64494 23.1448 2.53733 23.4763 2.53733 23.816C2.53733 24.1557 2.64494 24.4872 2.84572 24.7661C3.04649 25.0449 3.33081 25.2578 3.66047 25.376C3.72778 25.34 3.78388 25.2873 3.82295 25.2233C3.86202 25.1592 3.88262 25.0863 3.88262 25.012C3.88262 24.9377 3.86202 24.8647 3.82295 24.8007C3.78388 24.7367 3.72778 24.684 3.66047 24.648C3.49564 24.5889 3.35348 24.4825 3.25309 24.343C3.1527 24.2036 3.0989 24.0378 3.0989 23.868C3.0989 23.6981 3.1527 23.5324 3.25309 23.3929C3.35348 23.2535 3.49564 23.1471 3.66047 23.088ZM16.2567 23.088C16.371 23.088 16.4805 23.0441 16.5612 22.9661C16.642 22.8881 16.6874 22.7823 16.6874 22.672C16.6874 22.5616 16.642 22.4558 16.5612 22.3778C16.4805 22.2998 16.371 22.256 16.2567 22.256C15.9271 22.3742 15.6428 22.587 15.442 22.8659C15.2412 23.1448 15.1336 23.4763 15.1336 23.816C15.1336 24.1557 15.2412 24.4872 15.442 24.7661C15.6428 25.0449 15.9271 25.2578 16.2567 25.376C16.324 25.34 16.3802 25.2873 16.4192 25.2233C16.4583 25.1592 16.4789 25.0863 16.4789 25.012C16.4789 24.9377 16.4583 24.8647 16.4192 24.8007C16.3802 24.7367 16.324 24.684 16.2567 24.648C16.0919 24.5889 15.9498 24.4825 15.8494 24.343C15.749 24.2036 15.6952 24.0378 15.6952 23.868C15.6952 23.6981 15.749 23.5324 15.8494 23.3929C15.9498 23.2535 16.0919 23.1471 16.2567 23.088Z"/>
</mask>
<path fill-rule="evenodd" clip-rule="evenodd" d="M6.45964 24.648C6.3294 24.6947 6.18939 24.7103 6.05157 24.6934C5.91375 24.6765 5.78221 24.6277 5.66815 24.551C5.5541 24.4744 5.46093 24.3723 5.39659 24.2533C5.33224 24.1344 5.29864 24.0022 5.29864 23.868C5.29864 23.7338 5.33224 23.6016 5.39659 23.4826C5.46093 23.3637 5.5541 23.2616 5.66815 23.1849C5.78221 23.1083 5.91375 23.0595 6.05157 23.0426C6.18939 23.0257 6.3294 23.0413 6.45964 23.088C6.62447 23.1471 6.76662 23.2535 6.86701 23.3929C6.9674 23.5324 7.02121 23.6981 7.02121 23.868C7.02121 24.0378 6.9674 24.2036 6.86701 24.343C6.76662 24.4825 6.62447 24.5889 6.45964 24.648ZM6.45964 22.256C5.38303 22.256 4.73707 22.984 4.73707 23.816C4.85943 24.1344 5.07976 24.4091 5.36844 24.603C5.65712 24.797 6.00034 24.9009 6.35198 24.9009C6.70361 24.9009 7.04683 24.797 7.33551 24.603C7.62419 24.4091 7.84452 24.1344 7.96688 23.816C7.96688 22.984 7.32092 22.256 6.35198 22.256M8.28986 20.072H7.53624C7.25071 20.072 6.97687 19.9624 6.77497 19.7674C6.57306 19.5723 6.45964 19.3078 6.45964 19.032V14.04C6.45964 13.52 6.99794 13 7.53624 13H8.28986V20.072ZM12.5963 12.272H9.90477V11.856C9.90477 11.544 10.1201 11.336 10.4431 11.336H12.058C12.381 11.336 12.5963 11.544 12.5963 11.856V12.272ZM14.2112 13.104H14.9648C15.5031 13.104 16.0414 13.52 16.0414 14.144V19.032C16.0414 19.3078 15.928 19.5723 15.7261 19.7674C15.5242 19.9624 15.2503 20.072 14.9648 20.072H14.2112V13.104ZM9.15115 20.072H13.4576V13.104H9.15115V20.072ZM3.76813 8.63198C3.79633 7.1882 4.40993 5.81278 5.47697 4.80146C6.54401 3.79015 7.97927 3.22372 9.47413 3.22398H13.3499C14.8632 3.22398 16.3146 3.8047 17.3847 4.8384C18.4547 5.87211 19.0559 7.2741 19.0559 8.73598V20.176H16.5797C16.795 19.76 16.9027 19.448 16.9027 19.032V14.04C16.9027 13 16.0414 12.272 14.9648 12.272H13.4576V11.856C13.4576 11.024 12.8116 10.504 12.058 10.504H10.4431C9.68945 10.504 9.04349 11.024 9.04349 11.856V12.272H7.53624C6.45964 12.272 5.70601 13.104 5.70601 14.04V19.032C5.70601 19.448 5.70601 19.76 6.02899 20.072H3.87579V8.63198H3.76813ZM21.6398 20.072H20.4555V8.63198C20.3992 6.85727 19.6223 5.17521 18.2928 3.94924C16.9632 2.72327 15.1877 2.05183 13.3499 2.07998H11.8427C11.9975 2.04128 12.1381 1.96172 12.2487 1.8502C12.3593 1.73869 12.4357 1.59962 12.4691 1.44857C12.5026 1.29752 12.4918 1.14046 12.4381 0.994971C12.3844 0.849484 12.2898 0.721317 12.1649 0.624823C12.0401 0.528328 11.8899 0.467317 11.7311 0.448622C11.5724 0.429926 11.4114 0.454285 11.2662 0.51897C11.121 0.583654 10.9973 0.686111 10.909 0.814866C10.8206 0.94362 10.7712 1.09359 10.7661 1.24798C10.7439 1.41232 10.773 1.57931 10.8498 1.72754C10.9265 1.87578 11.0473 1.9985 11.1967 2.07998H9.47413C7.61816 2.07998 5.83821 2.79219 4.52585 4.05994C3.21348 5.32768 2.4762 7.04711 2.4762 8.83998V20.28H1.18427C1.08597 20.2386 0.97855 20.2215 0.871694 20.2302C0.764839 20.2389 0.661913 20.2732 0.572203 20.33C0.482494 20.3867 0.408822 20.4642 0.357836 20.5553C0.306849 20.6464 0.280151 20.7484 0.280151 20.852C0.280151 20.9556 0.306849 21.0575 0.357836 21.1487C0.408822 21.2398 0.482494 21.3172 0.572203 21.374C0.661913 21.4307 0.764839 21.465 0.871694 21.4738C0.97855 21.4825 1.08597 21.4654 1.18427 21.424H21.6398C21.8111 21.424 21.9754 21.3582 22.0965 21.2412C22.2177 21.1242 22.2857 20.9655 22.2857 20.8C22.2857 20.6345 22.2177 20.4758 22.0965 20.3587C21.9754 20.2417 21.8111 20.176 21.6398 20.176V20.072ZM19.0559 24.648C18.9257 24.6947 18.7857 24.7103 18.6478 24.6934C18.51 24.6765 18.3785 24.6277 18.2644 24.551C18.1504 24.4744 18.0572 24.3723 17.9929 24.2533C17.9285 24.1344 17.8949 24.0022 17.8949 23.868C17.8949 23.7338 17.9285 23.6016 17.9929 23.4826C18.0572 23.3637 18.1504 23.2616 18.2644 23.1849C18.3785 23.1083 18.51 23.0595 18.6478 23.0426C18.7857 23.0257 18.9257 23.0413 19.0559 23.088C19.2207 23.1471 19.3629 23.2535 19.4633 23.3929C19.5637 23.5324 19.6175 23.6981 19.6175 23.868C19.6175 24.0378 19.5637 24.2036 19.4633 24.343C19.3629 24.4825 19.2207 24.5889 19.0559 24.648ZM19.0559 22.256C18.087 22.256 17.3333 22.984 17.3333 23.816C17.4282 24.1739 17.6437 24.4912 17.9458 24.7177C18.248 24.9443 18.6196 25.0672 19.0021 25.0672C19.3846 25.0672 19.7562 24.9443 20.0583 24.7177C20.3605 24.4912 20.5759 24.1739 20.6708 23.816C20.6708 22.984 19.9172 22.256 19.0559 22.256ZM3.66047 23.088C3.77468 23.088 3.88421 23.0441 3.96497 22.9661C4.04574 22.8881 4.09111 22.7823 4.09111 22.672C4.09111 22.5616 4.04574 22.4558 3.96497 22.3778C3.88421 22.2998 3.77468 22.256 3.66047 22.256C3.33081 22.3742 3.04649 22.587 2.84572 22.8659C2.64494 23.1448 2.53733 23.4763 2.53733 23.816C2.53733 24.1557 2.64494 24.4872 2.84572 24.7661C3.04649 25.0449 3.33081 25.2578 3.66047 25.376C3.72778 25.34 3.78388 25.2873 3.82295 25.2233C3.86202 25.1592 3.88262 25.0863 3.88262 25.012C3.88262 24.9377 3.86202 24.8647 3.82295 24.8007C3.78388 24.7367 3.72778 24.684 3.66047 24.648C3.49564 24.5889 3.35348 24.4825 3.25309 24.343C3.1527 24.2036 3.0989 24.0378 3.0989 23.868C3.0989 23.6981 3.1527 23.5324 3.25309 23.3929C3.35348 23.2535 3.49564 23.1471 3.66047 23.088ZM16.2567 23.088C16.371 23.088 16.4805 23.0441 16.5612 22.9661C16.642 22.8881 16.6874 22.7823 16.6874 22.672C16.6874 22.5616 16.642 22.4558 16.5612 22.3778C16.4805 22.2998 16.371 22.256 16.2567 22.256C15.9271 22.3742 15.6428 22.587 15.442 22.8659C15.2412 23.1448 15.1336 23.4763 15.1336 23.816C15.1336 24.1557 15.2412 24.4872 15.442 24.7661C15.6428 25.0449 15.9271 25.2578 16.2567 25.376C16.324 25.34 16.3802 25.2873 16.4192 25.2233C16.4583 25.1592 16.4789 25.0863 16.4789 25.012C16.4789 24.9377 16.4583 24.8647 16.4192 24.8007C16.3802 24.7367 16.324 24.684 16.2567 24.648C16.0919 24.5889 15.9498 24.4825 15.8494 24.343C15.749 24.2036 15.6952 24.0378 15.6952 23.868C15.6952 23.6981 15.749 23.5324 15.8494 23.3929C15.9498 23.2535 16.0919 23.1471 16.2567 23.088Z" fill="#262626"/>
<path d="M6.45964 24.648L6.42588 24.5538L6.45964 24.648ZM5.29864 23.868H5.19864H5.29864ZM6.45964 23.088L6.42588 23.1821L6.45964 23.088ZM7.02121 23.868H6.92121H7.02121ZM4.73707 23.816H4.63707V23.8345L4.64372 23.8518L4.73707 23.816ZM7.96688 23.816L8.06023 23.8518L8.06688 23.8345V23.816H7.96688ZM8.28986 20.072V20.172H8.38986V20.072H8.28986ZM8.28986 13H8.38986V12.9H8.28986V13ZM12.5963 12.272V12.372H12.6963V12.272H12.5963ZM9.90477 12.272H9.80477V12.372H9.90477V12.272ZM14.2112 13.104V13.004H14.1112V13.104H14.2112ZM14.2112 20.072H14.1112V20.172H14.2112V20.072ZM9.15115 20.072H9.05115V20.172H9.15115V20.072ZM13.4576 20.072V20.172H13.5576V20.072H13.4576ZM13.4576 13.104H13.5576V13.004H13.4576V13.104ZM9.15115 13.104V13.004H9.05115V13.104H9.15115ZM3.76813 8.63198L3.66814 8.63002L3.66615 8.73198H3.76813V8.63198ZM9.47413 3.22398L9.47411 3.32398H9.47413V3.22398ZM13.3499 3.22398V3.12398V3.22398ZM19.0559 20.176V20.276H19.1559V20.176H19.0559ZM16.5797 20.176L16.4909 20.13L16.4154 20.276H16.5797V20.176ZM13.4576 12.272H13.3576V12.372H13.4576V12.272ZM9.04349 12.272V12.372H9.14349V12.272H9.04349ZM6.02899 20.072V20.172H6.27645L6.09847 20.0001L6.02899 20.072ZM3.87579 20.072H3.77579V20.172H3.87579V20.072ZM3.87579 8.63198H3.97579V8.53198H3.87579V8.63198ZM21.6398 20.072H21.7398V19.972H21.6398V20.072ZM20.4555 20.072H20.3555V20.172H20.4555V20.072ZM20.4555 8.63198H20.5555L20.5554 8.62881L20.4555 8.63198ZM13.3499 2.07998V2.17999L13.3514 2.17996L13.3499 2.07998ZM11.8427 2.07998L11.8184 1.98296L11.8427 2.17998V2.07998ZM10.7661 1.24798L10.8657 1.26141L10.866 1.25128L10.7661 1.24798ZM11.1967 2.07998V2.17998L11.2446 1.99218L11.1967 2.07998ZM2.4762 8.83998H2.3762H2.4762ZM2.4762 20.28V20.38H2.5762V20.28H2.4762ZM1.18427 20.28L1.14546 20.3721L1.16408 20.38H1.18427V20.28ZM0.280151 20.852H0.180151H0.280151ZM1.18427 21.424V21.324H1.16408L1.14546 21.3318L1.18427 21.424ZM21.6398 21.424L21.6398 21.524L21.6398 21.424ZM22.2857 20.8L22.3857 20.8L22.2857 20.8ZM21.6398 20.176H21.5398V20.276L21.6398 20.276L21.6398 20.176ZM19.0559 24.648L19.0222 24.5538L19.0222 24.5538L19.0559 24.648ZM19.0559 23.088L19.0222 23.1821L19.0222 23.1821L19.0559 23.088ZM19.6175 23.868L19.7175 23.868L19.6175 23.868ZM17.3333 23.816H17.2333V23.829L17.2367 23.8416L17.3333 23.816ZM20.6708 23.816L20.7675 23.8416L20.7708 23.829V23.816H20.6708ZM3.66047 23.088L3.66047 22.988H3.64308L3.62671 22.9938L3.66047 23.088ZM3.66047 22.256L3.66047 22.156H3.64308L3.62671 22.1618L3.66047 22.256ZM3.66047 25.376L3.62671 25.4701L3.66847 25.4851L3.7076 25.4642L3.66047 25.376ZM3.66047 24.648L3.7076 24.5598L3.70113 24.5563L3.69422 24.5538L3.66047 24.648ZM3.0989 23.868H3.1989H3.0989ZM16.2567 23.088L16.2567 22.988H16.2394L16.223 22.9938L16.2567 23.088ZM16.2567 22.256L16.2567 22.156H16.2394L16.223 22.1618L16.2567 22.256ZM16.2567 25.376L16.223 25.4701L16.2647 25.4851L16.3039 25.4642L16.2567 25.376ZM16.2567 24.648L16.3039 24.5598L16.2974 24.5563L16.2905 24.5538L16.2567 24.648ZM15.6952 23.868H15.7952H15.6952ZM6.42588 24.5538C6.31039 24.5953 6.18612 24.6091 6.06373 24.5941L6.03942 24.7926C6.19267 24.8114 6.3484 24.7941 6.49339 24.7421L6.42588 24.5538ZM6.06373 24.5941C5.94135 24.5791 5.82478 24.5358 5.72392 24.468L5.61239 24.634C5.73964 24.7195 5.88616 24.7739 6.03942 24.7926L6.06373 24.5941ZM5.72392 24.468C5.62308 24.4003 5.54105 24.3102 5.48454 24.2057L5.30863 24.3009C5.38081 24.4343 5.48512 24.5485 5.61239 24.634L5.72392 24.468ZM5.48454 24.2057C5.42804 24.1013 5.39864 23.9854 5.39864 23.868H5.19864C5.19864 24.0189 5.23645 24.1675 5.30863 24.3009L5.48454 24.2057ZM5.39864 23.868C5.39864 23.7505 5.42804 23.6347 5.48454 23.5302L5.30863 23.435C5.23645 23.5685 5.19864 23.717 5.19864 23.868H5.39864ZM5.48454 23.5302C5.54105 23.4258 5.62308 23.3357 5.72392 23.2679L5.61239 23.1019C5.48512 23.1874 5.38081 23.3016 5.30863 23.435L5.48454 23.5302ZM5.72392 23.2679C5.82478 23.2002 5.94135 23.1568 6.06373 23.1418L6.03942 22.9433C5.88615 22.9621 5.73964 23.0164 5.61239 23.1019L5.72392 23.2679ZM6.06373 23.1418C6.18611 23.1269 6.31039 23.1407 6.42588 23.1821L6.49339 22.9938C6.3484 22.9419 6.19267 22.9246 6.03942 22.9433L6.06373 23.1418ZM6.42588 23.1821C6.57205 23.2345 6.69753 23.3287 6.78586 23.4514L6.94817 23.3345C6.83571 23.1783 6.67688 23.0596 6.49339 22.9938L6.42588 23.1821ZM6.78586 23.4514C6.87414 23.574 6.92121 23.7194 6.92121 23.868H7.12121C7.12121 23.6769 7.06065 23.4907 6.94817 23.3345L6.78586 23.4514ZM6.92121 23.868C6.92121 24.0166 6.87414 24.162 6.78586 24.2846L6.94817 24.4015C7.06065 24.2452 7.12121 24.059 7.12121 23.868H6.92121ZM6.78586 24.2846C6.69753 24.4073 6.57205 24.5014 6.42588 24.5538L6.49339 24.7421C6.67688 24.6763 6.83572 24.5576 6.94817 24.4015L6.78586 24.2846ZM6.45964 22.156C5.33109 22.156 4.63707 22.9255 4.63707 23.816H4.83707C4.83707 23.0424 5.43497 22.356 6.45964 22.356V22.156ZM4.64372 23.8518C4.77362 24.1899 5.00727 24.4808 5.31267 24.686L5.42421 24.52C5.15225 24.3373 4.94525 24.079 4.83042 23.7801L4.64372 23.8518ZM5.31267 24.686C5.61804 24.8912 5.98071 25.0009 6.35198 25.0009V24.8009C6.01997 24.8009 5.69621 24.7028 5.42421 24.52L5.31267 24.686ZM6.35198 25.0009C6.72324 25.0009 7.08591 24.8912 7.39128 24.686L7.27974 24.52C7.00774 24.7028 6.68398 24.8009 6.35198 24.8009V25.0009ZM7.39128 24.686C7.69668 24.4808 7.93033 24.1899 8.06023 23.8518L7.87354 23.7801C7.7587 24.079 7.55171 24.3373 7.27974 24.52L7.39128 24.686ZM8.06688 23.816C8.06688 22.9299 7.37727 22.156 6.35198 22.156V22.356C7.26457 22.356 7.86688 23.0381 7.86688 23.816H8.06688ZM8.28986 19.972H7.53624V20.172H8.28986V19.972ZM7.53624 19.972C7.27613 19.972 7.02735 19.8721 6.84444 19.6954L6.70549 19.8393C6.92639 20.0527 7.22528 20.172 7.53624 20.172V19.972ZM6.84444 19.6954C6.66166 19.5189 6.55964 19.2801 6.55964 19.032H6.35964C6.35964 19.3355 6.48447 19.6258 6.70549 19.8393L6.84444 19.6954ZM6.55964 19.032V14.04H6.35964V19.032H6.55964ZM6.55964 14.04C6.55964 13.8137 6.67784 13.5782 6.86555 13.3969C7.05305 13.2158 7.29841 13.1 7.53624 13.1V12.9C7.23577 12.9 6.94283 13.0442 6.7266 13.2531C6.51059 13.4617 6.35964 13.7462 6.35964 14.04H6.55964ZM7.53624 13.1H8.28986V12.9H7.53624V13.1ZM8.18986 13V20.072H8.38986V13H8.18986ZM12.5963 12.172H9.90477V12.372H12.5963V12.172ZM10.0048 12.272V11.856H9.80477V12.272H10.0048ZM10.0048 11.856C10.0048 11.7238 10.0499 11.6209 10.1223 11.5509C10.195 11.4806 10.3033 11.436 10.4431 11.436V11.236C10.2599 11.236 10.099 11.2953 9.98333 11.4071C9.86734 11.5191 9.80477 11.6762 9.80477 11.856H10.0048ZM10.4431 11.436H12.058V11.236H10.4431V11.436ZM12.058 11.436C12.1978 11.436 12.306 11.4806 12.3788 11.5509C12.4512 11.6209 12.4963 11.7238 12.4963 11.856H12.6963C12.6963 11.6762 12.6337 11.5191 12.5177 11.4071C12.4021 11.2953 12.2412 11.236 12.058 11.236V11.436ZM12.4963 11.856V12.272H12.6963V11.856H12.4963ZM14.2112 13.204H14.9648V13.004H14.2112V13.204ZM14.9648 13.204C15.4579 13.204 15.9414 13.5847 15.9414 14.144H16.1414C16.1414 13.4553 15.5483 13.004 14.9648 13.004V13.204ZM15.9414 14.144V19.032H16.1414V14.144H15.9414ZM15.9414 19.032C15.9414 19.2801 15.8394 19.5189 15.6566 19.6954L15.7956 19.8393C16.0166 19.6258 16.1414 19.3355 16.1414 19.032H15.9414ZM15.6566 19.6954C15.4737 19.8721 15.2249 19.972 14.9648 19.972V20.172C15.2758 20.172 15.5747 20.0527 15.7956 19.8393L15.6566 19.6954ZM14.9648 19.972H14.2112V20.172H14.9648V19.972ZM14.3112 20.072V13.104H14.1112V20.072H14.3112ZM9.15115 20.172H13.4576V19.972H9.15115V20.172ZM13.5576 20.072V13.104H13.3576V20.072H13.5576ZM13.4576 13.004H9.15115V13.204H13.4576V13.004ZM9.05115 13.104V20.072H9.25115V13.104H9.05115ZM3.86811 8.63393C3.89578 7.21746 4.49775 5.86731 5.54576 4.87404L5.40818 4.72888C4.3221 5.75824 3.69688 7.15894 3.66814 8.63002L3.86811 8.63393ZM5.54576 4.87404C6.59387 3.88067 8.00438 3.32372 9.47411 3.32398L9.47415 3.12398C7.95417 3.12372 6.49414 3.69963 5.40818 4.72888L5.54576 4.87404ZM9.47413 3.32398H13.3499V3.12398H9.47413V3.32398ZM13.3499 3.32398C14.8378 3.32398 16.2641 3.89498 17.3152 4.91033L17.4541 4.76648C16.3651 3.71443 14.8887 3.12398 13.3499 3.12398V3.32398ZM17.3152 4.91033C18.3661 5.92556 18.9559 7.30176 18.9559 8.73598H19.1559C19.1559 7.24644 18.5433 5.81865 17.4541 4.76648L17.3152 4.91033ZM18.9559 8.73598V20.176H19.1559V8.73598H18.9559ZM19.0559 20.076H16.5797V20.276H19.0559V20.076ZM16.6685 20.2219C16.8878 19.7983 17.0027 19.47 17.0027 19.032H16.8027C16.8027 19.426 16.7023 19.7217 16.4909 20.13L16.6685 20.2219ZM17.0027 19.032V14.04H16.8027V19.032H17.0027ZM17.0027 14.04C17.0027 12.9343 16.0856 12.172 14.9648 12.172V12.372C15.9973 12.372 16.8027 13.0657 16.8027 14.04H17.0027ZM14.9648 12.172H13.4576V12.372H14.9648V12.172ZM13.5576 12.272V11.856H13.3576V12.272H13.5576ZM13.5576 11.856C13.5576 10.9606 12.8583 10.404 12.058 10.404V10.604C12.7649 10.604 13.3576 11.0874 13.3576 11.856H13.5576ZM12.058 10.404H10.4431V10.604H12.058V10.404ZM10.4431 10.404C9.64275 10.404 8.94349 10.9606 8.94349 11.856H9.14349C9.14349 11.0874 9.73615 10.604 10.4431 10.604V10.404ZM8.94349 11.856V12.272H9.14349V11.856H8.94349ZM9.04349 12.172H7.53624V12.372H9.04349V12.172ZM7.53624 12.172C6.40382 12.172 5.60601 13.0493 5.60601 14.04H5.80601C5.80601 13.1586 6.51545 12.372 7.53624 12.372V12.172ZM5.60601 14.04V19.032H5.80601V14.04H5.60601ZM5.60601 19.032C5.60601 19.2371 5.6055 19.4316 5.64912 19.6142C5.69392 19.8017 5.78429 19.9746 5.95952 20.1439L6.09847 20.0001C5.95072 19.8573 5.8796 19.7182 5.84365 19.5677C5.80653 19.4124 5.80601 19.2428 5.80601 19.032H5.60601ZM6.02899 19.972H3.87579V20.172H6.02899V19.972ZM3.97579 20.072V8.63198H3.77579V20.072H3.97579ZM3.87579 8.53198H3.76813V8.73198H3.87579V8.53198ZM21.6398 19.972H20.4555V20.172H21.6398V19.972ZM20.5555 20.072V8.63198H20.3555V20.072H20.5555ZM20.5554 8.62881C20.4983 6.82673 19.7094 5.1195 18.3605 3.87573L18.225 4.02276C19.5352 5.23092 20.3001 6.88781 20.3555 8.63515L20.5554 8.62881ZM18.3605 3.87573C17.0118 2.63206 15.2114 1.95145 13.3484 1.97999L13.3514 2.17996C15.1641 2.1522 16.9146 2.81449 18.225 4.02276L18.3605 3.87573ZM13.3499 1.97998H11.8427V2.17998H13.3499V1.97998ZM11.8669 2.17699C12.0391 2.13394 12.196 2.04533 12.3197 1.92064L12.1777 1.77977C12.0801 1.87811 11.9558 1.94862 11.8184 1.98296L11.8669 2.17699ZM12.3197 1.92064C12.4434 1.79591 12.5292 1.64 12.5668 1.47019L12.3715 1.42695C12.3422 1.55923 12.2753 1.68146 12.1777 1.77977L12.3197 1.92064ZM12.5668 1.47019C12.6044 1.30036 12.5923 1.12377 12.5319 0.960331L12.3443 1.02961C12.3914 1.15715 12.4008 1.29468 12.3715 1.42695L12.5668 1.47019ZM12.5319 0.960331C12.4716 0.796922 12.3655 0.65345 12.2261 0.545697L12.1038 0.703948C12.2141 0.789184 12.2972 0.902046 12.3443 1.02961L12.5319 0.960331ZM12.2261 0.545697C12.0867 0.437965 11.9193 0.370096 11.7428 0.349308L11.7194 0.547935C11.8604 0.564538 11.9935 0.618691 12.1038 0.703948L12.2261 0.545697ZM11.7428 0.349308C11.5664 0.328521 11.3873 0.355578 11.2255 0.427623L11.3069 0.610316C11.4356 0.552992 11.5785 0.531332 11.7194 0.547935L11.7428 0.349308ZM11.2255 0.427623C11.0638 0.499678 10.9255 0.614025 10.8265 0.758291L10.9914 0.87144C11.0691 0.758197 11.1783 0.667631 11.3069 0.610316L11.2255 0.427623ZM10.8265 0.758291C10.7275 0.902592 10.6718 1.07101 10.6661 1.24468L10.866 1.25128C10.8705 1.11617 10.9138 0.984649 10.9914 0.87144L10.8265 0.758291ZM10.667 1.23461C10.642 1.41946 10.6749 1.60716 10.761 1.77351L10.9386 1.68158C10.8712 1.55147 10.8458 1.40518 10.8652 1.26134L10.667 1.23461ZM10.761 1.77351C10.847 1.93982 10.9823 2.07694 11.1488 2.16777L11.2446 1.99218C11.1123 1.92006 11.0059 1.81174 10.9386 1.68158L10.761 1.77351ZM11.1967 1.97998H9.47413V2.17998H11.1967V1.97998ZM9.47413 1.97998C7.59274 1.97998 5.78773 2.70191 4.45637 3.98801L4.59532 4.13186C5.88869 2.88246 7.64359 2.17998 9.47413 2.17998V1.97998ZM4.45637 3.98801C3.12489 5.27422 2.3762 7.01945 2.3762 8.83998H2.5762C2.5762 7.07477 3.30207 5.38114 4.59532 4.13186L4.45637 3.98801ZM2.3762 8.83998V20.28H2.5762V8.83998H2.3762ZM2.4762 20.18H1.18427V20.38H2.4762V20.18ZM1.22309 20.1878C1.10989 20.1401 0.986351 20.1205 0.863554 20.1305L0.879835 20.3299C0.970749 20.3224 1.06206 20.337 1.14546 20.3721L1.22309 20.1878ZM0.863554 20.1305C0.740754 20.1406 0.62225 20.18 0.518739 20.2455L0.625668 20.4145C0.701576 20.3665 0.788923 20.3373 0.879835 20.3299L0.863554 20.1305ZM0.518739 20.2455C0.41521 20.311 0.329816 20.4006 0.270565 20.5065L0.445106 20.6041C0.487829 20.5278 0.549777 20.4625 0.625668 20.4145L0.518739 20.2455ZM0.270565 20.5065C0.211302 20.6124 0.180151 20.7311 0.180151 20.852H0.380151C0.380151 20.7656 0.402395 20.6805 0.445106 20.6041L0.270565 20.5065ZM0.180151 20.852C0.180151 20.9728 0.211302 21.0916 0.270565 21.1975L0.445106 21.0998C0.402396 21.0235 0.380151 20.9383 0.380151 20.852H0.180151ZM0.270565 21.1975C0.329816 21.3034 0.41521 21.393 0.518739 21.4585L0.625668 21.2895C0.549777 21.2415 0.487829 21.1762 0.445106 21.0998L0.270565 21.1975ZM0.518739 21.4585C0.62225 21.524 0.740754 21.5634 0.863554 21.5734L0.879835 21.3741C0.788923 21.3667 0.701576 21.3375 0.625668 21.2895L0.518739 21.4585ZM0.863554 21.5734C0.986351 21.5835 1.10989 21.5638 1.22309 21.5161L1.14546 21.3318C1.06206 21.3669 0.970749 21.3815 0.879835 21.3741L0.863554 21.5734ZM1.18427 21.524H21.6398V21.324H1.18427V21.524ZM21.6398 21.524C21.8365 21.524 22.0259 21.4485 22.166 21.3131L22.027 21.1693C21.9249 21.268 21.7857 21.324 21.6398 21.324L21.6398 21.524ZM22.166 21.3131C22.3063 21.1776 22.3857 20.9931 22.3857 20.8L22.1857 20.8C22.1857 20.9378 22.1291 21.0707 22.027 21.1693L22.166 21.3131ZM22.3857 20.8C22.3857 20.6068 22.3063 20.4223 22.166 20.2868L22.027 20.4307C22.1291 20.5292 22.1857 20.6621 22.1857 20.8L22.3857 20.8ZM22.166 20.2868C22.0259 20.1514 21.8365 20.076 21.6398 20.076L21.6398 20.276C21.7857 20.276 21.9249 20.332 22.027 20.4307L22.166 20.2868ZM21.7398 20.176V20.072H21.5398V20.176H21.7398ZM19.0222 24.5538C18.9067 24.5953 18.7824 24.6091 18.66 24.5941L18.6357 24.7926C18.7889 24.8114 18.9447 24.7941 19.0897 24.7421L19.0222 24.5538ZM18.66 24.5941C18.5376 24.5791 18.421 24.5358 18.3202 24.468L18.2087 24.634C18.3359 24.7195 18.4824 24.7739 18.6357 24.7926L18.66 24.5941ZM18.3202 24.468C18.2194 24.4003 18.1373 24.3102 18.0808 24.2057L17.9049 24.3009C17.9771 24.4343 18.0814 24.5485 18.2087 24.634L18.3202 24.468ZM18.0808 24.2057C18.0243 24.1013 17.9949 23.9854 17.9949 23.868H17.7949C17.7949 24.0189 17.8327 24.1675 17.9049 24.3009L18.0808 24.2057ZM17.9949 23.868C17.9949 23.7505 18.0243 23.6347 18.0808 23.5302L17.9049 23.435C17.8327 23.5685 17.7949 23.717 17.7949 23.868H17.9949ZM18.0808 23.5302C18.1373 23.4258 18.2194 23.3357 18.3202 23.2679L18.2087 23.1019C18.0814 23.1874 17.9771 23.3016 17.9049 23.435L18.0808 23.5302ZM18.3202 23.2679C18.4211 23.2002 18.5376 23.1568 18.66 23.1418L18.6357 22.9433C18.4824 22.9621 18.3359 23.0164 18.2087 23.1019L18.3202 23.2679ZM18.66 23.1418C18.7824 23.1269 18.9067 23.1407 19.0222 23.1821L19.0897 22.9938C18.9447 22.9419 18.7889 22.9246 18.6357 22.9433L18.66 23.1418ZM19.0222 23.1821C19.1683 23.2345 19.2938 23.3287 19.3821 23.4514L19.5444 23.3345C19.432 23.1783 19.2732 23.0596 19.0897 22.9938L19.0222 23.1821ZM19.3821 23.4514C19.4704 23.574 19.5175 23.7194 19.5175 23.868L19.7175 23.868C19.7175 23.6769 19.6569 23.4907 19.5444 23.3345L19.3821 23.4514ZM19.5175 23.868C19.5175 24.0166 19.4704 24.162 19.3821 24.2846L19.5444 24.4015C19.6569 24.2452 19.7175 24.059 19.7175 23.868L19.5175 23.868ZM19.3821 24.2846C19.2938 24.4073 19.1683 24.5014 19.0222 24.5538L19.0897 24.7421C19.2732 24.6763 19.432 24.5576 19.5444 24.4015L19.3821 24.2846ZM19.0559 22.156C18.0393 22.156 17.2333 22.9215 17.2333 23.816H17.4333C17.4333 23.0465 18.1346 22.356 19.0559 22.356V22.156ZM17.2367 23.8416C17.3374 24.2217 17.5661 24.558 17.8859 24.7977L18.0058 24.6377C17.7213 24.4244 17.519 24.1261 17.43 23.7904L17.2367 23.8416ZM17.8859 24.7977C18.2055 25.0374 18.5983 25.1672 19.0021 25.1672V24.9672C18.6409 24.9672 18.2904 24.8511 18.0058 24.6377L17.8859 24.7977ZM19.0021 25.1672C19.4059 25.1672 19.7986 25.0374 20.1183 24.7977L19.9983 24.6377C19.7137 24.8511 19.3632 24.9672 19.0021 24.9672V25.1672ZM20.1183 24.7977C20.438 24.558 20.6667 24.2217 20.7675 23.8416L20.5742 23.7904C20.4852 24.1261 20.2829 24.4244 19.9983 24.6377L20.1183 24.7977ZM20.7708 23.816C20.7708 22.9255 19.9691 22.156 19.0559 22.156V22.356C19.8653 22.356 20.5708 23.0424 20.5708 23.816H20.7708ZM3.66047 23.188C3.80011 23.188 3.93469 23.1344 4.03445 23.0381L3.8955 22.8942C3.83373 22.9539 3.74925 22.988 3.66047 22.988L3.66047 23.188ZM4.03445 23.0381C4.13433 22.9416 4.19111 22.81 4.19111 22.672H3.99111C3.99111 22.7546 3.95714 22.8347 3.8955 22.8942L4.03445 23.0381ZM4.19111 22.672C4.19111 22.534 4.13433 22.4024 4.03445 22.3059L3.8955 22.4497C3.95714 22.5093 3.99111 22.5893 3.99111 22.672H4.19111ZM4.03445 22.3059C3.93469 22.2095 3.80011 22.156 3.66047 22.156L3.66047 22.356C3.74925 22.356 3.83373 22.3901 3.8955 22.4497L4.03445 22.3059ZM3.62671 22.1618C3.27839 22.2867 2.9774 22.5118 2.76456 22.8075L2.92687 22.9243C3.11558 22.6622 3.38322 22.4616 3.69422 22.3501L3.62671 22.1618ZM2.76456 22.8075C2.55169 23.1031 2.43733 23.4551 2.43733 23.816H2.63733C2.63733 23.4975 2.7382 23.1864 2.92687 22.9243L2.76456 22.8075ZM2.43733 23.816C2.43733 24.1769 2.55169 24.5288 2.76456 24.8245L2.92687 24.7076C2.7382 24.4456 2.63733 24.1344 2.63733 23.816H2.43733ZM2.76456 24.8245C2.9774 25.1201 3.27839 25.3452 3.62671 25.4701L3.69422 25.2818C3.38322 25.1703 3.11558 24.9698 2.92687 24.7076L2.76456 24.8245ZM3.7076 25.4642C3.79035 25.4199 3.85977 25.3549 3.90831 25.2754L3.73759 25.1712C3.70799 25.2197 3.6652 25.2601 3.61333 25.2878L3.7076 25.4642ZM3.90831 25.2754C3.95686 25.1958 3.98262 25.1048 3.98262 25.012H3.78262C3.78262 25.0677 3.76718 25.1227 3.73759 25.1712L3.90831 25.2754ZM3.98262 25.012C3.98262 24.9191 3.95686 24.8282 3.90831 24.7486L3.73759 24.8528C3.76718 24.9013 3.78262 24.9562 3.78262 25.012H3.98262ZM3.90831 24.7486C3.85977 24.6691 3.79035 24.604 3.7076 24.5598L3.61333 24.7362C3.6652 24.7639 3.70799 24.8043 3.73759 24.8528L3.90831 24.7486ZM3.69422 24.5538C3.54805 24.5014 3.42257 24.4073 3.33425 24.2846L3.17194 24.4015C3.28439 24.5576 3.44322 24.6763 3.62671 24.7421L3.69422 24.5538ZM3.33425 24.2846C3.24596 24.162 3.1989 24.0166 3.1989 23.868H2.9989C2.9989 24.059 3.05945 24.2452 3.17194 24.4015L3.33425 24.2846ZM3.1989 23.868C3.1989 23.7194 3.24596 23.574 3.33425 23.4514L3.17194 23.3345C3.05945 23.4907 2.9989 23.6769 2.9989 23.868H3.1989ZM3.33425 23.4514C3.42257 23.3287 3.54805 23.2345 3.69422 23.1821L3.62671 22.9938C3.44322 23.0596 3.28439 23.1783 3.17194 23.3345L3.33425 23.4514ZM16.2567 23.188C16.3964 23.188 16.531 23.1344 16.6307 23.0381L16.4918 22.8942C16.43 22.9539 16.3455 22.988 16.2567 22.988L16.2567 23.188ZM16.6307 23.0381C16.7306 22.9416 16.7874 22.81 16.7874 22.672H16.5874C16.5874 22.7546 16.5534 22.8347 16.4918 22.8942L16.6307 23.0381ZM16.7874 22.672C16.7874 22.534 16.7306 22.4024 16.6307 22.3059L16.4918 22.4497C16.5534 22.5093 16.5874 22.5893 16.5874 22.672H16.7874ZM16.6307 22.3059C16.531 22.2095 16.3964 22.156 16.2567 22.156L16.2567 22.356C16.3455 22.356 16.43 22.3901 16.4918 22.4497L16.6307 22.3059ZM16.223 22.1618C15.8747 22.2867 15.5737 22.5118 15.3608 22.8075L15.5231 22.9243C15.7119 22.6622 15.9795 22.4616 16.2905 22.3501L16.223 22.1618ZM15.3608 22.8075C15.148 23.1031 15.0336 23.4551 15.0336 23.816H15.2336C15.2336 23.4975 15.3345 23.1864 15.5231 22.9243L15.3608 22.8075ZM15.0336 23.816C15.0336 24.1769 15.148 24.5288 15.3608 24.8245L15.5231 24.7076C15.3345 24.4456 15.2336 24.1344 15.2336 23.816H15.0336ZM15.3608 24.8245C15.5737 25.1201 15.8747 25.3452 16.223 25.4701L16.2905 25.2818C15.9795 25.1703 15.7119 24.9698 15.5231 24.7076L15.3608 24.8245ZM16.3039 25.4642C16.3866 25.4199 16.456 25.3549 16.5046 25.2754L16.3339 25.1712C16.3043 25.2197 16.2615 25.2601 16.2096 25.2878L16.3039 25.4642ZM16.5046 25.2754C16.5531 25.1958 16.5789 25.1048 16.5789 25.012H16.3789C16.3789 25.0677 16.3634 25.1227 16.3339 25.1712L16.5046 25.2754ZM16.5789 25.012C16.5789 24.9191 16.5531 24.8282 16.5046 24.7486L16.3339 24.8528C16.3635 24.9013 16.3789 24.9562 16.3789 25.012H16.5789ZM16.5046 24.7486C16.456 24.6691 16.3866 24.604 16.3039 24.5598L16.2096 24.7362C16.2615 24.7639 16.3043 24.8043 16.3339 24.8528L16.5046 24.7486ZM16.2905 24.5538C16.1443 24.5014 16.0188 24.4073 15.9305 24.2846L15.7682 24.4015C15.8807 24.5576 16.0395 24.6763 16.223 24.7421L16.2905 24.5538ZM15.9305 24.2846C15.8422 24.162 15.7952 24.0166 15.7952 23.868H15.5952C15.5952 24.059 15.6557 24.2452 15.7682 24.4015L15.9305 24.2846ZM15.7952 23.868C15.7952 23.7194 15.8422 23.574 15.9305 23.4514L15.7682 23.3345C15.6557 23.4907 15.5952 23.6769 15.5952 23.868H15.7952ZM15.9305 23.4514C16.0188 23.3287 16.1443 23.2345 16.2905 23.1821L16.223 22.9938C16.0395 23.0596 15.8807 23.1783 15.7682 23.3345L15.9305 23.4514Z" fill="#262626" mask="url(#path-1-outside-1_1203_1867)"/>
</g>
<defs>
<clipPath id="clip0_1203_1867">
<rect width="22.6087" height="26" fill="white"/>
</clipPath>
</defs>
</svg>
