<svg fill="#fff" width="100px" height="50px" version="1.1" xmlns="http://www.w3.org/2000/svg" xmlns:xlink="http://www.w3.org/1999/xlink" x="0px" y="0px" viewBox="0 0 1000 1000" enable-background="new 0 0 1000 1000" xml:space="preserve">

<g><g transform="translate(0.000000,511.000000) scale(0.100000,-0.100000)"><path d="M728.5,4272.1c-298.7-83.1-546-342.3-609.3-644.9c-17.8-81.1-21.8-678.6-17.8-2334.4l5.9-2225.6l43.5-108.8c65.3-158.3,176.1-294.8,318.5-389.7c229.5-154.3,43.5-144.4,2736-144.4H5615l5.9-993.1l5.9-995.1l51.4-110.8c73.2-156.3,178-263.1,330.4-338.3l132.5-65.3h1622.2h1622.2l132.5,65.3c152.3,75.2,257.2,182,330.4,338.3L9900-3564v1157.3v1157.3l-55.4,112.8c-95,195.9-282.9,346.2-474.8,381.8l-73.2,13.9V-280c0,405.6-4,474.8-39.6,585.6c-69.2,221.6-247.3,409.5-459,486.7l-95,35.6v1339.3c0,908-7.9,1372.9-21.8,1444.2c-31.7,152.3-104.9,294.8-209.7,411.5c-104.8,116.7-219.6,187.9-383.8,239.4c-116.7,35.6-247.3,37.6-3693.5,35.6C1569.3,4295.8,799.7,4291.9,728.5,4272.1z M8085.9,3951.6c55.4-27.7,136.5-91,180-138.5c122.6-138.5,140.5-219.6,140.5-615.3v-342.2H4400.3H394.2v362c0,338.3,4,366,47.5,459c57.4,120.7,170.1,231.5,288.8,284.9c89,39.6,112.8,41.6,3671.8,41.6H7983L8085.9,3951.6z M8406.4,1730V879.3l-745.8-5.9c-714.2-7.9-753.7-9.9-864.5-51.4c-247.3-93-389.7-219.6-494.6-439.2l-61.3-128.6l-5.9-498.6c-5.9-411.5-11.9-500.5-33.6-500.5c-15.8,0-79.1-19.8-142.4-43.5c-164.2-61.3-344.2-243.3-393.7-397.6l-35.6-112.8l-2403.7,4c-2393.8,5.9-2405.6,5.9-2494.7,47.5c-122.7,57.4-207.7,132.5-273,243.3l-53.4,91l-5.9,1746.9l-4,1744.9h4006.1h4006.1V1730z M8685.3,529.1c124.6-57.4,225.5-152.3,278.9-261.1c41.5-87.1,45.5-120.7,51.4-542.1l7.9-451.1H7775.3H6527v451.1V177l55.4,106.8c63.3,126.6,154.3,203.8,300.7,257.2c102.9,37.6,152.3,39.6,910,33.6C8560.7,570.7,8598.3,568.7,8685.3,529.1z M9405.4-1073.3c43.5-21.8,106.8-79.1,138.5-124.6l59.3-85.1l5.9-1105.9c4-1058.4,4-1107.9-33.6-1179.1c-43.5-87-104.8-146.4-193.9-191.9c-57.4-27.7-223.5-31.6-1612.3-31.6c-1460,0-1553,2-1628.2,37.6c-96.9,43.5-180,136.5-207.7,235.4c-15.8,49.5-19.8,421.4-15.8,1153.4l5.9,1078.2l53.4,81.1c33.6,53.4,89,98.9,158.3,132.5l104.8,51.4l1543.1-4C9304.5-1031.8,9328.3-1031.8,9405.4-1073.3z"></path><path d="M1296.3,1015.8c-100.9-31.7-203.8-118.7-261.1-223.5l-57.4-102.9V135.5c0-488.7,4-565.8,35.6-646.9c41.5-108.8,164.2-223.5,271-255.2c45.5-11.9,451.1-17.8,1159.3-13.9l1088.1,5.9l83.1,55.4c45.5,29.7,106.8,91,136.5,136.5l55.4,81.1l5.9,599.4c5.9,670.7,5.9,676.6-138.5,813.1c-128.6,124.6-128.6,124.6-1280,122.6C1822.5,1033.6,1328,1023.7,1296.3,1015.8z M3480.4,699.3c21.8-21.8,43.5-59.3,49.5-83.1c5.9-25.7,9.9-267.1,5.9-534.2c-5.9-478.7-5.9-490.6-51.4-534.1l-45.5-45.5H2400.2H1359.6l-47.5,55.4c-47.5,55.4-47.5,55.4-47.5,550c0,506.5,11.9,589.5,83.1,617.2c13.8,5.9,490.6,11.9,1060.4,11.9C3411.1,738.8,3442.8,736.9,3480.4,699.3z"></path><path d="M7650.7-1459.1c-360.1-51.4-633.1-395.7-603.4-761.7c9.9-130.6,85.1-322.5,156.3-399.6c41.5-43.5,43.5-47.5,13.8-257.2c-15.8-116.7-27.7-271-27.7-344.2c0-122.7,4-138.5,61.3-195.8c81.1-81.1,162.2-96.9,512.4-96.9c364,0,435.2,15.8,520.3,106.8c77.2,85.1,79.1,128.6,29.7,488.6l-33.6,251.3l57.4,65.3c102.9,124.6,136.5,227.5,136.5,433.2c0,168.2-5.9,199.8-55.4,304.7c-69.2,142.4-191.9,269-322.5,336.3c-85.1,41.5-136.5,55.4-292.8,79.1C7781.2-1445.2,7712-1451.2,7650.7-1459.1z M7983-1803.3c122.7-73.2,191.9-184,201.8-326.4c11.9-152.3-19.8-237.4-128.6-344.2l-89-89l51.4-306.7c27.7-168.2,51.4-318.5,51.4-336.3c0-27.7-39.6-31.6-296.7-31.6c-350.2,0-316.5-49.5-255.2,381.8l41.6,290.8l-87.1,95c-104.8,110.8-142.4,209.7-130.6,338.3C7373.7-1811.2,7704.1-1641.1,7983-1803.3z"></path></g></g>
</svg>