<svg xmlns="http://www.w3.org/2000/svg" width="27" height="27" fill="none" viewBox="0 0 27 27">
  <g clip-path="url(#a)">
    <path fill="#fff" d="M0 0h27v27H0z"/>
    <g clip-path="url(#b)">
      <path fill="#34E0A1" d="M13.245 26.49c7.315 0 13.245-5.93 13.245-13.245C26.49 5.93 20.56 0 13.245 0 5.93 0 0 5.93 0 13.245 0 20.56 5.93 26.49 13.245 26.49Z"/>
      <path fill="#000" d="m21.425 10.66 1.598-1.74H19.48a11.071 11.071 0 0 0-12.458 0H3.468l1.599 1.74a4.886 4.886 0 1 0 6.612 7.195l1.567 1.704 1.565-1.703a4.884 4.884 0 0 0 6.919-.279 4.888 4.888 0 0 0-.305-6.917ZM8.359 17.578a3.306 3.306 0 1 1 0-6.612 3.306 3.306 0 0 1 0 6.612Zm4.887-3.402c0-2.176-1.583-4.043-3.67-4.842a9.543 9.543 0 0 1 7.339 0c-2.087.8-3.67 2.666-3.67 4.842Zm4.885 3.402a3.306 3.306 0 1 1 0-6.612 3.306 3.306 0 0 1 0 6.612Zm0-5.04a1.734 1.734 0 1 0 1.733 1.733 1.733 1.733 0 0 0-1.733-1.733Zm-8.039 1.733a1.733 1.733 0 1 1-1.733-1.733 1.734 1.734 0 0 1 1.733 1.733Z"/>
    </g>
  </g>
  <defs>
    <clipPath id="a">
      <path fill="#fff" d="M0 0h27v27H0z"/>
    </clipPath>
    <clipPath id="b">
      <path fill="#fff" d="M0 0h27v27H0z"/>
    </clipPath>
  </defs>
</svg>
