<!-- Generated by IcoMoon.io -->
<svg version="1.1" xmlns="http://www.w3.org/2000/svg" width="7377" height="1024" viewBox="0 0 7377 1024">
<title></title>
<g id="icomoon-ignore">
</g>
<path fill="#85b919" d="M232.186 157.106h-231.525v-82.687c0-36.548 22.987-55.897 67.473-57.716h549.209v88.972c0 18.357 0 51.432-56.889 51.432h-173.478v633.385h-154.791z"></path>
<path fill="#85b919" d="M652.734 578.811v-264.599c1.488-45.809 29.437-69.788 83.68-71.607h65.158v312.393c0 96.413 67.969 119.070 110.801 119.070s107.163-22.656 107.163-119.070v-239.463c3.142-35.886 14.884-67.969 73.096-72.599h75.742v547.721h-148.837v-49.612c-37.145 36.883-88.322 59.677-144.822 59.677-2.692 0-5.371-0.052-8.038-0.154l0.384 0.012c-98.729-0.331-214.326-53.912-214.326-221.767zM652.734 314.212c0.992-51.762 36.217-68.961 83.68-71.607z"></path>
<path fill="#85b919" d="M1348.3 242.935h66.15v52.424c37.034-37.579 88.489-60.859 145.381-60.859 2.902 0 5.79 0.061 8.663 0.181l-0.411-0.014c99.225 0 213.003 53.581 213.003 221.437v334.553h-148.837v-311.897c0-96.413-67.804-119.070-109.478-119.070s-108.32 22.656-108.32 119.070v311.897h-148.837v-494.801c0.661-16.537 16.537-52.92 82.687-52.92z"></path>
<path fill="#85b919" d="M1879.649 78.553c4.712-41.608 39.711-73.643 82.191-73.643s77.479 32.035 82.156 73.264l0.035 0.379c0.316 2.714 0.496 5.858 0.496 9.044 0 45.667-37.020 82.687-82.687 82.687s-82.687-37.020-82.687-82.687c0-3.186 0.18-6.331 0.531-9.423l-0.035 0.379zM1968.786 242.935h68.134l-1.323 547.721h-148.837v-494.801c0-33.075 23.814-49.612 82.026-52.92z"></path>
<path fill="#85b919" d="M2109.685 675.225c0 0.992 66.15-65.158 129.323-35.225 32.416 28.978 75.090 47.083 121.967 48.284l0.245 0.005c19.845 0 56.062 0 72.269-24.31 4.781-7.12 7.631-15.885 7.631-25.316 0-0.519-0.009-1.035-0.026-1.55l0.002 0.075c0-44.155-71.442-56.062-114.935-70.284s-192.165-49.612-192.165-169.178c0-115.762 103.855-166.698 223.587-166.698s201.922 56.062 229.705 115.762c-18.306 19.384-39.728 35.579-63.51 47.838l-1.317 0.617c-7.384 2.722-15.911 4.297-24.806 4.297s-17.423-1.575-25.319-4.46l0.512 0.164c-37.54-29.437-56.724-44.32-82.687-49.612-8.258-1.539-17.759-2.419-27.466-2.419-12.606 0-24.865 1.485-36.611 4.289l1.069-0.215c-16.802 1.392-31.33 10.068-40.571 22.825l-0.112 0.162c-3.127 5.76-4.966 12.613-4.966 19.895 0 0.215 0.002 0.43 0.005 0.644v-0.032c0 43.99 68.796 55.897 112.455 70.284s194.646 52.424 194.646 170.336c0 115.762-87.152 176.124-229.871 176.124-137.261-0.165-221.271-65.654-249.054-132.3z"></path>
<path fill="#85b919" d="M2640.372 78.553c4.712-41.608 39.711-73.643 82.191-73.643s77.479 32.035 82.156 73.264l0.035 0.379c0.316 2.714 0.496 5.858 0.496 9.044 0 45.667-37.020 82.687-82.687 82.687s-82.687-37.020-82.687-82.687c0-3.186 0.18-6.331 0.531-9.423l-0.035 0.379zM2729.509 242.935h68.134l-1.323 547.721h-148.837v-494.801c0-33.075 23.814-49.612 82.026-52.92z"></path>
<path fill="#85b919" d="M3564.32 16.703h297.674c119.070 0 225.075 77.395 225.075 217.964 0 73.757-28.61 123.866-72.599 154.791 60.811 33.29 101.359 96.835 101.359 169.851 0 2.672-0.054 5.33-0.162 7.976l0.012-0.379c0 140.403-113.116 223.752-231.525 223.752h-383.008v-709.788c0-33.075 13.561-64.165 63.173-64.165zM3837.023 329.922c55.897 0 91.618-33.075 91.618-86.987s-35.721-85.829-91.618-85.829h-140.403c-33.075-0.992-42.005 14.884-41.84 36.217v136.434zM3858.687 650.253c1.848 0.131 4.005 0.205 6.179 0.205 51.421 0 93.106-41.685 93.106-93.106 0-1.177-0.022-2.349-0.065-3.516l0.005 0.168c0.017-0.677 0.027-1.474 0.027-2.273 0-52.152-42.277-94.429-94.429-94.429-1.697 0-3.383 0.045-5.057 0.133l0.234-0.010h-162.067c-1.192-0.133-2.574-0.209-3.974-0.209-20.698 0-37.518 16.605-37.865 37.22v155.981z"></path>
<path fill="#85b919" d="M5433.054 16.703h97.075v435.762l160.083-190.346c9.589-11.177 23.476-18.43 39.069-19.179l0.125-0.005h150.822l-217.964 259.638 242.935 288.083h-173.809l-201.261-238.14v238.14h-148.837v-726.326c-0.015-0.436-0.023-0.948-0.023-1.463 0-25.665 20.805-46.47 46.47-46.47 1.873 0 3.72 0.111 5.535 0.326l-0.22-0.021z"></path>
<path fill="#85b919" d="M5947.866 78.553c4.712-41.608 39.711-73.643 82.191-73.643s77.479 32.035 82.156 73.264l0.035 0.379c0.316 2.714 0.496 5.858 0.496 9.044 0 45.667-37.020 82.687-82.687 82.687s-82.687-37.020-82.687-82.687c0-3.186 0.18-6.331 0.531-9.423l-0.035 0.379zM6037.003 242.935h68.134l-1.323 547.721h-148.837v-494.801c3.969-35.225 29.271-52.093 82.026-52.92z"></path>
<path fill="#85b919" d="M6309.54 242.935h66.15v52.424c37.034-37.579 88.489-60.859 145.381-60.859 2.902 0 5.79 0.061 8.663 0.181l-0.411-0.014c99.225 0 213.003 53.581 213.003 221.437v334.553h-148.837v-311.897c0-96.413-67.804-119.070-109.478-119.070s-108.32 22.656-108.32 119.070v311.897h-148.837v-494.801c1.488-17.034 17.86-53.747 82.687-52.92z"></path>
<path fill="#85b919" d="M6851.969 925.271l70.119-59.535c7.851-5.451 17.583-8.708 28.076-8.708 15.26 0 28.911 6.89 38.011 17.728l0.062 0.076c26.745 15.302 58.785 24.324 92.931 24.324 0.817 0 1.633-0.005 2.448-0.015l-0.124 0.001c51.101 0 144.041-28.61 144.041-146.522v-20.176c-37.358 41.76-91.408 67.92-151.569 67.92-2.412 0-4.815-0.042-7.207-0.125l0.347 0.010c-149.995 0-258.315-120.227-258.315-283.452s108.32-282.129 258.315-282.129c2.541-0.116 5.521-0.182 8.516-0.182 59.662 0 113.2 26.219 149.721 67.763l0.192 0.223v-33.075c3.374-14.964 16.553-25.973 32.303-25.973 0.271 0 0.542 0.003 0.812 0.010l-0.040-0.001h115.762v509.023c0 157.106-103.69 271.545-292.879 271.545-99.225 0.165-181.912-39.194-231.525-98.729zM7228.362 516.796c0-82.687-54.739-142.884-136.93-142.884s-135.773 60.693-135.773 142.884 53.581 142.884 135.773 142.884 136.269-60.693 136.269-142.884z"></path>
<path fill="#f40091" d="M4165.623 520.93c0-165.375 116.589-284.61 282.129-284.61s282.295 119.235 282.295 284.61-115.762 285.767-282.295 285.767-282.129-122.377-282.129-285.767zM4583.525 520.93c0-82.687-53.581-142.884-135.773-142.884s-135.773 60.196-135.773 142.884 54.904 142.884 135.773 142.884 135.773-60.196 135.773-142.884z"></path>
<path fill="#f40091" d="M4744.434 520.93c0-165.375 116.589-284.61 282.129-284.61s282.295 119.235 282.295 284.61-115.762 285.767-282.295 285.767-282.129-122.377-282.129-285.767zM5162.336 520.93c0-82.687-53.581-142.884-135.773-142.884s-135.773 60.196-135.773 142.884 54.904 142.884 135.773 142.884 135.773-60.196 135.773-142.884z"></path>
<path fill="#85b919" d="M3114.501 520.93c0 12.568 0 36.382 0 36.382h309.085v-40.517c0-163.059-100.052-284.61-263.111-284.61-165.375 0-272.703 121.55-272.703 284.61s110.966 285.271 278.656 285.271c100.052 0 183.401-42.832 231.525-111.793l-72.599-53.085c-6.729-3.842-14.788-6.107-23.376-6.107-12.028 0-23.018 4.443-31.419 11.778l0.056-0.048c-27.022 20.005-61.010 32.022-97.805 32.022-2.070 0-4.13-0.038-6.181-0.113l0.297 0.009c-67.969 0-121.55-43.99-135.773-117.912-2.282-12.411-3.587-26.692-3.587-41.278 0-18.726 2.151-36.949 6.219-54.436l-0.317 1.616c14.388-68.961 59.535-113.116 127.504-113.116s110.801 48.786 123.866 113.116h-112.951c-57.385 0.496-57.385 41.674-57.385 58.212z"></path>
</svg>
