<svg width="27" height="28" viewBox="0 0 27 28" fill="none" xmlns="http://www.w3.org/2000/svg">
<path d="M21.079 10.5002C21.079 10.0361 20.8852 9.59095 20.5401 9.26276C20.1951 8.93457 19.7271 8.7502 19.2391 8.7502H16.4792L17.3992 9.6252V7.0002C17.3992 6.53607 17.2053 6.09095 16.8603 5.76276C16.5152 5.43457 16.0472 5.2502 15.5593 5.2502H11.8794C11.3914 5.2502 10.9234 5.43457 10.5784 5.76276C10.2333 6.09095 10.0395 6.53607 10.0395 7.0002V9.6252L10.9595 8.7502H8.19957C7.71159 8.7502 7.2436 8.93457 6.89855 9.26276C6.5535 9.59095 6.35965 10.0361 6.35965 10.5002V14.0002C6.35965 14.4643 6.5535 14.9094 6.89855 15.2376C7.2436 15.5658 7.71159 15.7502 8.19957 15.7502H10.9595L10.0395 14.8752V17.5002C10.0395 17.9643 10.2333 18.4094 10.5784 18.7376C10.9234 19.0658 11.3914 19.2502 11.8794 19.2502H15.5593C16.0472 19.2502 16.5152 19.0658 16.8603 18.7376C17.2053 18.4094 17.3992 17.9643 17.3992 17.5002V14.8752L16.4792 15.7502H19.2391C19.7271 15.7502 20.1951 15.5658 20.5401 15.2376C20.8852 14.9094 21.079 14.4643 21.079 14.0002V10.5002ZM19.2391 10.5002V14.0002H16.4792C16.2352 14.0002 16.0012 14.0924 15.8287 14.2565C15.6562 14.4206 15.5593 14.6431 15.5593 14.8752V17.5002H11.8794V14.8752C11.8794 14.6431 11.7825 14.4206 11.61 14.2565C11.4374 14.0924 11.2034 14.0002 10.9595 14.0002H8.19957V10.5002H10.9595C11.2034 10.5002 11.4374 10.408 11.61 10.2439C11.7825 10.0798 11.8794 9.85726 11.8794 9.6252V7.0002H15.5593V9.6252C15.5593 10.1082 15.9714 10.5002 16.4792 10.5002H19.2391ZM0.839887 4.57703V13.46C0.839887 19.5699 4.79572 25.0485 10.7914 27.2419L12.0683 27.7085C13.1311 28.0972 14.3076 28.0972 15.3704 27.7085L16.6473 27.2419C19.5761 26.1703 22.0947 24.2798 23.8713 21.8195C25.6478 19.3592 26.5987 16.4447 26.5988 13.46V4.57703C26.6016 4.07503 26.4519 3.58293 26.1677 3.1599C25.8835 2.73687 25.4769 2.40089 24.9968 2.19237C21.4392 0.713506 17.5931 -0.0335391 13.7107 0.000199414C9.85059 -0.0348006 6.01007 0.711866 2.45656 2.18653C1.97235 2.39453 1.56192 2.73159 1.27498 3.1569C0.988046 3.58222 0.836914 4.07753 0.839887 4.58287V4.57703ZM2.67981 4.5712C2.67848 4.40553 2.72757 4.24303 2.82115 4.1033C2.91474 3.96357 3.04883 3.85258 3.20725 3.7837C6.51906 2.41073 10.0982 1.71781 13.7107 1.7502C17.3344 1.7165 20.9246 2.41145 24.2461 3.78953C24.5552 3.92487 24.7613 4.23287 24.7589 4.5712V13.46C24.7589 18.8454 21.2716 23.6754 15.9873 25.6085L14.7104 26.0752C14.0726 26.3085 13.3661 26.3085 12.7282 26.0752L11.4513 25.6085C8.86974 24.6639 6.6497 22.9974 5.08384 20.8287C3.51798 18.66 2.67981 16.0909 2.67981 13.46V4.57703V4.5712Z" fill="#262626"/>
</svg>
