<svg width="28" height="28" viewBox="0 0 28 28" fill="none" xmlns="http://www.w3.org/2000/svg">
<path d="M24.5117 3.3756L26.7003 2.0631C26.8968 1.94248 27.0378 1.74918 27.0925 1.52521C27.1473 1.30124 27.1115 1.06471 26.9928 0.86703C26.8741 0.669349 26.6822 0.526495 26.4588 0.469521C26.2354 0.412546 25.9985 0.446056 25.7997 0.562765L23.6133 1.87527C23.5136 1.9338 23.4265 2.01152 23.357 2.10393C23.2875 2.19634 23.237 2.30162 23.2084 2.41367C23.1798 2.52571 23.1737 2.64232 23.1905 2.75673C23.2073 2.87114 23.2465 2.9811 23.306 3.08024C23.3656 3.17938 23.4441 3.26575 23.5372 3.33434C23.6303 3.40292 23.7361 3.45238 23.8484 3.47985C23.9607 3.50731 24.0774 3.51224 24.1916 3.49435C24.3059 3.47645 24.4154 3.43609 24.514 3.3756H24.5117ZM23.6133 9.5006L25.7997 10.8131C25.9985 10.9298 26.2354 10.9633 26.4588 10.9063C26.6822 10.8494 26.8741 10.7065 26.9928 10.5088C27.1115 10.3112 27.1473 10.0746 27.0925 9.85066C27.0378 9.62669 26.8968 9.43338 26.7003 9.31277L24.5117 8.00027C24.3128 7.88356 24.0759 7.85005 23.8525 7.90702C23.6291 7.964 23.4372 8.10685 23.3185 8.30453C23.1999 8.50221 23.164 8.73874 23.2188 8.96271C23.2736 9.18668 23.4145 9.37998 23.611 9.5006H23.6133ZM24.0625 6.56293H26.6875C26.9196 6.56293 27.1421 6.47075 27.3062 6.30665C27.4703 6.14256 27.5625 5.92 27.5625 5.68793C27.5625 5.45587 27.4703 5.23331 27.3062 5.06921C27.1421 4.90512 26.9196 4.81293 26.6875 4.81293H24.0625C23.8304 4.81293 23.6079 4.90512 23.4438 5.06921C23.2797 5.23331 23.1875 5.45587 23.1875 5.68793C23.1875 5.92 23.2797 6.14256 23.4438 6.30665C23.6079 6.47075 23.8304 6.56293 24.0625 6.56293ZM17.0625 1.31293H9.1875C7.56305 1.31293 6.00513 1.95824 4.85647 3.1069C3.70781 4.25556 3.0625 5.81348 3.0625 7.43793C3.0625 7.92093 3.4545 8.31293 3.9375 8.31293H8.3125L7.4375 7.43793V12.6879C7.4375 13.1709 7.8295 13.5629 8.3125 13.5629H11.8125C12.0446 13.5629 12.2671 13.4707 12.4312 13.3067C12.5953 13.1426 12.6875 12.92 12.6875 12.6879V7.43793L11.8125 8.31293H17.0625C17.2946 8.31293 17.5171 8.22075 17.6812 8.05665C17.8453 7.89256 17.9375 7.67 17.9375 7.43793V2.18793C17.9375 1.95587 17.8453 1.73331 17.6812 1.56921C17.5171 1.40512 17.2946 1.31293 17.0625 1.31293ZM17.0625 3.06293L16.1875 2.18793V7.43793L17.0625 6.56293H11.8125C11.5804 6.56293 11.3579 6.65512 11.1938 6.81921C11.0297 6.98331 10.9375 7.20587 10.9375 7.43793V12.6879L11.8125 11.8129H8.3125L9.1875 12.6879V7.43793C9.1875 7.20587 9.09531 6.98331 8.93122 6.81921C8.76712 6.65512 8.54456 6.56293 8.3125 6.56293H3.9375L4.8125 7.43793C4.8125 6.27761 5.27344 5.16481 6.09391 4.34434C6.91438 3.52387 8.02718 3.06293 9.1875 3.06293H17.0625ZM11.0623 7.88827C11.6023 8.73975 12.2333 9.52996 12.9442 10.2449C14.4597 11.7593 16.1292 12.6879 17.9375 12.6879C18.1696 12.6879 18.3921 12.5957 18.5562 12.4317C18.7203 12.2676 18.8125 12.045 18.8125 11.8129C18.8125 11.5809 18.7203 11.3583 18.5562 11.1942C18.3921 11.0301 18.1696 10.9379 17.9375 10.9379C16.6822 10.9379 15.4 10.2263 14.1808 9.0071C13.5713 8.39369 13.0288 7.7171 12.5627 6.98877C12.5061 6.88551 12.4293 6.79474 12.3368 6.72188C12.2443 6.64902 12.1381 6.59556 12.0245 6.56472C11.9109 6.53388 11.7922 6.52629 11.6756 6.54239C11.559 6.55849 11.4468 6.59797 11.3458 6.65845C11.2448 6.71892 11.157 6.79917 11.0877 6.89436C11.0185 6.98956 10.9691 7.09776 10.9427 7.21247C10.9162 7.32719 10.9132 7.44606 10.9337 7.56199C10.9543 7.6779 10.998 7.78965 11.0623 7.88827ZM14.4375 16.1879V14.4379C14.4375 13.7417 14.1609 13.0741 13.6687 12.5818C13.1764 12.0895 12.5087 11.8129 11.8125 11.8129H8.3125C7.61631 11.8129 6.94863 12.0895 6.45634 12.5818C5.96406 13.0741 5.6875 13.7417 5.6875 14.4379V16.1879L6.5625 15.3129C2.90733 15.3129 0.4375 18.0569 0.4375 23.1879C0.4375 24.3483 0.898436 25.4611 1.71891 26.2815C2.53938 27.102 3.65218 27.5629 4.8125 27.5629H15.3125C16.4728 27.5629 17.5856 27.102 18.4061 26.2815C19.2266 25.4611 19.6875 24.3483 19.6875 23.1879C19.6875 18.0569 17.2177 15.3129 13.5625 15.3129L14.4375 16.1879ZM12.6875 16.1879C12.6875 16.6709 13.0795 17.0629 13.5625 17.0629C16.2073 17.0629 17.9375 18.9856 17.9375 23.1879C17.9375 23.8841 17.6609 24.5518 17.1687 25.0441C16.6764 25.5364 16.0087 25.8129 15.3125 25.8129H4.8125C4.11631 25.8129 3.44863 25.5364 2.95634 25.0441C2.46406 24.5518 2.1875 23.8841 2.1875 23.1879C2.1875 18.9856 3.91767 17.0629 6.5625 17.0629C6.79456 17.0629 7.01712 16.9707 7.18122 16.8067C7.34531 16.6426 7.4375 16.42 7.4375 16.1879V14.4379C7.4375 14.2059 7.52969 13.9833 7.69378 13.8192C7.85788 13.6551 8.08044 13.5629 8.3125 13.5629H11.8125C12.0446 13.5629 12.2671 13.6551 12.4312 13.8192C12.5953 13.9833 12.6875 14.2059 12.6875 14.4379V16.1879ZM19.6875 3.93793V6.56293C19.6875 6.795 19.7797 7.01756 19.9438 7.18165C20.1079 7.34575 20.3304 7.43793 20.5625 7.43793C20.7946 7.43793 21.0171 7.34575 21.1812 7.18165C21.3453 7.01756 21.4375 6.795 21.4375 6.56293V3.93793C21.4375 3.70587 21.3453 3.48331 21.1812 3.31921C21.0171 3.15512 20.7946 3.06293 20.5625 3.06293C20.3304 3.06293 20.1079 3.15512 19.9438 3.31921C19.7797 3.48331 19.6875 3.70587 19.6875 3.93793Z" fill="#262626"/>
</svg>
