<svg width="26" height="26" viewBox="0 0 26 26" fill="none" xmlns="http://www.w3.org/2000/svg">
<g clip-path="url(#clip0_1203_1873)">
<path d="M10.4 15.55H10.35V15.6V19.5C10.35 19.8315 10.2183 20.1495 9.98388 20.3839C9.74946 20.6183 9.43152 20.75 9.1 20.75C8.76848 20.75 8.45054 20.6183 8.21612 20.3839C7.9817 20.1495 7.85 19.8315 7.85 19.5V6.5C7.85 6.16848 7.9817 5.85054 8.21612 5.61612C8.45054 5.3817 8.76848 5.25 9.1 5.25H13C14.3659 5.25 15.6758 5.79259 16.6416 6.7584C17.6074 7.72421 18.15 9.03413 18.15 10.4C18.15 11.7659 17.6074 13.0758 16.6416 14.0416C15.6758 15.0074 14.3659 15.55 13 15.55H10.4ZM10.35 13V13.05H10.4H13C13.7028 13.05 14.3769 12.7708 14.8738 12.2738C15.3708 11.7769 15.65 11.1028 15.65 10.4C15.65 9.69718 15.3708 9.02314 14.8738 8.52617C14.3769 8.0292 13.7028 7.75 13 7.75H10.4H10.35V7.8V13ZM3.9 0.05H22.1C23.1211 0.05 24.1003 0.455624 24.8224 1.17764C25.5444 1.89965 25.95 2.87892 25.95 3.9V22.1C25.95 23.1211 25.5444 24.1003 24.8224 24.8224C24.1003 25.5444 23.1211 25.95 22.1 25.95H3.9C2.87892 25.95 1.89965 25.5444 1.17764 24.8224C0.455624 24.1003 0.05 23.1211 0.05 22.1V3.9C0.05 2.87892 0.455624 1.89965 1.17764 1.17764C1.89965 0.455624 2.87892 0.05 3.9 0.05ZM23.0546 23.0546C23.3078 22.8014 23.45 22.458 23.45 22.1V3.9C23.45 3.54196 23.3078 3.19858 23.0546 2.94541C22.8014 2.69223 22.458 2.55 22.1 2.55H3.9C3.54196 2.55 3.19858 2.69223 2.94541 2.94541C2.69223 3.19858 2.55 3.54196 2.55 3.9V22.1C2.55 22.458 2.69223 22.8014 2.94541 23.0546C3.19858 23.3078 3.54196 23.45 3.9 23.45H22.1C22.458 23.45 22.8014 23.3078 23.0546 23.0546Z" fill="#262626" stroke="white" stroke-width="0.1"/>
</g>
<defs>
<clipPath id="clip0_1203_1873">
<rect width="26" height="26" fill="white"/>
</clipPath>
</defs>
</svg>
