<svg width="19" height="19" viewBox="0 0 19 19" fill="none" xmlns="http://www.w3.org/2000/svg">
<g clip-path="url(#clip0_11_12490)">
<mask id="path-1-inside-1_11_12490" fill="white">
<path d="M17.721 16.8073C17.2942 16.8186 16.8739 16.7008 16.5152 16.4693C15.8841 16.0928 15.1629 15.894 14.428 15.894C13.6931 15.894 12.9718 16.0928 12.3407 16.4693C11.982 16.7008 11.5617 16.8186 11.1349 16.8073C10.7108 16.8203 10.293 16.7023 9.93831 16.4693C9.31135 16.0792 8.58473 15.8793 7.84648 15.8938C7.11126 15.8806 6.38792 16.0805 5.76379 16.4693C5.40839 16.7006 4.99107 16.8185 4.56716 16.8073C4.14036 16.8186 3.72009 16.7008 3.36139 16.4693C2.7379 16.079 2.01412 15.879 1.2787 15.8938C1.03643 15.8938 0.804088 15.9901 0.632781 16.1614C0.461474 16.3327 0.365234 16.565 0.365234 16.8073C0.365234 17.0495 0.461474 17.2819 0.632781 17.4532C0.804088 17.6245 1.03643 17.7207 1.2787 17.7207C1.70283 17.7077 2.12067 17.8258 2.47533 18.0587C3.10229 18.4488 3.8289 18.6487 4.56716 18.6342C5.30258 18.649 6.02636 18.449 6.64985 18.0587C7.00525 17.8274 7.42257 17.7095 7.84648 17.7207C8.27328 17.7094 8.69355 17.8272 9.05225 18.0587C9.67574 18.449 10.3995 18.649 11.1349 18.6342C11.8732 18.6487 12.5998 18.4488 13.2268 18.0587C13.585 17.8261 14.0056 17.7082 14.4325 17.7207C14.8567 17.7077 15.2745 17.8258 15.6292 18.0587C16.2568 18.4473 16.9829 18.6471 17.721 18.6342C17.9633 18.6342 18.1956 18.538 18.3669 18.3666C18.5382 18.1953 18.6345 17.963 18.6345 17.7207C18.6345 17.4785 18.5382 17.2461 18.3669 17.0748C18.1956 16.9035 17.9633 16.8073 17.721 16.8073ZM1.2787 14.0669C1.70283 14.0539 2.12067 14.1719 2.47533 14.4049C3.10229 14.7949 3.8289 14.9948 4.56716 14.9803C5.30258 14.9952 6.02636 14.7952 6.64985 14.4049C7.00525 14.1735 7.42257 14.0557 7.84648 14.0669C8.27328 14.0555 8.69355 14.1733 9.05225 14.4049C9.67574 14.7952 10.3995 14.9952 11.1349 14.9803C11.8732 14.9948 12.5998 14.7949 13.2268 14.4049C13.585 14.1723 14.0056 14.0544 14.4325 14.0669C14.8567 14.0539 15.2745 14.1719 15.6292 14.4049C16.2568 14.7935 16.9829 14.9933 17.721 14.9803C17.9633 14.9803 18.1956 14.8841 18.3669 14.7128C18.5382 14.5415 18.6345 14.3092 18.6345 14.0669C18.6345 13.8246 18.5382 13.5923 18.3669 13.421C18.1956 13.2497 17.9633 13.1534 17.721 13.1534C17.2942 13.1648 16.8739 13.047 16.5152 12.8154C15.8917 12.4252 15.168 12.2252 14.4325 12.24C14.2955 12.24 14.1859 12.24 14.0672 12.24V3.56208C14.0308 3.19868 14.1403 2.83573 14.3716 2.55308C14.6029 2.27042 14.9369 2.09121 15.3003 2.05487C15.6637 2.01853 16.0267 2.12804 16.3093 2.3593C16.592 2.59057 16.7712 2.92464 16.8075 3.28804C16.8315 3.408 16.8789 3.52206 16.947 3.6237C17.0151 3.72535 17.1025 3.81259 17.2043 3.88045C17.3061 3.94831 17.4202 3.99545 17.5402 4.01919C17.6602 4.04293 17.7837 4.0428 17.9037 4.01881C18.0237 3.99482 18.1377 3.94744 18.2394 3.87936C18.341 3.81129 18.4282 3.72387 18.4961 3.62208C18.564 3.52029 18.6111 3.40614 18.6348 3.28613C18.6586 3.16612 18.6585 3.04261 18.6345 2.92266C18.5497 2.07473 18.1315 1.29521 17.472 0.755596C16.8124 0.215978 15.9656 -0.0395401 15.1176 0.0452527C14.2697 0.130045 13.4902 0.548203 12.9506 1.20774C12.411 1.86727 12.1554 2.71415 12.2402 3.56208V5.84573H4.93254V3.56208C4.8962 3.19868 5.00571 2.83573 5.23697 2.55308C5.46824 2.27042 5.80232 2.09121 6.16571 2.05487C6.52911 2.01853 6.89206 2.12804 7.17472 2.3593C7.45738 2.59057 7.63659 2.92464 7.67293 3.28804C7.72138 3.53031 7.86409 3.7434 8.06966 3.88045C8.17144 3.9483 8.2856 3.99545 8.40561 4.01919C8.52561 4.04293 8.64912 4.0428 8.76908 4.01881C8.88904 3.99482 9.00309 3.94744 9.10474 3.87936C9.20638 3.81129 9.29363 3.72387 9.36148 3.62208C9.42934 3.52029 9.47649 3.40614 9.50023 3.28613C9.52397 3.16612 9.52384 3.04261 9.49985 2.92266C9.41506 2.07473 8.9969 1.29521 8.33737 0.755596C7.67783 0.215978 6.83095 -0.0395401 5.98302 0.0452527C5.13509 0.130045 4.35558 0.548203 3.81596 1.20774C3.27634 1.86727 3.02083 2.71415 3.10562 3.56208V12.6967C2.54519 12.3921 1.91654 12.2349 1.2787 12.24C1.03643 12.24 0.804088 12.3362 0.632781 12.5075C0.461474 12.6788 0.365234 12.9112 0.365234 13.1534C0.365234 13.3957 0.461474 13.628 0.632781 13.7993C0.804088 13.9706 1.03643 14.0669 1.2787 14.0669ZM9.93831 12.8154C9.31135 12.4254 8.58473 12.2255 7.84648 12.24C7.11126 12.2267 6.38792 12.4266 5.76379 12.8154C5.51323 12.9847 5.23011 13.0998 4.93254 13.1534V11.3265H12.2402V12.8611C11.9083 13.0645 11.524 13.1661 11.1349 13.1534C10.7108 13.1664 10.293 13.0484 9.93831 12.8154ZM12.2402 7.67266V9.49958H4.93254V7.67266H12.2402Z"/>
</mask>
<path d="M17.721 16.8073C17.2942 16.8186 16.8739 16.7008 16.5152 16.4693C15.8841 16.0928 15.1629 15.894 14.428 15.894C13.6931 15.894 12.9718 16.0928 12.3407 16.4693C11.982 16.7008 11.5617 16.8186 11.1349 16.8073C10.7108 16.8203 10.293 16.7023 9.93831 16.4693C9.31135 16.0792 8.58473 15.8793 7.84648 15.8938C7.11126 15.8806 6.38792 16.0805 5.76379 16.4693C5.40839 16.7006 4.99107 16.8185 4.56716 16.8073C4.14036 16.8186 3.72009 16.7008 3.36139 16.4693C2.7379 16.079 2.01412 15.879 1.2787 15.8938C1.03643 15.8938 0.804088 15.9901 0.632781 16.1614C0.461474 16.3327 0.365234 16.565 0.365234 16.8073C0.365234 17.0495 0.461474 17.2819 0.632781 17.4532C0.804088 17.6245 1.03643 17.7207 1.2787 17.7207C1.70283 17.7077 2.12067 17.8258 2.47533 18.0587C3.10229 18.4488 3.8289 18.6487 4.56716 18.6342C5.30258 18.649 6.02636 18.449 6.64985 18.0587C7.00525 17.8274 7.42257 17.7095 7.84648 17.7207C8.27328 17.7094 8.69355 17.8272 9.05225 18.0587C9.67574 18.449 10.3995 18.649 11.1349 18.6342C11.8732 18.6487 12.5998 18.4488 13.2268 18.0587C13.585 17.8261 14.0056 17.7082 14.4325 17.7207C14.8567 17.7077 15.2745 17.8258 15.6292 18.0587C16.2568 18.4473 16.9829 18.6471 17.721 18.6342C17.9633 18.6342 18.1956 18.538 18.3669 18.3666C18.5382 18.1953 18.6345 17.963 18.6345 17.7207C18.6345 17.4785 18.5382 17.2461 18.3669 17.0748C18.1956 16.9035 17.9633 16.8073 17.721 16.8073ZM1.2787 14.0669C1.70283 14.0539 2.12067 14.1719 2.47533 14.4049C3.10229 14.7949 3.8289 14.9948 4.56716 14.9803C5.30258 14.9952 6.02636 14.7952 6.64985 14.4049C7.00525 14.1735 7.42257 14.0557 7.84648 14.0669C8.27328 14.0555 8.69355 14.1733 9.05225 14.4049C9.67574 14.7952 10.3995 14.9952 11.1349 14.9803C11.8732 14.9948 12.5998 14.7949 13.2268 14.4049C13.585 14.1723 14.0056 14.0544 14.4325 14.0669C14.8567 14.0539 15.2745 14.1719 15.6292 14.4049C16.2568 14.7935 16.9829 14.9933 17.721 14.9803C17.9633 14.9803 18.1956 14.8841 18.3669 14.7128C18.5382 14.5415 18.6345 14.3092 18.6345 14.0669C18.6345 13.8246 18.5382 13.5923 18.3669 13.421C18.1956 13.2497 17.9633 13.1534 17.721 13.1534C17.2942 13.1648 16.8739 13.047 16.5152 12.8154C15.8917 12.4252 15.168 12.2252 14.4325 12.24C14.2955 12.24 14.1859 12.24 14.0672 12.24V3.56208C14.0308 3.19868 14.1403 2.83573 14.3716 2.55308C14.6029 2.27042 14.9369 2.09121 15.3003 2.05487C15.6637 2.01853 16.0267 2.12804 16.3093 2.3593C16.592 2.59057 16.7712 2.92464 16.8075 3.28804C16.8315 3.408 16.8789 3.52206 16.947 3.6237C17.0151 3.72535 17.1025 3.81259 17.2043 3.88045C17.3061 3.94831 17.4202 3.99545 17.5402 4.01919C17.6602 4.04293 17.7837 4.0428 17.9037 4.01881C18.0237 3.99482 18.1377 3.94744 18.2394 3.87936C18.341 3.81129 18.4282 3.72387 18.4961 3.62208C18.564 3.52029 18.6111 3.40614 18.6348 3.28613C18.6586 3.16612 18.6585 3.04261 18.6345 2.92266C18.5497 2.07473 18.1315 1.29521 17.472 0.755596C16.8124 0.215978 15.9656 -0.0395401 15.1176 0.0452527C14.2697 0.130045 13.4902 0.548203 12.9506 1.20774C12.411 1.86727 12.1554 2.71415 12.2402 3.56208V5.84573H4.93254V3.56208C4.8962 3.19868 5.00571 2.83573 5.23697 2.55308C5.46824 2.27042 5.80232 2.09121 6.16571 2.05487C6.52911 2.01853 6.89206 2.12804 7.17472 2.3593C7.45738 2.59057 7.63659 2.92464 7.67293 3.28804C7.72138 3.53031 7.86409 3.7434 8.06966 3.88045C8.17144 3.9483 8.2856 3.99545 8.40561 4.01919C8.52561 4.04293 8.64912 4.0428 8.76908 4.01881C8.88904 3.99482 9.00309 3.94744 9.10474 3.87936C9.20638 3.81129 9.29363 3.72387 9.36148 3.62208C9.42934 3.52029 9.47649 3.40614 9.50023 3.28613C9.52397 3.16612 9.52384 3.04261 9.49985 2.92266C9.41506 2.07473 8.9969 1.29521 8.33737 0.755596C7.67783 0.215978 6.83095 -0.0395401 5.98302 0.0452527C5.13509 0.130045 4.35558 0.548203 3.81596 1.20774C3.27634 1.86727 3.02083 2.71415 3.10562 3.56208V12.6967C2.54519 12.3921 1.91654 12.2349 1.2787 12.24C1.03643 12.24 0.804088 12.3362 0.632781 12.5075C0.461474 12.6788 0.365234 12.9112 0.365234 13.1534C0.365234 13.3957 0.461474 13.628 0.632781 13.7993C0.804088 13.9706 1.03643 14.0669 1.2787 14.0669ZM9.93831 12.8154C9.31135 12.4254 8.58473 12.2255 7.84648 12.24C7.11126 12.2267 6.38792 12.4266 5.76379 12.8154C5.51323 12.9847 5.23011 13.0998 4.93254 13.1534V11.3265H12.2402V12.8611C11.9083 13.0645 11.524 13.1661 11.1349 13.1534C10.7108 13.1664 10.293 13.0484 9.93831 12.8154ZM12.2402 7.67266V9.49958H4.93254V7.67266H12.2402Z" fill="#262626" stroke="white" stroke-width="0.6" mask="url(#path-1-inside-1_11_12490)"/>
</g>
<defs>
<clipPath id="clip0_11_12490">
<rect width="19" height="19" fill="white"/>
</clipPath>
</defs>
</svg>
