<svg width="57" height="54" viewBox="0 0 57 54" fill="none" xmlns="http://www.w3.org/2000/svg">
<path d="M51.5532 37.3863V41.215C51.5426 42.2406 51.1253 43.2201 50.3928 43.9381C49.6603 44.656 48.6727 45.0537 47.6471 45.0437H10.5421C9.51645 45.0537 8.52886 44.656 7.79638 43.9381C7.0639 43.2201 6.64651 42.2406 6.63599 41.215V7.71631C6.64396 8.48542 6.957 9.21988 7.50628 9.75829C8.05557 10.2967 8.79615 10.595 9.56527 10.5876H47.6471C48.6727 10.5776 49.6603 10.9753 50.3928 11.6932C51.1253 12.4112 51.5426 13.3907 51.5532 14.4163V22.0725" stroke="#262626" stroke-width="1.599" stroke-linecap="round" stroke-linejoin="round"/>
<path d="M53.5058 33.5575H43.7411C42.2029 33.5723 40.7217 32.9758 39.6232 31.899C38.5246 30.8222 37.8985 29.3532 37.8826 27.815C37.8985 26.2768 38.5246 24.8079 39.6232 23.7311C40.7217 22.6543 42.2029 22.0577 43.7411 22.0725H53.5058C54.0184 22.0677 54.5119 22.2666 54.878 22.6254C55.2441 22.9842 55.4528 23.4737 55.4582 23.9863V31.6425C55.4531 32.1553 55.2446 32.6452 54.8784 33.0043C54.5123 33.3634 54.0186 33.5624 53.5058 33.5575Z" stroke="#262626" stroke-width="1.599" stroke-linecap="round" stroke-linejoin="round"/>
<path d="M43.7408 29.7277C44.8191 29.7277 45.6932 28.8708 45.6932 27.8139C45.6932 26.757 44.8191 25.9001 43.7408 25.9001C42.6625 25.9001 41.7883 26.757 41.7883 27.8139C41.7883 28.8708 42.6625 29.7277 43.7408 29.7277Z" stroke="#262626" stroke-width="1.599" stroke-linecap="round" stroke-linejoin="round"/>
<path d="M6.63599 7.71635C6.64396 6.94724 6.957 6.21278 7.50628 5.67437C8.05557 5.13597 8.79615 4.83769 9.56527 4.84511H20.3068" stroke="#262626" stroke-width="1.599" stroke-linecap="round" stroke-linejoin="round"/>
<path d="M40.6436 10.5878L31.4556 1.57749C31.0859 1.21798 30.5906 1.01685 30.075 1.01685C29.5593 1.01685 29.064 1.21798 28.6943 1.57749L19.5063 10.5878" stroke="#262626" stroke-width="1.599" stroke-linecap="round" stroke-linejoin="round"/>
<path d="M46.9834 10.5877L43.8982 2.27619C43.7141 1.79533 43.3487 1.40596 42.8804 1.19184C42.4122 0.977725 41.8786 0.955999 41.3945 1.13133L33.7781 3.85025" stroke="#262626" stroke-width="1.599" stroke-linecap="round" stroke-linejoin="round"/>
<circle cx="11.1328" cy="42.3047" r="10.6328" fill="#262626" stroke="#262626"/>
<path d="M17.6883 35.831C17.5948 35.7157 17.4604 35.6427 17.3143 35.6278C17.1682 35.6129 17.0223 35.6574 16.9082 35.7515C11.6923 40.0889 9.39647 44.5398 8.59403 46.4246L5.42886 42.5641C5.33374 42.4506 5.19853 42.3797 5.05251 42.367C4.90649 42.3542 4.76141 42.4006 4.64871 42.496C4.53721 42.5929 4.46768 42.7307 4.45516 42.8794C4.44265 43.0282 4.48816 43.176 4.58184 43.2908L8.34884 47.8894C8.46029 48.0256 8.61632 48.0938 8.77235 48.0938H8.8838C8.98189 48.074 9.07297 48.0278 9.14749 47.9599C9.222 47.8919 9.2772 47.8048 9.30731 47.7077C9.3296 47.6509 11.1462 42.0191 17.6103 36.6371C17.7235 36.5418 17.7951 36.4049 17.8097 36.2561C17.8243 36.1073 17.7807 35.9586 17.6883 35.8423V35.831Z" fill="white" stroke="white" stroke-width="0.5"/>
</svg>
