<svg width="25" height="25" viewBox="0 0 25 25" fill="none" xmlns="http://www.w3.org/2000/svg">
<path d="M17.2379 10.6122C17.6749 10.6177 18.1087 10.535 18.5135 10.369C18.9182 10.203 19.2859 9.95716 19.5948 9.64588L22.6827 6.53824C22.8859 6.33249 23 6.05418 23 5.76407C23 5.47397 22.8859 5.19565 22.6827 4.9899C22.5813 4.88698 22.4606 4.80529 22.3276 4.74954C22.1947 4.69379 22.052 4.66509 21.908 4.66509C21.7639 4.66509 21.6213 4.69379 21.4884 4.74954C21.3554 4.80529 21.2347 4.88698 21.1333 4.9899L18.0126 8.08657C17.9112 8.18949 17.7905 8.27119 17.6575 8.32694C17.5245 8.38268 17.3819 8.41139 17.2379 8.41139C17.0938 8.41139 16.9512 8.38268 16.8183 8.32694C16.6853 8.27119 16.5646 8.18949 16.4632 8.08657L20.3258 4.21025C20.4276 4.10786 20.5083 3.98631 20.5633 3.85254C20.6184 3.71876 20.6467 3.57539 20.6467 3.43059C20.6467 3.2858 20.6184 3.14242 20.5633 3.00864C20.5083 2.87487 20.4276 2.75332 20.3258 2.65093C20.2241 2.54855 20.1033 2.46733 19.9704 2.41192C19.8375 2.35651 19.695 2.32799 19.5511 2.32799C19.4072 2.32799 19.2648 2.35651 19.1318 2.41192C18.9989 2.46733 18.8781 2.54855 18.7764 2.65093L14.9247 6.53824C14.7214 6.33249 14.6074 6.05418 14.6074 5.76407C14.6074 5.47397 14.7214 5.19565 14.9247 4.9899L18.0126 1.88226C18.1143 1.77987 18.195 1.65832 18.2501 1.52455C18.3052 1.39077 18.3335 1.2474 18.3335 1.1026C18.3335 0.957806 18.3052 0.814428 18.2501 0.680654C18.195 0.54688 18.1143 0.42533 18.0126 0.322944C17.9109 0.220559 17.7901 0.139341 17.6572 0.0839306C17.5242 0.0285197 17.3818 -2.85427e-09 17.2379 0C17.094 2.85427e-09 16.9515 0.0285197 16.8186 0.0839306C16.6857 0.139341 16.5649 0.220559 16.4632 0.322944L13.3752 3.43059C12.7622 4.04828 12.4179 4.88558 12.4179 5.75858C12.4179 6.63158 12.7622 7.46888 13.3752 8.08657L11.9567 9.50313L2.93296 0.388831L2.82384 0.322944C2.76806 0.273969 2.7056 0.233291 2.63835 0.202153L2.44194 0.125285L2.311 0.0374364H2.23462H2.01639C1.95134 0.0269676 1.88504 0.0269676 1.81999 0.0374364C1.75393 0.0616323 1.69151 0.0948894 1.63449 0.136266L1.45991 0.246077H1.38353L1.31806 0.355888C1.27188 0.413867 1.23166 0.476413 1.19803 0.542566C1.16608 0.609527 1.1405 0.679386 1.12165 0.751207C1.12165 0.751207 1.12165 0.828074 1.12165 0.871999C0.856871 2.72935 1.02569 4.62324 1.61472 6.40351C2.20375 8.18379 3.19679 9.80148 4.51512 11.1283L7.39574 14.0164L1.49264 19.9461C1.39037 20.0482 1.3092 20.1697 1.2538 20.3035C1.1984 20.4373 1.16988 20.5808 1.16988 20.7258C1.16988 20.8708 1.1984 21.0143 1.2538 21.1481C1.3092 21.2819 1.39037 21.4034 1.49264 21.5055C1.5946 21.6072 1.71552 21.6877 1.84846 21.7424C1.9814 21.797 2.12375 21.8247 2.26736 21.8239C2.41096 21.8247 2.55331 21.797 2.68626 21.7424C2.8192 21.6877 2.94011 21.6072 3.04207 21.5055L9.66533 14.9388L12.7533 11.8311L14.9356 9.6349C15.5444 10.2542 16.3722 10.6056 17.2379 10.6122ZM8.89061 12.6108L6.0209 9.71177C4.44797 8.10714 3.46309 6.01253 3.22757 3.771L10.44 11.0185L8.89061 12.6108ZM15.6994 13.2367C15.4939 13.0285 15.2147 12.9109 14.9231 12.9099C14.6315 12.9088 14.3514 13.0244 14.1445 13.2312C13.9376 13.438 13.8208 13.719 13.8197 14.0125C13.8187 14.3059 13.9336 14.5878 14.139 14.796L21.0132 21.7141C21.2217 21.9049 21.4954 22.0073 21.7771 21.9996C21.9207 22.0004 22.063 21.9727 22.1959 21.9181C22.3289 21.8634 22.4498 21.7829 22.5518 21.6811C22.654 21.5791 22.7352 21.4576 22.7906 21.3238C22.846 21.19 22.8745 21.0465 22.8745 20.9015C22.8745 20.7565 22.846 20.613 22.7906 20.4792C22.7352 20.3454 22.654 20.2239 22.5518 20.1218L15.6994 13.2367Z" fill="#262626"/>
</svg>
