<svg width="33" height="26" viewBox="0 0 33 26" fill="none" xmlns="http://www.w3.org/2000/svg">
<path d="M16.4883 17.677C18.5793 17.677 20.2744 19.4359 20.2744 21.6056C20.2744 23.7753 18.5793 25.5342 16.4883 25.5342C14.3973 25.5342 12.7023 23.7753 12.7023 21.6056C12.7023 19.4359 14.3973 17.677 16.4883 17.677ZM16.4883 19.8199C15.5379 19.8199 14.7674 20.6194 14.7674 21.6056C14.7674 22.5918 15.5379 23.3913 16.4883 23.3913C17.4388 23.3913 18.2093 22.5918 18.2093 21.6056C18.2093 20.6194 17.4388 19.8199 16.4883 19.8199ZM16.4884 11.9629C20.1198 11.9629 23.2646 14.1241 24.7936 17.2745L23.2299 18.8953C22.1827 16.0927 19.5592 14.1057 16.4884 14.1057C13.4177 14.1057 10.7942 16.0927 9.74692 18.8953L8.1838 17.2734C9.71294 14.1236 12.8575 11.9629 16.4884 11.9629ZM16.4885 6.24874C21.6312 6.24874 26.1612 8.9704 28.8138 13.1013L27.3196 14.6521C25.0741 10.8943 21.063 8.3916 16.4885 8.3916C11.9141 8.3916 7.90296 10.8943 5.65747 14.6521L4.16325 13.1013C6.81585 8.9704 11.3459 6.24874 16.4885 6.24874ZM16.4883 0.53418C23.1495 0.53418 29.0615 3.86207 32.7645 9.00296L31.2875 10.5362C27.9743 5.77536 22.58 2.67703 16.4883 2.67703C10.3971 2.67703 5.00314 5.77489 1.68995 10.5351L0.212891 9.00189C3.91597 3.86161 9.82766 0.53418 16.4883 0.53418Z" fill="#262626"/>
</svg>
